<svg width="213" height="163" viewBox="0 0 213 163" fill="none" xmlns="http://www.w3.org/2000/svg">
<path opacity="0.94" d="M0 161.085C52.7654 170.599 107.775 144.299 148.1 90.2882C165.391 67.1241 180.864 35.5602 179.962 0H0V161.085Z" fill="#A7C8F9"/>
<path d="M211.783 0.752615C212.379 21.3457 204.633 40.4817 193.957 56.3666C183.31 72.2089 169.833 85.3696 155.684 96.7221C126.906 119.807 93.549 134.918 59.0608 140.893C39.7354 144.239 20.0777 144.667 0.667239 142.075C-0.0339539 141.98 -0.309567 143.229 0.472688 143.333C35.7066 148.032 71.7106 142.706 105.007 128.516C121.593 121.444 137.497 112.17 152.275 100.865C166.996 89.6078 181.052 76.4091 192.405 60.6048C204.528 43.7279 213.623 23.0352 212.967 0.491583C212.942 -0.338973 211.759 -0.0257344 211.783 0.752615Z" fill="#44376D"/>
</svg>
