<svg width="214" height="149" viewBox="0 0 214 149" fill="none" xmlns="http://www.w3.org/2000/svg">
<path d="M45.0353 149C44.1878 119.547 58.7139 93.4051 74.9505 74.224C112.812 29.4869 164.461 7.70666 214 15.586V149H45.0353Z" fill="#E54848"/>
<path d="M2.15614 148.261C-0.134858 137.491 0.641312 125.797 4.25959 115.65C7.80285 105.719 14.0526 97.9855 21.3786 92.6394C37.1386 81.1303 56.2168 79.3631 73.9014 77.6962C92.3852 75.955 111.175 74.7669 128.802 66.7143C136.846 63.0389 144.536 57.9192 151.169 50.9655C157.967 43.8373 163.527 35.0459 169.266 26.5738C175.118 17.9308 181.434 8.5751 189.689 3.70418C193.593 1.40237 198.016 0.236615 202.252 1.57315C205.868 2.71292 209.316 5.42311 211.384 9.46984C212.415 11.4858 213 13.7319 213.156 16.1377C213.196 16.7874 214.039 16.5423 213.999 15.9335C213.404 6.69282 206.341 0.548473 199.566 0.0398477C190.904 -0.609856 183.186 6.79677 177.279 14.1143C170.663 22.3117 165.091 31.7454 158.81 40.3438C152.528 48.9421 144.793 56.6569 136.09 61.8657C118.463 72.4132 98.7994 74.4514 79.675 76.1963C60.969 77.9041 40.9214 78.9362 23.8081 89.9032C16.6956 94.4622 10.2295 100.952 5.91869 109.643C1.33092 118.869 -0.694624 130.148 0.211389 141.037C0.427793 143.639 0.825977 146.194 1.36266 148.718C1.48962 149.316 2.28021 148.867 2.15326 148.265L2.15614 148.261Z" fill="#44376D"/>
</svg>
