<svg width="100" height="50" viewBox="0 0 100 50" fill="none" xmlns="http://www.w3.org/2000/svg">
<path d="M54.7762 27.3587C54.1229 27.0484 53.3334 27.1409 52.8489 27.7452C51.5313 29.3891 52.0648 32.0021 51.9995 33.9781C51.9342 35.8234 51.6184 37.7396 51.0358 39.4924C50.5785 40.8696 49.8707 42.3775 48.8308 43.3192C47.7691 44.2827 46.555 44.7291 45.3409 44.3862C42.6186 43.6186 40.8927 40.0531 40.1577 37.3367C39.1559 33.6133 39.047 29.6232 38.8946 25.7964C38.7966 23.3468 38.8292 20.8972 38.802 18.4421C38.7911 17.2935 38.7857 16.1395 38.7748 14.9909C38.7585 13.7661 38.8456 12.4923 38.2358 11.3927C37.8383 10.6796 36.7821 10.6687 36.2921 11.3165C34.833 13.2599 34.784 16.2212 34.5117 18.5564C34.2177 21.055 34.1633 23.5972 34.0979 26.1121C33.9836 30.7228 33.9509 35.4478 35.2413 39.917C36.401 43.9289 39.1069 48.0987 43.4407 49.084C48.3898 50.2108 52.8815 46.814 54.9014 42.5027C55.974 40.211 56.5566 37.6253 56.7471 35.1158C56.8506 33.7222 56.758 28.3168 54.7762 27.375V27.3587Z" fill="#FFFBF8"/>
<path d="M55.913 15.7212C53.4793 14.97 49.4939 16.3527 49.5157 19.2759C49.5375 22.1882 52.8478 22.2644 54.884 21.486C56.6589 20.8055 58.9238 18.8023 57.8186 16.712C57.4647 16.0424 56.6698 15.6777 55.913 15.7267V15.7212Z" fill="#FFFBF8"/>
<path d="M99.6981 18.6655C99.1863 17.9252 97.9395 17.4897 97.0902 17.272C96.1483 17.0324 95.2064 16.8528 94.2481 16.7331C93.6275 16.6568 93.0122 16.5861 92.3916 16.5262C92.2337 15.7695 92.054 15.0074 91.8253 14.278C91.5096 13.2601 91.1829 12.3945 90.6439 11.2949C90.0341 10.0429 87.9924 10.7941 88.0523 12.106C88.1122 13.3798 88.1775 14.082 88.2428 14.8169C88.2864 15.2851 88.2918 15.7587 88.3408 16.2322C86.5932 16.1506 84.8455 16.0853 83.0978 16.1833C82.1123 16.2377 81.1868 16.401 80.2285 16.6187C79.3138 16.8256 78.3121 17.0216 77.7132 17.8163C77.5335 18.0504 77.3919 18.4314 77.5607 18.7091C77.6533 18.8615 77.9636 19.1881 78.3937 19.4058C79.7113 20.0808 81.3446 20.3313 82.341 20.4129C84.1213 20.5653 85.9072 20.6579 87.6875 20.8048C88.0305 20.8321 88.3735 20.8647 88.7165 20.8974C88.7492 21.4635 88.7764 22.0296 88.7927 22.5958C88.8417 24.6589 88.7601 26.7329 88.5913 28.796C88.4987 29.9337 88.379 31.066 88.2374 32.1928C87.5078 38.0882 87.1975 39.3946 86.9035 40.3962C86.2556 42.5682 85.7819 43.3684 84.5569 44.4462C84.3282 44.6694 83.909 44.9035 83.4735 45.0886C82.6894 45.4206 81.8129 45.5023 80.9962 45.2737C80.4517 45.1267 79.7385 44.7511 79.2921 44.0162C78.6115 42.8948 78.3284 42.1817 78.0289 40.9351C77.6369 39.3402 77.4137 37.7071 77.2123 36.0795C76.7985 32.7644 76.4609 29.3948 75.2468 26.2593C74.6588 24.7351 73.5808 23.4722 71.8222 23.4341C69.8676 23.396 68.452 24.8004 67.3414 26.243C66.4757 27.3698 65.7788 28.5783 65.1962 29.8466C65.0656 28.9593 64.8478 28.1155 64.3687 27.2827C63.699 26.1123 61.8097 26.2593 61.2435 27.5222C60.4105 29.3676 60.6065 30.6087 60.5412 32.5031C60.4922 33.8313 60.4922 35.1595 60.5139 36.4878C60.5575 39.3511 60.5575 41.7245 60.5248 44.5987C60.503 46.4658 61.7607 46.9448 62.719 46.9938C63.8133 47.0483 65.1309 46.3896 65.5501 45.339C67.6299 40.1567 67.4503 33.7823 70.4937 28.9756C70.5808 28.8341 70.7986 28.5401 70.9238 28.8014C71.0708 29.1662 71.2124 29.5363 71.3159 29.9119C71.5282 30.6849 71.6806 31.4742 71.8167 32.2635C72.3884 35.5569 72.5463 38.921 73.3793 42.1708C74.1851 45.29 75.6878 48.4963 79.1178 49.34C81.7584 49.9878 84.5896 49.5305 86.7837 47.8975C91.0359 44.7293 91.8253 38.9428 92.5277 34.0763C93.0558 30.4182 93.1484 27.152 93.132 23.0421C93.132 22.4651 93.0776 21.8827 93.0395 21.3002C93.9432 21.3927 94.8362 21.4526 95.7454 21.469C96.769 21.4853 98.0865 21.469 98.9903 20.9409C99.8669 20.4347 100.346 19.58 99.709 18.6601L99.6981 18.6655Z" fill="#FFFBF8"/>
<path d="M27.7749 6.118C29.2885 5.64985 30.7966 5.17082 32.3102 4.69179C33.8673 4.19642 35.5061 3.77727 36.8291 2.7811C38.0378 1.87202 37.5424 0.189959 36.0724 0.0320953C34.5261 -0.131212 32.9363 0.364153 31.4391 0.717985C29.9309 1.07182 28.4228 1.42565 26.9147 1.76859C23.9529 2.44359 21.0128 3.21114 18.0565 3.90791C15.0946 4.61013 12.1492 5.35046 9.19279 6.06357C6.2473 6.77123 2.56137 6.97264 0.508786 9.32971C-0.291557 10.2497 -0.106444 11.5452 0.775567 12.0569C2.40348 13.0041 6.92787 11.6813 9.73179 10.9954C12.1492 10.4021 14.572 9.80874 16.9784 9.1664C16.5592 9.90128 16.2598 10.6525 15.9821 11.4636C15.4268 13.0749 15.1219 14.8005 14.9476 16.4934C14.7843 18.0503 14.6591 19.6126 14.5665 21.1803C13.2272 21.4307 11.8878 21.7029 10.5866 22.0731C9.58479 22.3562 7.74455 23.0475 6.91154 23.5755C6.03497 24.1308 5.73552 24.7513 5.81174 25.6876C5.99686 27.8378 9.68279 27.3425 11.1419 27.1465C12.2254 26.9995 13.3143 26.7437 14.3923 26.4606C14.3923 26.8961 14.3923 27.337 14.3923 27.7725C14.425 31.4741 14.6482 35.1812 15.1491 38.8447C15.3995 40.6846 15.8079 42.5681 16.2815 44.3699C16.6463 45.7526 17.6536 48.4363 18.5356 49.4923C19.472 50.6192 21.0782 49.6774 21.5409 48.5397C21.9493 47.5326 21.8349 44.849 21.7696 43.0472C21.7043 41.2562 21.5301 39.4598 21.3558 37.6798C21.0128 34.1905 20.7025 30.6957 20.5609 27.19C20.5283 26.4007 20.501 25.6169 20.4684 24.8275C21.3068 24.5935 22.1453 24.3594 22.9783 24.1199C25.02 23.5265 27.2686 22.9931 29.0435 21.7791C30.1759 21.0062 29.6424 19.7759 28.7386 19.384C28.4609 19.2697 28.1125 19.2642 27.9655 19.2479C26.147 19.09 24.285 19.4711 22.5046 19.7596C21.7859 19.8739 21.0727 19.9937 20.3595 20.1189C20.3486 19.0138 20.3595 17.9088 20.3867 16.8037C20.4303 15.2795 20.55 13.7825 20.6862 12.2638C20.7624 11.4255 20.8604 10.5654 20.9856 9.73253C21.0237 9.47668 21.1326 8.37708 21.1925 8.02325C23.3975 7.41901 25.5971 6.79845 27.7749 6.12345V6.118Z" fill="#FFFBF8"/>
</svg>
