<svg width="390" height="254" viewBox="0 0 390 254" fill="none" xmlns="http://www.w3.org/2000/svg">
  <rect width="390" height="254" fill="#B5D9FF" />
  <rect x="43.5" y="48.5" width="113" height="110" stroke="white" />
  <rect x="97" y="76" width="131" height="129" fill="#B5D9FF" />
  <path d="M110.523 98.625H120.729V101.154H113.512V104.465H119.83V106.965H113.512V113H110.523V98.625ZM125.367 113H122.584V98.6055H125.367V113ZM130.953 101.086H128.131V98.5176H130.953V101.086ZM128.131 102.355H130.953V113H128.131V102.355ZM139.557 102.102C140.657 102.102 141.555 102.391 142.252 102.971C142.955 103.544 143.307 104.497 143.307 105.832V113H140.455V106.525C140.455 105.965 140.38 105.536 140.23 105.236C139.957 104.689 139.436 104.416 138.668 104.416C137.724 104.416 137.076 104.816 136.725 105.617C136.542 106.04 136.451 106.581 136.451 107.238V113H133.678V102.375H136.363V103.928C136.721 103.381 137.06 102.987 137.379 102.746C137.952 102.316 138.678 102.102 139.557 102.102ZM144.791 104.436V102.453H146.275V99.4844H149.029V102.453H150.758V104.436H149.029V110.061C149.029 110.497 149.085 110.77 149.195 110.881C149.306 110.985 149.645 111.037 150.211 111.037C150.296 111.037 150.383 111.037 150.475 111.037C150.572 111.031 150.667 111.024 150.758 111.018V113.098L149.439 113.146C148.124 113.192 147.226 112.964 146.744 112.463C146.432 112.144 146.275 111.652 146.275 110.988V104.436H144.791ZM170.006 102.121C170.475 102.121 170.937 102.212 171.393 102.395C171.848 102.577 172.262 102.896 172.633 103.352C172.932 103.723 173.134 104.178 173.238 104.719C173.303 105.077 173.336 105.601 173.336 106.291L173.316 113H170.465V106.223C170.465 105.819 170.4 105.487 170.27 105.227C170.022 104.732 169.566 104.484 168.902 104.484C168.134 104.484 167.604 104.803 167.311 105.441C167.161 105.78 167.086 106.187 167.086 106.662V113H164.283V106.662C164.283 106.031 164.218 105.572 164.088 105.285C163.854 104.771 163.395 104.514 162.711 104.514C161.917 104.514 161.383 104.771 161.109 105.285C160.96 105.578 160.885 106.014 160.885 106.594V113H158.062V102.375H160.768V103.928C161.113 103.374 161.438 102.98 161.744 102.746C162.285 102.329 162.984 102.121 163.844 102.121C164.658 102.121 165.315 102.3 165.816 102.658C166.22 102.99 166.526 103.417 166.734 103.938C167.099 103.312 167.551 102.854 168.092 102.561C168.665 102.268 169.303 102.121 170.006 102.121ZM181.773 107.824C181.598 107.935 181.419 108.026 181.236 108.098C181.061 108.163 180.816 108.225 180.504 108.283L179.879 108.4C179.293 108.505 178.873 108.632 178.619 108.781C178.189 109.035 177.975 109.429 177.975 109.963C177.975 110.438 178.105 110.783 178.365 110.998C178.632 111.206 178.954 111.311 179.332 111.311C179.931 111.311 180.481 111.135 180.982 110.783C181.49 110.432 181.754 109.79 181.773 108.859V107.824ZM180.084 106.525C180.598 106.46 180.966 106.379 181.188 106.281C181.585 106.112 181.783 105.848 181.783 105.49C181.783 105.054 181.63 104.755 181.324 104.592C181.025 104.423 180.582 104.338 179.996 104.338C179.339 104.338 178.873 104.501 178.6 104.826C178.404 105.067 178.274 105.393 178.209 105.803H175.523C175.582 104.872 175.842 104.107 176.305 103.508C177.04 102.57 178.303 102.102 180.094 102.102C181.259 102.102 182.294 102.333 183.199 102.795C184.104 103.257 184.557 104.13 184.557 105.412V110.295C184.557 110.633 184.563 111.044 184.576 111.525C184.596 111.89 184.651 112.137 184.742 112.268C184.833 112.398 184.97 112.505 185.152 112.59V113H182.125C182.04 112.785 181.982 112.583 181.949 112.395C181.917 112.206 181.891 111.991 181.871 111.75C181.487 112.167 181.044 112.521 180.543 112.814C179.944 113.16 179.267 113.332 178.512 113.332C177.548 113.332 176.751 113.059 176.119 112.512C175.494 111.958 175.182 111.177 175.182 110.168C175.182 108.859 175.686 107.912 176.695 107.326C177.249 107.007 178.062 106.779 179.137 106.643L180.084 106.525ZM187.008 98.6543H189.742V106.408L193.209 102.404H196.656L192.936 106.477L196.803 113H193.443L190.895 108.449L189.742 109.65V113H187.008V98.6543ZM202.369 104.367C201.725 104.367 201.223 104.569 200.865 104.973C200.514 105.376 200.292 105.923 200.201 106.613H204.527C204.482 105.878 204.257 105.321 203.854 104.943C203.456 104.559 202.962 104.367 202.369 104.367ZM202.369 102.072C203.255 102.072 204.052 102.238 204.762 102.57C205.471 102.902 206.057 103.426 206.52 104.143C206.936 104.774 207.206 105.507 207.33 106.34C207.402 106.828 207.431 107.531 207.418 108.449H200.133C200.172 109.517 200.507 110.266 201.139 110.695C201.523 110.962 201.985 111.096 202.525 111.096C203.098 111.096 203.564 110.933 203.922 110.607C204.117 110.432 204.29 110.188 204.439 109.875H207.281C207.21 110.507 206.881 111.148 206.295 111.799C205.383 112.834 204.107 113.352 202.467 113.352C201.113 113.352 199.918 112.915 198.883 112.043C197.848 111.171 197.33 109.751 197.33 107.785C197.33 105.943 197.796 104.53 198.727 103.547C199.664 102.564 200.878 102.072 202.369 102.072ZM211.471 109.602C211.529 110.096 211.656 110.448 211.852 110.656C212.197 111.027 212.835 111.213 213.766 111.213C214.312 111.213 214.745 111.132 215.064 110.969C215.39 110.806 215.553 110.562 215.553 110.236C215.553 109.924 215.423 109.686 215.162 109.523C214.902 109.361 213.935 109.081 212.262 108.684C211.057 108.384 210.208 108.01 209.713 107.561C209.218 107.118 208.971 106.48 208.971 105.646C208.971 104.663 209.355 103.82 210.123 103.117C210.898 102.408 211.985 102.053 213.385 102.053C214.713 102.053 215.794 102.32 216.627 102.854C217.467 103.381 217.949 104.296 218.072 105.598H215.289C215.25 105.24 215.149 104.956 214.986 104.748C214.68 104.37 214.16 104.182 213.424 104.182C212.818 104.182 212.385 104.276 212.125 104.465C211.871 104.654 211.744 104.875 211.744 105.129C211.744 105.448 211.881 105.679 212.154 105.822C212.428 105.972 213.395 106.229 215.055 106.594C216.161 106.854 216.992 107.248 217.545 107.775C218.092 108.309 218.365 108.977 218.365 109.777C218.365 110.832 217.971 111.695 217.184 112.365C216.402 113.029 215.191 113.361 213.551 113.361C211.878 113.361 210.641 113.01 209.84 112.307C209.046 111.597 208.648 110.695 208.648 109.602H211.471ZM231.871 102.082C232.529 102.082 233.124 102.196 233.658 102.424C234.199 102.652 234.641 103 234.986 103.469C235.279 103.866 235.458 104.276 235.523 104.699C235.589 105.116 235.621 105.799 235.621 106.75V113H232.779V106.525C232.779 105.952 232.682 105.49 232.486 105.139C232.232 104.644 231.751 104.396 231.041 104.396C230.305 104.396 229.745 104.644 229.361 105.139C228.984 105.627 228.795 106.327 228.795 107.238V113H226.021V98.6543H228.795V103.742C229.199 103.124 229.664 102.694 230.191 102.453C230.725 102.206 231.285 102.082 231.871 102.082ZM241.09 101.086H238.268V98.5176H241.09V101.086ZM238.268 102.355H241.09V113H238.268V102.355ZM249.576 102.102C249.628 102.102 249.671 102.105 249.703 102.111C249.742 102.111 249.824 102.115 249.947 102.121V104.973C249.771 104.953 249.615 104.94 249.479 104.934C249.342 104.927 249.231 104.924 249.146 104.924C248.027 104.924 247.275 105.288 246.891 106.018C246.676 106.428 246.568 107.059 246.568 107.912V113H243.766V102.355H246.422V104.211C246.852 103.501 247.226 103.016 247.545 102.756C248.066 102.32 248.743 102.102 249.576 102.102ZM254.449 101.086H251.627V98.5176H254.449V101.086ZM251.627 102.355H254.449V113H251.627V102.355ZM263.053 102.102C264.153 102.102 265.051 102.391 265.748 102.971C266.451 103.544 266.803 104.497 266.803 105.832V113H263.951V106.525C263.951 105.965 263.876 105.536 263.727 105.236C263.453 104.689 262.932 104.416 262.164 104.416C261.22 104.416 260.572 104.816 260.221 105.617C260.038 106.04 259.947 106.581 259.947 107.238V113H257.174V102.375H259.859V103.928C260.217 103.381 260.556 102.987 260.875 102.746C261.448 102.316 262.174 102.102 263.053 102.102ZM273.951 110.715C274.602 110.715 275.152 110.471 275.602 109.982C276.051 109.488 276.275 108.703 276.275 107.629C276.275 106.62 276.061 105.852 275.631 105.324C275.208 104.797 274.638 104.533 273.922 104.533C272.945 104.533 272.271 104.992 271.9 105.91C271.705 106.398 271.607 107.001 271.607 107.717C271.607 108.335 271.712 108.885 271.92 109.367C272.298 110.266 272.975 110.715 273.951 110.715ZM273.258 102.102C273.792 102.102 274.257 102.183 274.654 102.346C275.331 102.626 275.878 103.14 276.295 103.889V102.355H279V112.453C279 113.827 278.769 114.862 278.307 115.559C277.512 116.757 275.989 117.355 273.736 117.355C272.376 117.355 271.266 117.089 270.406 116.555C269.547 116.021 269.072 115.223 268.98 114.162H272.008C272.086 114.488 272.213 114.722 272.389 114.865C272.688 115.119 273.193 115.246 273.902 115.246C274.905 115.246 275.576 114.911 275.914 114.24C276.135 113.811 276.246 113.088 276.246 112.072V111.389C275.979 111.844 275.693 112.186 275.387 112.414C274.833 112.837 274.114 113.049 273.229 113.049C271.861 113.049 270.768 112.57 269.947 111.613C269.133 110.65 268.727 109.348 268.727 107.707C268.727 106.125 269.12 104.797 269.908 103.723C270.696 102.642 271.812 102.102 273.258 102.102ZM114.869 133.715C115.52 133.715 116.07 133.471 116.52 132.982C116.969 132.488 117.193 131.703 117.193 130.629C117.193 129.62 116.979 128.852 116.549 128.324C116.126 127.797 115.556 127.533 114.84 127.533C113.863 127.533 113.189 127.992 112.818 128.91C112.623 129.398 112.525 130.001 112.525 130.717C112.525 131.335 112.63 131.885 112.838 132.367C113.215 133.266 113.893 133.715 114.869 133.715ZM114.176 125.102C114.71 125.102 115.175 125.183 115.572 125.346C116.249 125.626 116.796 126.14 117.213 126.889V125.355H119.918V135.453C119.918 136.827 119.687 137.862 119.225 138.559C118.43 139.757 116.907 140.355 114.654 140.355C113.294 140.355 112.184 140.089 111.324 139.555C110.465 139.021 109.99 138.223 109.898 137.162H112.926C113.004 137.488 113.131 137.722 113.307 137.865C113.606 138.119 114.111 138.246 114.82 138.246C115.823 138.246 116.493 137.911 116.832 137.24C117.053 136.811 117.164 136.088 117.164 135.072V134.389C116.897 134.844 116.611 135.186 116.305 135.414C115.751 135.837 115.032 136.049 114.146 136.049C112.779 136.049 111.686 135.57 110.865 134.613C110.051 133.65 109.645 132.348 109.645 130.707C109.645 129.125 110.038 127.797 110.826 126.723C111.614 125.642 112.73 125.102 114.176 125.102ZM125.367 136H122.584V121.605H125.367V136ZM132.867 134.037C133.681 134.037 134.306 133.747 134.742 133.168C135.178 132.589 135.396 131.765 135.396 130.697C135.396 129.63 135.178 128.809 134.742 128.236C134.306 127.657 133.681 127.367 132.867 127.367C132.053 127.367 131.425 127.657 130.982 128.236C130.546 128.809 130.328 129.63 130.328 130.697C130.328 131.765 130.546 132.589 130.982 133.168C131.425 133.747 132.053 134.037 132.867 134.037ZM138.316 130.697C138.316 132.26 137.867 133.598 136.969 134.711C136.07 135.818 134.706 136.371 132.877 136.371C131.048 136.371 129.684 135.818 128.785 134.711C127.887 133.598 127.438 132.26 127.438 130.697C127.438 129.161 127.887 127.829 128.785 126.703C129.684 125.577 131.048 125.014 132.877 125.014C134.706 125.014 136.07 125.577 136.969 126.703C137.867 127.829 138.316 129.161 138.316 130.697ZM146.07 125.121C147.47 125.121 148.564 125.626 149.352 126.635C150.146 127.644 150.543 128.946 150.543 130.541C150.543 132.195 150.152 133.565 149.371 134.652C148.59 135.74 147.499 136.283 146.1 136.283C145.221 136.283 144.514 136.107 143.98 135.756C143.661 135.548 143.316 135.183 142.945 134.662V136H140.221V121.625H142.994V126.742C143.346 126.247 143.733 125.87 144.156 125.609C144.658 125.284 145.296 125.121 146.07 125.121ZM145.357 133.988C146.074 133.988 146.63 133.699 147.027 133.119C147.424 132.54 147.623 131.778 147.623 130.834C147.623 130.079 147.525 129.454 147.33 128.959C146.959 128.021 146.275 127.553 145.279 127.553C144.27 127.553 143.577 128.012 143.199 128.93C143.004 129.418 142.906 130.049 142.906 130.824C142.906 131.736 143.108 132.491 143.512 133.09C143.915 133.689 144.531 133.988 145.357 133.988ZM158.414 130.824C158.238 130.935 158.059 131.026 157.877 131.098C157.701 131.163 157.457 131.225 157.145 131.283L156.52 131.4C155.934 131.505 155.514 131.632 155.26 131.781C154.83 132.035 154.615 132.429 154.615 132.963C154.615 133.438 154.745 133.783 155.006 133.998C155.273 134.206 155.595 134.311 155.973 134.311C156.572 134.311 157.122 134.135 157.623 133.783C158.131 133.432 158.395 132.79 158.414 131.859V130.824ZM156.725 129.525C157.239 129.46 157.607 129.379 157.828 129.281C158.225 129.112 158.424 128.848 158.424 128.49C158.424 128.054 158.271 127.755 157.965 127.592C157.665 127.423 157.223 127.338 156.637 127.338C155.979 127.338 155.514 127.501 155.24 127.826C155.045 128.067 154.915 128.393 154.85 128.803H152.164C152.223 127.872 152.483 127.107 152.945 126.508C153.681 125.57 154.944 125.102 156.734 125.102C157.9 125.102 158.935 125.333 159.84 125.795C160.745 126.257 161.197 127.13 161.197 128.412V133.295C161.197 133.633 161.204 134.044 161.217 134.525C161.236 134.89 161.292 135.137 161.383 135.268C161.474 135.398 161.611 135.505 161.793 135.59V136H158.766C158.681 135.785 158.622 135.583 158.59 135.395C158.557 135.206 158.531 134.991 158.512 134.75C158.128 135.167 157.685 135.521 157.184 135.814C156.585 136.16 155.908 136.332 155.152 136.332C154.189 136.332 153.391 136.059 152.76 135.512C152.135 134.958 151.822 134.177 151.822 133.168C151.822 131.859 152.327 130.912 153.336 130.326C153.889 130.007 154.703 129.779 155.777 129.643L156.725 129.525ZM166.52 136H163.736V121.605H166.52V136ZM172.086 136H169.303V121.605H172.086V136ZM175.24 138.041L175.592 138.061C175.865 138.074 176.126 138.064 176.373 138.031C176.62 137.999 176.829 137.924 176.998 137.807C177.161 137.696 177.311 137.465 177.447 137.113C177.59 136.762 177.649 136.547 177.623 136.469L173.717 125.355H176.812L179.137 133.207L181.334 125.355H184.293L180.641 135.824C179.938 137.842 179.381 139.092 178.971 139.574C178.561 140.062 177.74 140.307 176.51 140.307C176.262 140.307 176.064 140.303 175.914 140.297C175.764 140.297 175.54 140.287 175.24 140.268V138.041ZM197.379 130.824C197.203 130.935 197.024 131.026 196.842 131.098C196.666 131.163 196.422 131.225 196.109 131.283L195.484 131.4C194.898 131.505 194.479 131.632 194.225 131.781C193.795 132.035 193.58 132.429 193.58 132.963C193.58 133.438 193.71 133.783 193.971 133.998C194.238 134.206 194.56 134.311 194.938 134.311C195.536 134.311 196.087 134.135 196.588 133.783C197.096 133.432 197.359 132.79 197.379 131.859V130.824ZM195.689 129.525C196.204 129.46 196.572 129.379 196.793 129.281C197.19 129.112 197.389 128.848 197.389 128.49C197.389 128.054 197.236 127.755 196.93 127.592C196.63 127.423 196.188 127.338 195.602 127.338C194.944 127.338 194.479 127.501 194.205 127.826C194.01 128.067 193.88 128.393 193.814 128.803H191.129C191.188 127.872 191.448 127.107 191.91 126.508C192.646 125.57 193.909 125.102 195.699 125.102C196.865 125.102 197.9 125.333 198.805 125.795C199.71 126.257 200.162 127.13 200.162 128.412V133.295C200.162 133.633 200.169 134.044 200.182 134.525C200.201 134.89 200.257 135.137 200.348 135.268C200.439 135.398 200.576 135.505 200.758 135.59V136H197.73C197.646 135.785 197.587 135.583 197.555 135.395C197.522 135.206 197.496 134.991 197.477 134.75C197.092 135.167 196.65 135.521 196.148 135.814C195.549 136.16 194.872 136.332 194.117 136.332C193.154 136.332 192.356 136.059 191.725 135.512C191.1 134.958 190.787 134.177 190.787 133.168C190.787 131.859 191.292 130.912 192.301 130.326C192.854 130.007 193.668 129.779 194.742 129.643L195.689 129.525ZM204.811 132.602C204.869 133.096 204.996 133.448 205.191 133.656C205.536 134.027 206.174 134.213 207.105 134.213C207.652 134.213 208.085 134.132 208.404 133.969C208.73 133.806 208.893 133.562 208.893 133.236C208.893 132.924 208.762 132.686 208.502 132.523C208.242 132.361 207.275 132.081 205.602 131.684C204.397 131.384 203.548 131.01 203.053 130.561C202.558 130.118 202.311 129.48 202.311 128.646C202.311 127.663 202.695 126.82 203.463 126.117C204.238 125.408 205.325 125.053 206.725 125.053C208.053 125.053 209.133 125.32 209.967 125.854C210.807 126.381 211.288 127.296 211.412 128.598H208.629C208.59 128.24 208.489 127.956 208.326 127.748C208.02 127.37 207.499 127.182 206.764 127.182C206.158 127.182 205.725 127.276 205.465 127.465C205.211 127.654 205.084 127.875 205.084 128.129C205.084 128.448 205.221 128.679 205.494 128.822C205.768 128.972 206.734 129.229 208.395 129.594C209.501 129.854 210.331 130.248 210.885 130.775C211.432 131.309 211.705 131.977 211.705 132.777C211.705 133.832 211.311 134.695 210.523 135.365C209.742 136.029 208.531 136.361 206.891 136.361C205.217 136.361 203.98 136.01 203.18 135.307C202.385 134.597 201.988 133.695 201.988 132.602H204.811ZM223.541 127.367C222.896 127.367 222.395 127.569 222.037 127.973C221.686 128.376 221.464 128.923 221.373 129.613H225.699C225.654 128.878 225.429 128.321 225.025 127.943C224.628 127.559 224.133 127.367 223.541 127.367ZM223.541 125.072C224.426 125.072 225.224 125.238 225.934 125.57C226.643 125.902 227.229 126.426 227.691 127.143C228.108 127.774 228.378 128.507 228.502 129.34C228.574 129.828 228.603 130.531 228.59 131.449H221.305C221.344 132.517 221.679 133.266 222.311 133.695C222.695 133.962 223.157 134.096 223.697 134.096C224.27 134.096 224.736 133.933 225.094 133.607C225.289 133.432 225.462 133.188 225.611 132.875H228.453C228.382 133.507 228.053 134.148 227.467 134.799C226.555 135.834 225.279 136.352 223.639 136.352C222.285 136.352 221.09 135.915 220.055 135.043C219.02 134.171 218.502 132.751 218.502 130.785C218.502 128.943 218.967 127.53 219.898 126.547C220.836 125.564 222.05 125.072 223.541 125.072ZM236.344 130.824C236.168 130.935 235.989 131.026 235.807 131.098C235.631 131.163 235.387 131.225 235.074 131.283L234.449 131.4C233.863 131.505 233.443 131.632 233.189 131.781C232.76 132.035 232.545 132.429 232.545 132.963C232.545 133.438 232.675 133.783 232.936 133.998C233.202 134.206 233.525 134.311 233.902 134.311C234.501 134.311 235.051 134.135 235.553 133.783C236.061 133.432 236.324 132.79 236.344 131.859V130.824ZM234.654 129.525C235.169 129.46 235.536 129.379 235.758 129.281C236.155 129.112 236.354 128.848 236.354 128.49C236.354 128.054 236.201 127.755 235.895 127.592C235.595 127.423 235.152 127.338 234.566 127.338C233.909 127.338 233.443 127.501 233.17 127.826C232.975 128.067 232.844 128.393 232.779 128.803H230.094C230.152 127.872 230.413 127.107 230.875 126.508C231.611 125.57 232.874 125.102 234.664 125.102C235.829 125.102 236.865 125.333 237.77 125.795C238.674 126.257 239.127 127.13 239.127 128.412V133.295C239.127 133.633 239.133 134.044 239.146 134.525C239.166 134.89 239.221 135.137 239.312 135.268C239.404 135.398 239.54 135.505 239.723 135.59V136H236.695C236.611 135.785 236.552 135.583 236.52 135.395C236.487 135.206 236.461 134.991 236.441 134.75C236.057 135.167 235.615 135.521 235.113 135.814C234.514 136.16 233.837 136.332 233.082 136.332C232.118 136.332 231.321 136.059 230.689 135.512C230.064 134.958 229.752 134.177 229.752 133.168C229.752 131.859 230.257 130.912 231.266 130.326C231.819 130.007 232.633 129.779 233.707 129.643L234.654 129.525ZM243.775 132.602C243.834 133.096 243.961 133.448 244.156 133.656C244.501 134.027 245.139 134.213 246.07 134.213C246.617 134.213 247.05 134.132 247.369 133.969C247.695 133.806 247.857 133.562 247.857 133.236C247.857 132.924 247.727 132.686 247.467 132.523C247.206 132.361 246.24 132.081 244.566 131.684C243.362 131.384 242.512 131.01 242.018 130.561C241.523 130.118 241.275 129.48 241.275 128.646C241.275 127.663 241.66 126.82 242.428 126.117C243.202 125.408 244.29 125.053 245.689 125.053C247.018 125.053 248.098 125.32 248.932 125.854C249.771 126.381 250.253 127.296 250.377 128.598H247.594C247.555 128.24 247.454 127.956 247.291 127.748C246.985 127.37 246.464 127.182 245.729 127.182C245.123 127.182 244.69 127.276 244.43 127.465C244.176 127.654 244.049 127.875 244.049 128.129C244.049 128.448 244.186 128.679 244.459 128.822C244.732 128.972 245.699 129.229 247.359 129.594C248.466 129.854 249.296 130.248 249.85 130.775C250.396 131.309 250.67 131.977 250.67 132.777C250.67 133.832 250.276 134.695 249.488 135.365C248.707 136.029 247.496 136.361 245.855 136.361C244.182 136.361 242.945 136.01 242.145 135.307C241.35 134.597 240.953 133.695 240.953 132.602H243.775ZM253.17 138.041L253.521 138.061C253.795 138.074 254.055 138.064 254.303 138.031C254.55 137.999 254.758 137.924 254.928 137.807C255.09 137.696 255.24 137.465 255.377 137.113C255.52 136.762 255.579 136.547 255.553 136.469L251.646 125.355H254.742L257.066 133.207L259.264 125.355H262.223L258.57 135.824C257.867 137.842 257.311 139.092 256.9 139.574C256.49 140.062 255.67 140.307 254.439 140.307C254.192 140.307 253.993 140.303 253.844 140.297C253.694 140.297 253.469 140.287 253.17 140.268V138.041ZM275.309 130.824C275.133 130.935 274.954 131.026 274.771 131.098C274.596 131.163 274.352 131.225 274.039 131.283L273.414 131.4C272.828 131.505 272.408 131.632 272.154 131.781C271.725 132.035 271.51 132.429 271.51 132.963C271.51 133.438 271.64 133.783 271.9 133.998C272.167 134.206 272.49 134.311 272.867 134.311C273.466 134.311 274.016 134.135 274.518 133.783C275.025 133.432 275.289 132.79 275.309 131.859V130.824ZM273.619 129.525C274.133 129.46 274.501 129.379 274.723 129.281C275.12 129.112 275.318 128.848 275.318 128.49C275.318 128.054 275.165 127.755 274.859 127.592C274.56 127.423 274.117 127.338 273.531 127.338C272.874 127.338 272.408 127.501 272.135 127.826C271.939 128.067 271.809 128.393 271.744 128.803H269.059C269.117 127.872 269.378 127.107 269.84 126.508C270.576 125.57 271.839 125.102 273.629 125.102C274.794 125.102 275.829 125.333 276.734 125.795C277.639 126.257 278.092 127.13 278.092 128.412V133.295C278.092 133.633 278.098 134.044 278.111 134.525C278.131 134.89 278.186 135.137 278.277 135.268C278.368 135.398 278.505 135.505 278.688 135.59V136H275.66C275.576 135.785 275.517 135.583 275.484 135.395C275.452 135.206 275.426 134.991 275.406 134.75C275.022 135.167 274.579 135.521 274.078 135.814C273.479 136.16 272.802 136.332 272.047 136.332C271.083 136.332 270.286 136.059 269.654 135.512C269.029 134.958 268.717 134.177 268.717 133.168C268.717 131.859 269.221 130.912 270.23 130.326C270.784 130.007 271.598 129.779 272.672 129.643L273.619 129.525ZM282.74 132.602C282.799 133.096 282.926 133.448 283.121 133.656C283.466 134.027 284.104 134.213 285.035 134.213C285.582 134.213 286.015 134.132 286.334 133.969C286.66 133.806 286.822 133.562 286.822 133.236C286.822 132.924 286.692 132.686 286.432 132.523C286.171 132.361 285.204 132.081 283.531 131.684C282.327 131.384 281.477 131.01 280.982 130.561C280.488 130.118 280.24 129.48 280.24 128.646C280.24 127.663 280.624 126.82 281.393 126.117C282.167 125.408 283.255 125.053 284.654 125.053C285.982 125.053 287.063 125.32 287.896 125.854C288.736 126.381 289.218 127.296 289.342 128.598H286.559C286.52 128.24 286.419 127.956 286.256 127.748C285.95 127.37 285.429 127.182 284.693 127.182C284.088 127.182 283.655 127.276 283.395 127.465C283.141 127.654 283.014 127.875 283.014 128.129C283.014 128.448 283.15 128.679 283.424 128.822C283.697 128.972 284.664 129.229 286.324 129.594C287.431 129.854 288.261 130.248 288.814 130.775C289.361 131.309 289.635 131.977 289.635 132.777C289.635 133.832 289.241 134.695 288.453 135.365C287.672 136.029 286.461 136.361 284.82 136.361C283.147 136.361 281.91 136.01 281.109 135.307C280.315 134.597 279.918 133.695 279.918 132.602H282.74ZM116.168 148.082C116.826 148.082 117.421 148.196 117.955 148.424C118.495 148.652 118.938 149 119.283 149.469C119.576 149.866 119.755 150.276 119.82 150.699C119.885 151.116 119.918 151.799 119.918 152.75V159H117.076V152.525C117.076 151.952 116.979 151.49 116.783 151.139C116.529 150.644 116.048 150.396 115.338 150.396C114.602 150.396 114.042 150.644 113.658 151.139C113.281 151.627 113.092 152.327 113.092 153.238V159H110.318V144.654H113.092V149.742C113.495 149.124 113.961 148.694 114.488 148.453C115.022 148.206 115.582 148.082 116.168 148.082ZM125.387 147.086H122.564V144.518H125.387V147.086ZM122.564 148.355H125.387V159H122.564V148.355ZM133.873 148.102C133.925 148.102 133.967 148.105 134 148.111C134.039 148.111 134.12 148.115 134.244 148.121V150.973C134.068 150.953 133.912 150.94 133.775 150.934C133.639 150.927 133.528 150.924 133.443 150.924C132.324 150.924 131.572 151.288 131.188 152.018C130.973 152.428 130.865 153.059 130.865 153.912V159H128.062V148.355H130.719V150.211C131.148 149.501 131.523 149.016 131.842 148.756C132.363 148.32 133.04 148.102 133.873 148.102ZM138.746 147.086H135.924V144.518H138.746V147.086ZM135.924 148.355H138.746V159H135.924V148.355ZM147.35 148.102C148.45 148.102 149.348 148.391 150.045 148.971C150.748 149.544 151.1 150.497 151.1 151.832V159H148.248V152.525C148.248 151.965 148.173 151.536 148.023 151.236C147.75 150.689 147.229 150.416 146.461 150.416C145.517 150.416 144.869 150.816 144.518 151.617C144.335 152.04 144.244 152.581 144.244 153.238V159H141.471V148.375H144.156V149.928C144.514 149.381 144.853 148.987 145.172 148.746C145.745 148.316 146.471 148.102 147.35 148.102ZM158.248 156.715C158.899 156.715 159.449 156.471 159.898 155.982C160.348 155.488 160.572 154.703 160.572 153.629C160.572 152.62 160.357 151.852 159.928 151.324C159.505 150.797 158.935 150.533 158.219 150.533C157.242 150.533 156.568 150.992 156.197 151.91C156.002 152.398 155.904 153.001 155.904 153.717C155.904 154.335 156.008 154.885 156.217 155.367C156.594 156.266 157.271 156.715 158.248 156.715ZM157.555 148.102C158.089 148.102 158.554 148.183 158.951 148.346C159.628 148.626 160.175 149.14 160.592 149.889V148.355H163.297V158.453C163.297 159.827 163.066 160.862 162.604 161.559C161.809 162.757 160.286 163.355 158.033 163.355C156.673 163.355 155.562 163.089 154.703 162.555C153.844 162.021 153.368 161.223 153.277 160.162H156.305C156.383 160.488 156.51 160.722 156.686 160.865C156.985 161.119 157.49 161.246 158.199 161.246C159.202 161.246 159.872 160.911 160.211 160.24C160.432 159.811 160.543 159.088 160.543 158.072V157.389C160.276 157.844 159.99 158.186 159.684 158.414C159.13 158.837 158.411 159.049 157.525 159.049C156.158 159.049 155.064 158.57 154.244 157.613C153.43 156.65 153.023 155.348 153.023 153.707C153.023 152.125 153.417 150.797 154.205 149.723C154.993 148.642 156.109 148.102 157.555 148.102ZM175.396 144.459C175.572 144.459 175.732 144.465 175.875 144.479C176.018 144.485 176.214 144.498 176.461 144.518V146.783C176.305 146.764 176.041 146.751 175.67 146.744C175.305 146.731 175.051 146.812 174.908 146.988C174.771 147.158 174.703 147.346 174.703 147.555C174.703 147.763 174.703 148.062 174.703 148.453H176.529V150.416H174.703V159H171.93V150.416H170.377V148.453H171.9V147.77C171.9 146.63 172.092 145.846 172.477 145.416C172.88 144.778 173.854 144.459 175.396 144.459ZM183.912 148.102C183.964 148.102 184.007 148.105 184.039 148.111C184.078 148.111 184.16 148.115 184.283 148.121V150.973C184.107 150.953 183.951 150.94 183.814 150.934C183.678 150.927 183.567 150.924 183.482 150.924C182.363 150.924 181.611 151.288 181.227 152.018C181.012 152.428 180.904 153.059 180.904 153.912V159H178.102V148.355H180.758V150.211C181.188 149.501 181.562 149.016 181.881 148.756C182.402 148.32 183.079 148.102 183.912 148.102ZM190.699 157.037C191.513 157.037 192.138 156.747 192.574 156.168C193.01 155.589 193.229 154.765 193.229 153.697C193.229 152.63 193.01 151.809 192.574 151.236C192.138 150.657 191.513 150.367 190.699 150.367C189.885 150.367 189.257 150.657 188.814 151.236C188.378 151.809 188.16 152.63 188.16 153.697C188.16 154.765 188.378 155.589 188.814 156.168C189.257 156.747 189.885 157.037 190.699 157.037ZM196.148 153.697C196.148 155.26 195.699 156.598 194.801 157.711C193.902 158.818 192.538 159.371 190.709 159.371C188.88 159.371 187.516 158.818 186.617 157.711C185.719 156.598 185.27 155.26 185.27 153.697C185.27 152.161 185.719 150.829 186.617 149.703C187.516 148.577 188.88 148.014 190.709 148.014C192.538 148.014 193.902 148.577 194.801 149.703C195.699 150.829 196.148 152.161 196.148 153.697ZM210.045 148.121C210.514 148.121 210.976 148.212 211.432 148.395C211.887 148.577 212.301 148.896 212.672 149.352C212.971 149.723 213.173 150.178 213.277 150.719C213.342 151.077 213.375 151.601 213.375 152.291L213.355 159H210.504V152.223C210.504 151.819 210.439 151.487 210.309 151.227C210.061 150.732 209.605 150.484 208.941 150.484C208.173 150.484 207.643 150.803 207.35 151.441C207.2 151.78 207.125 152.187 207.125 152.662V159H204.322V152.662C204.322 152.031 204.257 151.572 204.127 151.285C203.893 150.771 203.434 150.514 202.75 150.514C201.956 150.514 201.422 150.771 201.148 151.285C200.999 151.578 200.924 152.014 200.924 152.594V159H198.102V148.375H200.807V149.928C201.152 149.374 201.477 148.98 201.783 148.746C202.324 148.329 203.023 148.121 203.883 148.121C204.697 148.121 205.354 148.3 205.855 148.658C206.259 148.99 206.565 149.417 206.773 149.938C207.138 149.312 207.59 148.854 208.131 148.561C208.704 148.268 209.342 148.121 210.045 148.121ZM221.939 161.041L222.291 161.061C222.564 161.074 222.825 161.064 223.072 161.031C223.32 160.999 223.528 160.924 223.697 160.807C223.86 160.696 224.01 160.465 224.146 160.113C224.29 159.762 224.348 159.547 224.322 159.469L220.416 148.355H223.512L225.836 156.207L228.033 148.355H230.992L227.34 158.824C226.637 160.842 226.08 162.092 225.67 162.574C225.26 163.062 224.439 163.307 223.209 163.307C222.962 163.307 222.763 163.303 222.613 163.297C222.464 163.297 222.239 163.287 221.939 163.268V161.041ZM237.418 157.037C238.232 157.037 238.857 156.747 239.293 156.168C239.729 155.589 239.947 154.765 239.947 153.697C239.947 152.63 239.729 151.809 239.293 151.236C238.857 150.657 238.232 150.367 237.418 150.367C236.604 150.367 235.976 150.657 235.533 151.236C235.097 151.809 234.879 152.63 234.879 153.697C234.879 154.765 235.097 155.589 235.533 156.168C235.976 156.747 236.604 157.037 237.418 157.037ZM242.867 153.697C242.867 155.26 242.418 156.598 241.52 157.711C240.621 158.818 239.257 159.371 237.428 159.371C235.598 159.371 234.234 158.818 233.336 157.711C232.438 156.598 231.988 155.26 231.988 153.697C231.988 152.161 232.438 150.829 233.336 149.703C234.234 148.577 235.598 148.014 237.428 148.014C239.257 148.014 240.621 148.577 241.52 149.703C242.418 150.829 242.867 152.161 242.867 153.697ZM247.643 148.355V154.771C247.643 155.377 247.714 155.833 247.857 156.139C248.111 156.679 248.609 156.949 249.352 156.949C250.302 156.949 250.953 156.565 251.305 155.797C251.487 155.38 251.578 154.83 251.578 154.146V148.355H254.4V159H251.695V157.496C251.669 157.529 251.604 157.626 251.5 157.789C251.396 157.952 251.272 158.095 251.129 158.219C250.693 158.609 250.27 158.876 249.859 159.02C249.456 159.163 248.98 159.234 248.434 159.234C246.858 159.234 245.797 158.668 245.25 157.535C244.944 156.91 244.791 155.989 244.791 154.771V148.355H247.643ZM262.877 148.102C262.929 148.102 262.971 148.105 263.004 148.111C263.043 148.111 263.124 148.115 263.248 148.121V150.973C263.072 150.953 262.916 150.94 262.779 150.934C262.643 150.927 262.532 150.924 262.447 150.924C261.327 150.924 260.576 151.288 260.191 152.018C259.977 152.428 259.869 153.059 259.869 153.912V159H257.066V148.355H259.723V150.211C260.152 149.501 260.527 149.016 260.846 148.756C261.367 148.32 262.044 148.102 262.877 148.102ZM115.074 180.037C115.888 180.037 116.513 179.747 116.949 179.168C117.385 178.589 117.604 177.765 117.604 176.697C117.604 175.63 117.385 174.809 116.949 174.236C116.513 173.657 115.888 173.367 115.074 173.367C114.26 173.367 113.632 173.657 113.189 174.236C112.753 174.809 112.535 175.63 112.535 176.697C112.535 177.765 112.753 178.589 113.189 179.168C113.632 179.747 114.26 180.037 115.074 180.037ZM120.523 176.697C120.523 178.26 120.074 179.598 119.176 180.711C118.277 181.818 116.913 182.371 115.084 182.371C113.255 182.371 111.891 181.818 110.992 180.711C110.094 179.598 109.645 178.26 109.645 176.697C109.645 175.161 110.094 173.829 110.992 172.703C111.891 171.577 113.255 171.014 115.084 171.014C116.913 171.014 118.277 171.577 119.176 172.703C120.074 173.829 120.523 175.161 120.523 176.697ZM127.545 171.355H130.367L131.988 179.021L133.648 171.355H136.549L133.463 182H130.602L128.932 174.246L127.242 182H124.352L121.363 171.355H124.352L126.012 178.992L127.545 171.355ZM143.99 171.102C145.09 171.102 145.989 171.391 146.686 171.971C147.389 172.544 147.74 173.497 147.74 174.832V182H144.889V175.525C144.889 174.965 144.814 174.536 144.664 174.236C144.391 173.689 143.87 173.416 143.102 173.416C142.158 173.416 141.51 173.816 141.158 174.617C140.976 175.04 140.885 175.581 140.885 176.238V182H138.111V171.375H140.797V172.928C141.155 172.381 141.493 171.987 141.812 171.746C142.385 171.316 143.111 171.102 143.99 171.102ZM161.783 171.102C162.883 171.102 163.782 171.391 164.479 171.971C165.182 172.544 165.533 173.497 165.533 174.832V182H162.682V175.525C162.682 174.965 162.607 174.536 162.457 174.236C162.184 173.689 161.663 173.416 160.895 173.416C159.951 173.416 159.303 173.816 158.951 174.617C158.769 175.04 158.678 175.581 158.678 176.238V182H155.904V171.375H158.59V172.928C158.948 172.381 159.286 171.987 159.605 171.746C160.178 171.316 160.904 171.102 161.783 171.102ZM172.311 173.367C171.666 173.367 171.165 173.569 170.807 173.973C170.455 174.376 170.234 174.923 170.143 175.613H174.469C174.423 174.878 174.199 174.321 173.795 173.943C173.398 173.559 172.903 173.367 172.311 173.367ZM172.311 171.072C173.196 171.072 173.993 171.238 174.703 171.57C175.413 171.902 175.999 172.426 176.461 173.143C176.878 173.774 177.148 174.507 177.271 175.34C177.343 175.828 177.372 176.531 177.359 177.449H170.074C170.113 178.517 170.449 179.266 171.08 179.695C171.464 179.962 171.926 180.096 172.467 180.096C173.04 180.096 173.505 179.933 173.863 179.607C174.059 179.432 174.231 179.188 174.381 178.875H177.223C177.151 179.507 176.822 180.148 176.236 180.799C175.325 181.834 174.049 182.352 172.408 182.352C171.054 182.352 169.859 181.915 168.824 181.043C167.789 180.171 167.271 178.751 167.271 176.785C167.271 174.943 167.737 173.53 168.668 172.547C169.605 171.564 170.82 171.072 172.311 171.072ZM182.105 170.086H179.283V167.518H182.105V170.086ZM179.283 171.355H182.105V182H179.283V171.355ZM189.381 179.715C190.032 179.715 190.582 179.471 191.031 178.982C191.48 178.488 191.705 177.703 191.705 176.629C191.705 175.62 191.49 174.852 191.061 174.324C190.637 173.797 190.068 173.533 189.352 173.533C188.375 173.533 187.701 173.992 187.33 174.91C187.135 175.398 187.037 176.001 187.037 176.717C187.037 177.335 187.141 177.885 187.35 178.367C187.727 179.266 188.404 179.715 189.381 179.715ZM188.688 171.102C189.221 171.102 189.687 171.183 190.084 171.346C190.761 171.626 191.308 172.14 191.725 172.889V171.355H194.43V181.453C194.43 182.827 194.199 183.862 193.736 184.559C192.942 185.757 191.419 186.355 189.166 186.355C187.805 186.355 186.695 186.089 185.836 185.555C184.977 185.021 184.501 184.223 184.41 183.162H187.438C187.516 183.488 187.643 183.722 187.818 183.865C188.118 184.119 188.622 184.246 189.332 184.246C190.335 184.246 191.005 183.911 191.344 183.24C191.565 182.811 191.676 182.088 191.676 181.072V180.389C191.409 180.844 191.122 181.186 190.816 181.414C190.263 181.837 189.544 182.049 188.658 182.049C187.291 182.049 186.197 181.57 185.377 180.613C184.563 179.65 184.156 178.348 184.156 176.707C184.156 175.125 184.55 173.797 185.338 172.723C186.126 171.642 187.242 171.102 188.688 171.102ZM202.906 171.082C203.564 171.082 204.16 171.196 204.693 171.424C205.234 171.652 205.676 172 206.021 172.469C206.314 172.866 206.493 173.276 206.559 173.699C206.624 174.116 206.656 174.799 206.656 175.75V182H203.814V175.525C203.814 174.952 203.717 174.49 203.521 174.139C203.268 173.644 202.786 173.396 202.076 173.396C201.34 173.396 200.781 173.644 200.396 174.139C200.019 174.627 199.83 175.327 199.83 176.238V182H197.057V167.654H199.83V172.742C200.234 172.124 200.699 171.694 201.227 171.453C201.76 171.206 202.32 171.082 202.906 171.082ZM215.016 171.121C216.415 171.121 217.509 171.626 218.297 172.635C219.091 173.644 219.488 174.946 219.488 176.541C219.488 178.195 219.098 179.565 218.316 180.652C217.535 181.74 216.445 182.283 215.045 182.283C214.166 182.283 213.46 182.107 212.926 181.756C212.607 181.548 212.262 181.183 211.891 180.662V182H209.166V167.625H211.939V172.742C212.291 172.247 212.678 171.87 213.102 171.609C213.603 171.284 214.241 171.121 215.016 171.121ZM214.303 179.988C215.019 179.988 215.576 179.699 215.973 179.119C216.37 178.54 216.568 177.778 216.568 176.834C216.568 176.079 216.471 175.454 216.275 174.959C215.904 174.021 215.221 173.553 214.225 173.553C213.215 173.553 212.522 174.012 212.145 174.93C211.949 175.418 211.852 176.049 211.852 176.824C211.852 177.736 212.053 178.491 212.457 179.09C212.861 179.689 213.476 179.988 214.303 179.988ZM226.266 180.037C227.079 180.037 227.704 179.747 228.141 179.168C228.577 178.589 228.795 177.765 228.795 176.697C228.795 175.63 228.577 174.809 228.141 174.236C227.704 173.657 227.079 173.367 226.266 173.367C225.452 173.367 224.824 173.657 224.381 174.236C223.945 174.809 223.727 175.63 223.727 176.697C223.727 177.765 223.945 178.589 224.381 179.168C224.824 179.747 225.452 180.037 226.266 180.037ZM231.715 176.697C231.715 178.26 231.266 179.598 230.367 180.711C229.469 181.818 228.105 182.371 226.275 182.371C224.446 182.371 223.082 181.818 222.184 180.711C221.285 179.598 220.836 178.26 220.836 176.697C220.836 175.161 221.285 173.829 222.184 172.703C223.082 171.577 224.446 171.014 226.275 171.014C228.105 171.014 229.469 171.577 230.367 172.703C231.266 173.829 231.715 175.161 231.715 176.697ZM239.498 171.102C239.55 171.102 239.592 171.105 239.625 171.111C239.664 171.111 239.745 171.115 239.869 171.121V173.973C239.693 173.953 239.537 173.94 239.4 173.934C239.264 173.927 239.153 173.924 239.068 173.924C237.949 173.924 237.197 174.288 236.812 175.018C236.598 175.428 236.49 176.059 236.49 176.912V182H233.688V171.355H236.344V173.211C236.773 172.501 237.148 172.016 237.467 171.756C237.988 171.32 238.665 171.102 239.498 171.102ZM247.379 171.082C248.036 171.082 248.632 171.196 249.166 171.424C249.706 171.652 250.149 172 250.494 172.469C250.787 172.866 250.966 173.276 251.031 173.699C251.096 174.116 251.129 174.799 251.129 175.75V182H248.287V175.525C248.287 174.952 248.189 174.49 247.994 174.139C247.74 173.644 247.258 173.396 246.549 173.396C245.813 173.396 245.253 173.644 244.869 174.139C244.492 174.627 244.303 175.327 244.303 176.238V182H241.529V167.654H244.303V172.742C244.706 172.124 245.172 171.694 245.699 171.453C246.233 171.206 246.793 171.082 247.379 171.082ZM258.512 180.037C259.326 180.037 259.951 179.747 260.387 179.168C260.823 178.589 261.041 177.765 261.041 176.697C261.041 175.63 260.823 174.809 260.387 174.236C259.951 173.657 259.326 173.367 258.512 173.367C257.698 173.367 257.07 173.657 256.627 174.236C256.191 174.809 255.973 175.63 255.973 176.697C255.973 177.765 256.191 178.589 256.627 179.168C257.07 179.747 257.698 180.037 258.512 180.037ZM263.961 176.697C263.961 178.26 263.512 179.598 262.613 180.711C261.715 181.818 260.351 182.371 258.521 182.371C256.692 182.371 255.328 181.818 254.43 180.711C253.531 179.598 253.082 178.26 253.082 176.697C253.082 175.161 253.531 173.829 254.43 172.703C255.328 171.577 256.692 171.014 258.521 171.014C260.351 171.014 261.715 171.577 262.613 172.703C263.512 173.829 263.961 175.161 263.961 176.697ZM270.738 180.037C271.552 180.037 272.177 179.747 272.613 179.168C273.049 178.589 273.268 177.765 273.268 176.697C273.268 175.63 273.049 174.809 272.613 174.236C272.177 173.657 271.552 173.367 270.738 173.367C269.924 173.367 269.296 173.657 268.854 174.236C268.417 174.809 268.199 175.63 268.199 176.697C268.199 177.765 268.417 178.589 268.854 179.168C269.296 179.747 269.924 180.037 270.738 180.037ZM276.188 176.697C276.188 178.26 275.738 179.598 274.84 180.711C273.941 181.818 272.577 182.371 270.748 182.371C268.919 182.371 267.555 181.818 266.656 180.711C265.758 179.598 265.309 178.26 265.309 176.697C265.309 175.161 265.758 173.829 266.656 172.703C267.555 171.577 268.919 171.014 270.748 171.014C272.577 171.014 273.941 171.577 274.84 172.703C275.738 173.829 276.188 175.161 276.188 176.697ZM282.115 171.102C282.76 171.102 283.333 171.245 283.834 171.531C284.335 171.811 284.742 172.202 285.055 172.703V167.625H287.877V182H285.172V180.525C284.775 181.157 284.322 181.616 283.814 181.902C283.307 182.189 282.675 182.332 281.92 182.332C280.676 182.332 279.628 181.831 278.775 180.828C277.929 179.819 277.506 178.527 277.506 176.951C277.506 175.135 277.923 173.706 278.756 172.664C279.596 171.622 280.715 171.102 282.115 171.102ZM282.721 179.988C283.508 179.988 284.107 179.695 284.518 179.109C284.928 178.523 285.133 177.765 285.133 176.834C285.133 175.532 284.804 174.601 284.146 174.041C283.743 173.702 283.274 173.533 282.74 173.533C281.926 173.533 281.327 173.842 280.943 174.461C280.566 175.073 280.377 175.835 280.377 176.746C280.377 177.729 280.569 178.517 280.953 179.109C281.344 179.695 281.933 179.988 282.721 179.988Z" fill="white" />
</svg>