<svg width="224" height="95" viewBox="0 0 224 95" fill="none" xmlns="http://www.w3.org/2000/svg">
<path fill-rule="evenodd" clip-rule="evenodd" d="M71.2595 0.551455C61.2431 2.68551 53.8625 10.1264 51.4914 20.4807C50.8246 23.3929 50.8246 30.8402 51.4914 33.7524C53.8692 44.1356 61.3483 51.6281 71.4049 53.7021C74.7298 54.3877 80.0714 54.4268 83.1726 53.7884C89.0901 52.5703 94.5645 49.2986 97.7341 45.0862C99.6216 42.5772 101.414 39.4018 101.224 38.9052C101.062 38.4836 93.4255 34.7027 92.736 34.7027C92.5415 34.7027 91.7363 35.6396 90.9472 36.7851C87.3454 42.012 82.0132 44.6958 76.2242 44.1948C67.4439 43.4353 61.5284 36.5608 61.5284 27.1165C61.5284 18.5859 66.5058 11.9383 74.0961 10.3315C76.6162 9.79786 78.4721 9.80107 81.043 10.3426C85.1907 11.2165 88.0081 13.2376 91.0144 17.4958C91.9086 18.7624 92.6399 19.5096 92.993 19.5178C93.4988 19.5292 100.249 16.0352 100.866 15.4423C101.962 14.3901 96.346 6.86696 92.545 4.29583C89.7107 2.37827 86.0394 0.91034 82.5225 0.287981C79.829 -0.188782 74.1043 -0.0548566 71.2595 0.551455ZM181.184 0.313073C179.704 0.645699 177.755 2.2706 176.907 3.87859C176.353 4.92956 176.249 5.70394 176.114 9.80894C175.945 14.9419 175.819 15.3445 173.948 16.7404C173.231 17.2752 172.6 17.3584 168.271 17.4879C163.922 17.6181 163.291 17.7018 162.378 18.2699C160.322 19.5496 158.874 21.6942 158.874 23.46V24.1988H167.291C174.254 24.1988 175.946 24.118 177.085 23.7302C178.963 23.0909 181.4 20.8101 182.267 18.8797C182.929 17.4056 182.962 17.0114 183.061 9.3634C183.158 1.73315 183.07 -0.0566072 182.597 0.0125439C182.479 0.0297587 181.844 0.165143 181.184 0.313073ZM188.189 0.406442C188.11 0.610977 188.086 4.70227 188.135 9.49791L188.224 18.2174L189.023 19.5744C189.462 20.3208 190.422 21.4599 191.156 22.1056C193.412 24.0897 194.061 24.1988 203.609 24.1988H212.026V23.3424C212.026 22.0808 211.598 21.1634 210.382 19.8186C208.561 17.8051 208.094 17.665 202.629 17.4943C198.305 17.3592 197.668 17.2743 196.952 16.7404C195.083 15.3463 194.955 14.939 194.778 9.80836C194.689 7.21184 194.465 4.7332 194.28 4.3002C193.898 3.40241 192.026 1.24968 191.281 0.851401C191.007 0.704638 190.231 0.461004 189.557 0.309864C188.628 0.101244 188.297 0.124878 188.189 0.406442ZM0.718727 1.22137C0.641919 1.42212 0.613299 13.2061 0.654769 27.4083L0.730117 53.2305L5.58043 53.3105C9.38989 53.3729 10.5014 53.3049 10.7605 52.9933C10.9883 52.7188 11.1138 49.4056 11.167 42.2635L11.2438 31.9309H23.0717H34.8996L35.0456 42.5807L35.1917 53.2305L39.9716 53.3108C43.2486 53.3659 44.8786 53.286 45.1554 53.0564C45.7588 52.556 45.7588 1.67713 45.1554 1.17673C44.8786 0.947104 43.2486 0.867157 39.9716 0.922303L35.1917 1.00254L35.1148 11.1893C35.0626 18.1144 34.9341 21.5013 34.7139 21.7662C34.2659 22.3057 11.9862 22.3437 11.4482 21.8062C11.1895 21.5477 11.0978 18.8561 11.0978 11.5065C11.0978 4.15694 11.0061 1.4653 10.7473 1.20679C10.24 0.699969 0.912355 0.713391 0.718727 1.22137ZM121.541 1.36726C121.396 1.64824 116.842 13.2694 111.421 27.1921C103.237 48.2129 101.628 52.5813 101.932 52.9481C102.239 53.3169 103.121 53.3767 107.286 53.3102L112.273 53.2305L114.45 47.395C115.647 44.1855 116.68 41.4938 116.746 41.4136C116.811 41.3334 119.188 41.1988 122.026 41.1145C126.591 40.9791 127.325 40.8881 128.392 40.3244C130.938 38.979 132.758 36.0329 132.947 32.9521L133.027 31.6391L127.049 31.56C123.76 31.5162 120.966 31.3768 120.839 31.2498C120.712 31.1229 121.937 27.4821 123.561 23.1592C125.186 18.8365 126.774 14.6104 127.091 13.7678C127.407 12.9251 127.821 12.2371 128.011 12.2389C128.2 12.2403 131.763 21.3694 135.928 32.5258C140.093 43.6819 143.659 52.9405 143.852 53.1001C144.063 53.2752 146.213 53.3586 149.271 53.3105C153.836 53.2384 154.349 53.1798 154.438 52.7179C154.534 52.2198 135.125 1.95052 134.555 1.22137C134.343 0.950022 132.677 0.856653 128.037 0.856653C122.396 0.856653 121.779 0.905088 121.541 1.36726ZM182.894 24.0794C181.569 25.4377 180.485 26.72 180.485 26.9292C180.485 27.1384 181.072 27.7304 181.789 28.2448C182.506 28.7592 183.514 29.7662 184.028 30.4825C184.543 31.1988 185.191 31.785 185.468 31.785C185.745 31.785 186.451 31.1611 187.037 30.399C187.623 29.6369 188.623 28.6268 189.259 28.1547C190.712 27.0757 190.746 26.3235 189.383 25.3965C188.455 24.7645 187.787 24.0815 186.256 22.1981C185.976 21.8541 185.648 21.5813 185.526 21.5915C185.404 21.6017 184.22 22.7212 182.894 24.0794ZM158.985 29.5826C158.394 31.1203 160.093 33.8633 162.436 35.1559C163.924 35.9769 164.167 36.0157 168.71 36.1587C172.892 36.2903 173.531 36.3772 174.259 36.9118C175.809 38.0497 176.103 39.0998 176.104 43.4922C176.104 47.8222 176.395 49.1474 177.728 50.8937C178.608 52.0459 181.276 53.4698 182.288 53.3268L182.967 53.2305V44.6231V36.0157L182.156 34.364C181.221 32.4622 179.538 30.8236 177.6 29.9284C176.335 29.344 175.713 29.2993 167.705 29.2156C160.172 29.1371 159.139 29.1806 158.985 29.5826ZM194.016 29.6991C192.126 30.3518 190.672 31.4477 189.593 33.0338C188.14 35.1684 188.078 35.6504 188.078 44.8125C188.078 54.358 187.916 53.7108 190.145 53.0435C191.737 52.5668 193.166 51.2765 194.039 49.5264C194.747 48.1067 194.795 47.7428 194.795 43.8248C194.795 40.1878 194.873 39.4867 195.391 38.4728C196.416 36.4648 197.255 36.164 201.831 36.1628C206.347 36.1613 207.915 35.8156 209.658 34.4358C210.97 33.3976 212.026 31.4588 212.026 30.088V29.159L203.776 29.1686C196.63 29.1768 195.323 29.2477 194.016 29.6991ZM82.6493 61.4423C75.9982 61.9272 76.5163 61.8307 76.5163 62.5881C76.5163 63.1116 76.7166 63.3301 77.3194 63.4634C79.3766 63.9183 80.0515 64.2606 80.4639 65.0574C80.8275 65.7597 80.8964 67.9448 80.8926 78.6735C80.89 85.7024 80.7916 91.5977 80.6736 91.7742C80.3313 92.286 79.2472 92.7663 78.4339 92.7663C77.796 92.7663 77.6845 92.8964 77.6845 93.6416V94.5169H83.2334H88.7823V93.6416C88.7823 92.9288 88.6605 92.766 88.1252 92.7651C87.6082 92.7642 85.8536 91.9379 85.5035 91.5306C85.467 91.488 85.3682 84.6914 85.2844 76.4268C85.1343 61.6571 85.1218 61.3997 84.5476 61.3734C84.2263 61.3586 83.3721 61.3898 82.6493 61.4423ZM111.416 61.4458C110.773 61.4969 109.032 61.6185 107.546 61.7157C104.952 61.8855 104.845 61.9196 104.845 62.5814C104.845 63.1515 105.034 63.3009 105.94 63.448C107.59 63.7158 108.265 64.0642 108.845 64.948C109.327 65.6824 109.379 66.7751 109.463 77.8722C109.525 86.1908 109.452 90.3419 109.228 91.1017C108.889 92.2551 108.12 92.7663 106.724 92.7663C106.129 92.7663 106.013 92.9087 106.013 93.6416V94.5169H111.562H117.111V93.6416C117.111 92.9536 116.983 92.7663 116.512 92.7663C115.544 92.7663 114.187 91.9204 113.886 91.1285C113.732 90.7247 113.606 87.4892 113.606 83.9392C113.606 77.7587 113.634 77.4442 114.251 76.5435C115.538 74.6668 118.271 73.4965 120.318 73.9455C121.689 74.2463 122.861 75.6197 123.246 77.3771C123.461 78.3557 123.548 81.1903 123.486 85.2431C123.378 92.3706 123.37 92.3957 121.24 92.6811C120.142 92.8284 120.031 92.9194 120.031 93.6801V94.5169H125.58H131.129V93.6416C131.129 92.9536 131.001 92.7663 130.53 92.7663C129.561 92.7663 128.228 91.9315 128.076 91.2292C127.999 90.8709 127.886 87.2955 127.827 83.2835C127.752 78.265 127.6 75.6705 127.339 74.9679C126.283 72.1257 124.387 71.0318 120.852 71.227C118.41 71.3621 117.117 71.8952 115.248 73.5388C114.537 74.1643 113.876 74.6761 113.781 74.6761C113.685 74.6761 113.606 71.6562 113.606 67.9653C113.606 61.7498 113.569 61.2579 113.095 61.3034C112.814 61.3306 112.058 61.3945 111.416 61.4458ZM0 62.7133C0 63.4553 0.112438 63.5886 0.739463 63.5886C1.83522 63.5886 3.36292 64.3093 3.90438 65.0816C4.32697 65.6841 4.3807 67.1874 4.3807 78.4015V91.0422L3.6979 91.7243C3.24844 92.1734 2.49905 92.4777 1.50755 92.614C0.0855698 92.8092 0 92.8693 0 93.669V94.5169H6.71708H13.4342V93.6708C13.4342 92.8961 13.31 92.7949 11.9719 92.4739C9.41589 91.8615 9.3455 91.6493 9.3455 84.5571V78.4692H16.9387H24.5319V84.8883C24.5319 90.9184 24.4966 91.3427 23.9478 91.8909C23.6266 92.2119 23.0516 92.4745 22.6701 92.4745C22.2887 92.4745 21.5659 92.5565 21.0639 92.6569C20.2958 92.8103 20.1512 92.972 20.1512 93.6781V94.5169H27.0143H33.8774V93.6623C33.8774 92.8617 33.7764 92.7867 32.277 92.4757C31.1585 92.2437 30.499 91.9181 30.0867 91.3943C29.5154 90.6687 29.4967 90.2453 29.4967 77.979V65.3127L30.1941 64.616C30.5779 64.2326 31.3991 63.8346 32.0194 63.731C33.7577 63.4413 33.8774 63.3672 33.8774 62.5764V61.838H26.9951H20.1124L20.205 62.61C20.2835 63.2682 20.5107 63.4357 21.7476 63.7479C22.6357 63.972 23.4563 64.4143 23.8649 64.8888C24.5074 65.6351 24.5319 65.861 24.5319 71.0453V76.4268H16.9387H9.3455V71.0426C9.3455 67.5819 9.46641 65.3932 9.68398 64.9162C10.0222 64.1745 11.3773 63.5936 12.7771 63.5904C13.3121 63.5889 13.4342 63.4261 13.4342 62.7133V61.838H6.71708H0V62.7133ZM92.8709 68.257V71.7584H90.6806H88.4902V72.9255V74.0926H90.5153H92.5403L92.6326 82.9188C92.7185 91.1323 92.7655 91.8127 93.309 92.721C94.5765 94.839 97.7834 95.3882 101.851 94.1834C103.901 93.5768 103.969 93.5269 103.969 92.6344V91.7124L102.143 91.9747C100.794 92.1687 100.014 92.1349 99.1537 91.8451C97.2017 91.188 97.1187 90.8029 97.0113 81.8976L96.9172 74.0926H100.151H103.385V72.9255V71.7584H100.172H96.9596V68.257V64.7557H94.9153H92.8709V68.257ZM213.486 65.3393C213.165 65.6602 212.902 66.1198 212.902 66.3605C212.902 67.0304 213.987 67.9653 214.765 67.9653C215.49 67.9653 216.25 68.6083 215.918 68.9404C215.635 69.2222 214.284 69.1659 213.786 68.8514C213.502 68.6722 213.28 68.6985 213.134 68.929C212.761 69.5143 212.863 69.6579 213.895 69.9981C215.162 70.4159 216.316 70.1253 216.895 69.2424C217.307 68.6145 217.307 68.4832 216.895 67.855C216.623 67.4409 216.025 67.0832 215.411 66.9683C214.157 66.7331 213.862 66.3465 214.627 65.9374C215.013 65.7311 215.448 65.7253 215.96 65.9196C216.565 66.1495 216.756 66.1139 216.898 65.7443C217.31 64.6717 214.489 64.337 213.486 65.3393ZM218.159 67.3624C218.159 69.5193 218.24 70.0077 218.597 70.0077C218.935 70.0077 219.035 69.6296 219.035 68.3542C219.035 66.5248 219.24 66.5236 219.913 68.3492C220.597 70.2038 221.388 70.1486 222.112 68.1963L222.686 66.6523L222.773 68.33C222.848 69.769 222.942 70.0077 223.431 70.0077C223.953 70.0077 224 69.7909 224 67.3817V64.7557H223.164C222.433 64.7557 222.262 64.9308 221.811 66.1417C221.527 66.9041 221.201 67.6323 221.086 67.7604C220.971 67.8885 220.613 67.2977 220.29 66.4474C219.809 65.177 219.567 64.8853 218.932 64.8094L218.159 64.7169V67.3624ZM40.5945 71.4476C35.397 73.0328 32.2978 78.838 33.2314 85.2387C33.8704 89.6192 35.8777 92.5924 39.2082 94.0927C41.5063 95.1279 45.0906 95.2706 47.5219 94.4236C49.2052 93.8371 51.5869 91.8728 52.5991 90.2369L53.2454 89.1917L52.5419 88.6513C51.6283 87.9496 51.612 87.9525 51.0329 88.9323C50.2259 90.297 48.3084 91.8361 46.9632 92.1985C45.3818 92.6245 43.3182 92.3919 41.7957 91.6161C39.537 90.4647 38.0496 87.7474 37.7547 84.2341L37.5894 82.2623H45.1154H52.6418L52.5077 79.8552C52.2741 75.6606 50.3539 72.7428 47.0972 71.6344C45.689 71.155 41.9099 71.0464 40.5945 71.4476ZM61.3299 71.4298C57.0321 72.8455 54.7573 76.306 56.79 78.3365C57.6103 79.1563 58.6448 79.248 59.8798 78.6099C60.8824 78.0917 61.1003 77.4302 60.98 75.269C60.9 73.8343 60.9595 73.6529 61.6219 73.3109C62.0235 73.1037 63.0091 72.9328 63.8123 72.9307C66.5172 72.9249 67.8767 74.4223 68.2298 77.7961C68.3664 79.1038 68.3086 79.5902 67.9839 79.8592C67.7502 80.053 65.7961 80.8142 63.6414 81.5507C57.5712 83.6258 55.9603 84.7401 55.2316 87.3684C53.9192 92.1022 57.4503 95.7651 62.4186 94.8239C64.2585 94.4752 66.4798 93.3866 67.4313 92.3674L68.1302 91.619L68.6909 92.7517C69.6269 94.6412 71.8462 95.2572 74.9267 94.4822C76.0861 94.1907 76.2242 94.0664 76.2242 93.3151C76.2242 92.5328 76.1454 92.4745 75.0885 92.4745C74.406 92.4745 73.6773 92.2522 73.2632 91.9172C72.5763 91.3622 72.5731 91.3296 72.4203 83.3827C72.3362 78.9953 72.1505 75.143 72.0077 74.822C70.8541 72.2258 69.2478 71.3989 65.1265 71.2787C63.4399 71.2297 61.7314 71.2976 61.3299 71.4298ZM138.226 71.7884C135.961 72.6582 133.966 74.6102 132.676 77.2192C131.687 79.2173 131.574 79.6923 131.47 82.2641C131.282 86.9529 132.206 89.7747 134.778 92.3569C136.655 94.2427 138.525 94.9295 141.789 94.9333C143.749 94.9356 144.372 94.8102 145.66 94.1542C147.705 93.1123 149.047 92.0132 150.159 90.4674L151.079 89.1897L150.376 88.6502C149.465 87.9502 149.409 87.9584 148.925 88.8626C148.7 89.283 147.963 90.1134 147.287 90.7078C143.615 93.9369 138.821 92.4999 136.971 87.6147C135.05 82.5442 136.561 75.2092 139.886 73.4606C141.13 72.8061 143.328 72.7653 144.207 73.38C144.818 73.8075 144.845 73.9776 144.671 76.2459C144.487 78.6279 144.495 78.665 145.294 79.2926C146.349 80.1218 148.141 80.1472 148.944 79.3445C149.818 78.4713 149.772 75.4155 148.864 74.0698C148.068 72.8902 146.625 71.8719 145.182 71.4712C143.408 70.9793 139.919 71.1383 138.226 71.7884ZM158.581 71.4298C155.663 72.3912 153.622 74.284 153.402 76.2336C153.273 77.3791 153.356 77.6514 154.042 78.3365C154.712 79.0064 155.004 79.1003 155.998 78.967C157.936 78.7073 158.354 78.1019 158.24 75.7169C158.149 73.795 158.184 73.6607 158.874 73.3077C159.275 73.1023 160.261 72.9328 161.064 72.9307C163.765 72.9249 165.208 74.5235 165.51 77.8577C165.622 79.0828 165.551 79.5975 165.238 79.8572C165.006 80.0498 163.249 80.7471 161.333 81.4068C154.791 83.6605 153.095 84.8206 152.457 87.4804C151.586 91.1058 153.269 94.0442 156.65 94.8011C159.177 95.3672 162.837 94.2803 164.601 92.4401L165.384 91.624L165.944 92.754C166.878 94.6412 169.099 95.2569 172.178 94.4822C173.338 94.1907 173.476 94.0664 173.476 93.3151C173.476 92.5328 173.397 92.4745 172.34 92.4745C171.657 92.4745 170.93 92.2522 170.515 91.9166C169.827 91.3602 169.825 91.3412 169.776 84.2575C169.719 76.1029 169.624 75.2206 168.644 73.7337C167.485 71.9757 165.973 71.3834 162.378 71.2787C160.692 71.2297 158.983 71.2976 158.581 71.4298ZM186.709 71.7426C186.035 72.0481 184.893 72.8429 184.169 73.5093L182.854 74.7208L182.764 73.1668L182.675 71.6125L179.317 71.7067C175.276 71.8202 174.936 71.9005 174.936 72.7387C174.936 73.261 175.191 73.4562 176.241 73.7366C178.389 74.3105 178.441 74.5457 178.441 83.6856V91.5568L177.671 92.1614C177.248 92.494 176.525 92.7663 176.065 92.7663C175.33 92.7663 175.228 92.8728 175.228 93.6416V94.5169H181.215H187.202V93.6416C187.202 92.8815 187.096 92.766 186.399 92.7645C185.053 92.7619 183.429 92.1883 183.117 91.6056C182.941 91.2773 182.821 88.2131 182.821 84.0424V77.0308L183.768 75.9535C184.63 74.9726 186.567 73.8233 187.385 73.8072C187.601 73.8031 187.665 74.2358 187.572 75.0668C187.445 76.1855 187.522 76.4066 188.231 76.9634C189.4 77.8819 191.072 77.818 191.854 76.8251C192.528 75.9681 192.671 74.0012 192.142 72.8414C191.402 71.2192 188.954 70.724 186.709 71.7426ZM199.672 71.5798C197.069 72.5456 195.105 74.49 193.695 77.4959C192.949 79.0875 192.897 79.456 192.897 83.1376C192.897 86.9512 192.926 87.1385 193.817 89.0172C195.413 92.3817 197.703 94.1715 201.231 94.8107C205.793 95.6371 210.199 93.7113 212.376 89.9398C212.867 89.0896 212.863 89.0759 212.048 88.5947L211.224 88.1086L210.092 89.6122C208.589 91.6079 207.165 92.3286 204.725 92.3286C200.398 92.3286 197.587 89.192 197.355 84.1058L197.278 82.4082L204.84 82.3303L212.403 82.2524L212.218 80.142C212.116 78.9813 211.896 77.5481 211.729 76.9572C211.215 75.1377 209.668 73.2114 207.937 72.2342C206.516 71.4324 206.047 71.3271 203.564 71.2518C201.697 71.1955 200.417 71.3032 199.672 71.5798ZM46.3201 74.1702C47.365 75.3093 47.8481 76.7051 47.9655 78.9261L48.0417 80.3658L42.8579 80.4454L37.6741 80.5251V79.6961C37.6741 78.255 38.4997 76.03 39.4684 74.8596C40.7026 73.3687 41.824 72.8907 43.7822 73.0217C45.1578 73.1137 45.4878 73.263 46.3201 74.1702ZM205.196 73.4816C206.409 74.2204 207.328 76.2103 207.549 78.5766L207.73 80.5117H202.594C199.49 80.5117 197.387 80.3964 197.278 80.2202C196.984 79.7457 197.972 76.3687 198.748 75.194C200.125 73.1107 203.233 72.2853 205.196 73.4816ZM68.2061 85.8366L68.0078 89.7026L66.8922 90.7766C64.2208 93.3478 60.2788 92.7613 59.7052 89.707C59.1275 86.6314 61.2379 84.282 66.1486 82.5331C68.5493 81.6785 68.4289 81.4853 68.2061 85.8366ZM165.484 85.8366L165.29 89.7026L164.159 90.7766C162.227 92.6116 159.305 92.9326 157.842 91.4705C156.437 90.0667 156.697 87.0282 158.376 85.2282C159.105 84.4474 161.238 83.3031 163.4 82.5331C165.823 81.6703 165.703 81.4795 165.484 85.8366Z" fill="white"/>
</svg>
