<svg width="1544" height="249" viewBox="0 0 1544 249" fill="none" xmlns="http://www.w3.org/2000/svg">
  <path fill-rule="evenodd" clip-rule="evenodd" d="M85 85H1460H85Z" fill="#B5D9FF" />
  <path d="M85 85H1460" stroke="#B5D9FF" stroke-width="4" stroke-linecap="square" />
  <circle cx="85" cy="85" r="84.5" fill="#B5D9FF" stroke="#B5D9FF" />
  <circle cx="529" cy="85" r="84.5" fill="#B5D9FF" stroke="#B5D9FF" />
  <circle cx="529" cy="85" r="84.5" fill="#B5D9FF" stroke="#B5D9FF" />
  <circle cx="994" cy="85" r="84.5" fill="#B5D9FF" stroke="#B5D9FF" />
  <circle cx="1459" cy="85" r="84.5" fill="#B5D9FF" stroke="#B5D9FF" />
  <path d="M1473.42 99C1472.28 99.0047 1471.28 98.2436 1470.95 97.1312C1470.63 96.0189 1471.06 94.8218 1472.02 94.1922C1480.75 88.4862 1484.74 77.6046 1481.82 67.4702C1478.9 57.3357 1469.77 50.3739 1459.4 50.3739C1449.03 50.3739 1439.9 57.3357 1436.98 67.4702C1434.06 77.6046 1438.05 88.4862 1446.77 94.1922C1447.88 94.9713 1448.21 96.4939 1447.53 97.6761C1446.78 98.8397 1445.26 99.1809 1444.11 98.4426C1433.46 91.4838 1428.59 78.2123 1432.15 65.8517C1435.72 53.4911 1446.85 45 1459.5 45C1472.15 45 1483.28 53.4911 1486.85 65.8517C1490.41 78.2123 1485.54 91.4838 1474.89 98.4426C1474.49 98.8043 1473.96 99.0024 1473.42 99Z" fill="white" />
  <path d="M1474.37 112H1445.63C1444.18 111.981 1443.02 110.822 1443 109.385V95.6147C1443 94.1706 1444.18 93 1445.63 93C1447.08 93 1448.26 94.1706 1448.26 95.6147V106.806H1471.74V95.6495C1471.74 94.2055 1472.92 93.0349 1474.37 93.0349C1475.82 93.0349 1477 94.2055 1477 95.6495V109.42C1476.96 110.843 1475.8 111.982 1474.37 112Z" fill="white" />
  <path d="M1450.5 121C1449.13 120.982 1448.02 119.859 1448 118.469V112.531C1448 111.133 1449.12 110 1450.5 110C1451.88 110 1453 111.133 1453 112.531V118.469C1453 119.867 1451.88 121 1450.5 121Z" fill="white" />
  <path d="M1468.5 121C1467.12 121 1466 119.867 1466 118.469V112.531C1466 111.133 1467.12 110 1468.5 110C1469.88 110 1471 111.133 1471 112.531V118.469C1470.98 119.859 1469.87 120.982 1468.5 121Z" fill="white" />
  <path d="M1459.5 112C1458.13 111.981 1457.02 110.826 1457 109.395V81.6053C1457 80.1664 1458.12 79 1459.5 79C1460.88 79 1462 80.1664 1462 81.6053V109.395C1461.98 110.826 1460.87 111.981 1459.5 112Z" fill="white" />
  <path fill-rule="evenodd" clip-rule="evenodd" d="M72.9545 95.9808C76.1435 99.1856 80.4772 100.991 85 101C89.5228 100.991 93.8565 99.1856 97.0455 95.9808C100.235 92.7759 102.017 88.4352 102 83.9158V64.9872C102 55.6054 94.3887 48 85 48C75.6113 48 68.0002 55.6054 68.0002 64.9872V83.9158C67.983 88.4352 69.7654 92.7759 72.9545 95.9808ZM72.8573 64.9872C72.8752 58.2986 78.3064 52.8858 85 52.8858C91.6936 52.8858 97.1248 58.2986 97.1427 64.9872V83.9158C97.1427 90.617 91.7062 96.0494 85 96.0494C78.2938 96.0494 72.8573 90.617 72.8573 83.9158V64.9872Z" fill="white" />
  <path d="M99.5714 121H70.4286C69.0873 121 68 119.898 68 118.538C68 117.178 69.0873 116.075 70.4286 116.075H82.5714V99.4624C82.5714 98.1024 83.6587 97 85 97C86.3413 97 87.4286 98.1024 87.4286 99.4624V116.075H99.5714C100.913 116.075 102 117.178 102 118.538C102 119.898 100.913 121 99.5714 121Z" fill="white" />
  <path d="M99.5702 72H89.4298C88.0879 72 87 70.8807 87 69.5C87 68.1193 88.0879 67 89.4298 67H99.5702C100.912 67 102 68.1193 102 69.5C102 70.8807 100.912 72 99.5702 72Z" fill="white" />
  <path d="M99.5702 84H89.4298C88.0879 84 87 82.8807 87 81.5C87 80.1193 88.0879 79 89.4298 79H99.5702C100.912 79 102 80.1193 102 81.5C102 82.8807 100.912 84 99.5702 84Z" fill="white" />
  <path fill-rule="evenodd" clip-rule="evenodd" d="M972 67.5C972 79.9264 982.074 90 994.5 90C1006.92 89.9785 1016.98 79.9175 1017 67.5C1017 55.0736 1006.93 45 994.5 45C982.074 45 972 55.0736 972 67.5ZM977.87 67.5C977.87 58.3153 985.315 50.8696 994.5 50.8696C1003.68 50.8911 1011.11 58.3242 1011.13 67.5C1011.13 76.6847 1003.68 84.1304 994.5 84.1304C985.315 84.1304 977.87 76.6847 977.87 67.5Z" fill="white" />
  <path d="M1029.08 121C1027.47 120.979 1026.17 119.683 1026.15 118.079C1026.13 102.493 1013.49 89.8636 997.897 89.8421H990.103C974.506 89.8636 961.868 102.493 961.846 118.079C961.846 119.692 960.537 121 958.923 121C957.309 121 956 119.692 956 118.079C956.021 99.2666 971.277 84.0215 990.103 84H997.897C1016.72 84.0215 1031.98 99.2666 1032 118.079C1031.98 119.683 1030.68 120.979 1029.08 121Z" fill="white" />
  <path fill-rule="evenodd" clip-rule="evenodd" d="M510.632 71.7632C510.632 81.5735 518.584 89.5263 528.395 89.5263C538.198 89.5093 546.141 81.5664 546.158 71.7632C546.158 61.9528 538.205 54 528.395 54C518.584 54 510.632 61.9528 510.632 71.7632ZM515.265 71.7632C515.265 64.5121 521.144 58.6339 528.395 58.6339C535.639 58.6509 541.507 64.5191 541.524 71.7632C541.524 79.0143 535.646 84.8924 528.395 84.8924C521.144 84.8924 515.265 79.0143 515.265 71.7632Z" fill="white" />
  <path d="M555.692 114C554.425 113.983 553.401 112.961 553.385 111.694C553.368 99.3893 543.39 89.4186 531.077 89.4017H524.923C512.61 89.4186 502.632 99.3893 502.615 111.694C502.615 112.968 501.582 114 500.308 114C499.033 114 498 112.968 498 111.694C498.017 96.842 510.061 84.8064 524.923 84.7895H531.077C545.939 84.8064 557.983 96.842 558 111.694C557.983 112.961 556.96 113.983 555.692 114Z" fill="white" />
  <path fill-rule="evenodd" clip-rule="evenodd" d="M562.263 71.0263C562.263 78.2206 568.095 84.0526 575.289 84.0526C582.479 84.0402 588.303 78.2154 588.316 71.0263C588.316 63.8321 582.484 58 575.289 58C568.095 58 562.263 63.8321 562.263 71.0263ZM565.661 71.0263C565.661 65.7088 569.972 61.3982 575.289 61.3982C580.602 61.4106 584.905 65.714 584.918 71.0263C584.918 76.3438 580.607 80.6545 575.289 80.6545C569.972 80.6545 565.661 76.3438 565.661 71.0263Z" fill="white" />
  <path d="M595.308 102C594.378 101.988 593.628 101.238 593.615 100.309C593.603 91.2855 586.286 83.9736 577.256 83.9612H572.744C563.714 83.9736 556.397 91.2855 556.385 100.309C556.385 101.243 555.627 102 554.692 102C553.758 102 553 101.243 553 100.309C553.012 89.4175 561.845 80.5914 572.744 80.5789H577.256C588.155 80.5914 596.988 89.4175 597 100.309C596.988 101.238 596.237 101.988 595.308 102Z" fill="white" />
  <path fill-rule="evenodd" clip-rule="evenodd" d="M469.263 71.0263C469.263 78.2206 475.095 84.0526 482.289 84.0526C489.479 84.0402 495.303 78.2154 495.316 71.0263C495.316 63.8321 489.484 58 482.289 58C475.095 58 469.263 63.8321 469.263 71.0263ZM472.661 71.0263C472.661 65.7088 476.972 61.3982 482.289 61.3982C487.602 61.4106 491.905 65.714 491.918 71.0263C491.918 76.3438 487.607 80.6545 482.289 80.6545C476.972 80.6545 472.661 76.3438 472.661 71.0263Z" fill="white" />
  <path d="M502.308 102C501.378 101.988 500.628 101.238 500.615 100.309C500.603 91.2855 493.286 83.9736 484.256 83.9612H479.744C470.714 83.9736 463.397 91.2855 463.385 100.309C463.385 101.243 462.627 102 461.692 102C460.758 102 460 101.243 460 100.309C460.012 89.4175 468.845 80.5914 479.744 80.5789H484.256C495.155 80.5914 503.988 89.4175 504 100.309C503.988 101.238 503.237 101.988 502.308 102Z" fill="white" />
  <path d="M47.3887 202.011C47.3887 202.9 47.1665 203.659 46.7222 204.288C46.2847 204.91 45.6694 205.385 44.8765 205.713C44.0835 206.041 43.1504 206.205 42.0771 206.205C41.5098 206.205 40.9731 206.178 40.4673 206.123C39.9614 206.068 39.4966 205.99 39.0728 205.887C38.6489 205.785 38.2764 205.658 37.9551 205.508V203.836C38.4678 204.048 39.0933 204.247 39.8315 204.431C40.5698 204.609 41.3423 204.698 42.1489 204.698C42.9009 204.698 43.5366 204.599 44.0562 204.4C44.5757 204.195 44.9688 203.905 45.2354 203.529C45.5088 203.146 45.6455 202.688 45.6455 202.155C45.6455 201.642 45.5327 201.215 45.3071 200.873C45.0815 200.524 44.7056 200.21 44.1792 199.93C43.6597 199.643 42.9487 199.338 42.0464 199.017C41.4106 198.792 40.8501 198.545 40.3647 198.279C39.8794 198.005 39.4727 197.698 39.1445 197.356C38.8164 197.014 38.5669 196.618 38.396 196.167C38.2319 195.715 38.1499 195.199 38.1499 194.618C38.1499 193.818 38.3516 193.135 38.7549 192.567C39.165 191.993 39.729 191.556 40.4468 191.255C41.1714 190.947 42.002 190.793 42.9385 190.793C43.7383 190.793 44.4766 190.869 45.1533 191.019C45.8369 191.169 46.4624 191.371 47.0298 191.624L46.4863 193.121C45.9463 192.896 45.3721 192.708 44.7637 192.557C44.1621 192.407 43.54 192.332 42.8975 192.332C42.2549 192.332 41.7114 192.427 41.2671 192.619C40.8296 192.803 40.4946 193.066 40.2622 193.408C40.0298 193.75 39.9136 194.157 39.9136 194.628C39.9136 195.155 40.0229 195.592 40.2417 195.941C40.4673 196.29 40.8228 196.601 41.3081 196.874C41.8003 197.141 42.4497 197.421 43.2563 197.715C44.1382 198.036 44.8867 198.378 45.502 198.74C46.1172 199.096 46.5854 199.533 46.9067 200.053C47.228 200.565 47.3887 201.218 47.3887 202.011ZM54.6997 206.205C53.688 206.205 52.7959 205.997 52.0234 205.58C51.251 205.163 50.6494 204.527 50.2188 203.672C49.7881 202.818 49.5728 201.741 49.5728 200.442C49.5728 199.082 49.7983 197.971 50.2495 197.11C50.7075 196.242 51.3364 195.599 52.1362 195.182C52.936 194.765 53.8452 194.557 54.8638 194.557C55.4243 194.557 55.9644 194.615 56.4839 194.731C57.0103 194.84 57.4409 194.98 57.7759 195.151L57.2632 196.577C56.9214 196.44 56.5249 196.317 56.0737 196.208C55.6294 196.098 55.2124 196.043 54.8228 196.043C54.0435 196.043 53.394 196.211 52.8745 196.546C52.3618 196.881 51.9756 197.373 51.7158 198.022C51.4629 198.672 51.3364 199.472 51.3364 200.422C51.3364 201.331 51.4595 202.107 51.7056 202.75C51.9585 203.392 52.3311 203.884 52.8232 204.226C53.3223 204.561 53.9443 204.729 54.6895 204.729C55.2842 204.729 55.8208 204.667 56.2993 204.544C56.7778 204.414 57.2119 204.264 57.6016 204.093V205.61C57.2256 205.802 56.8052 205.949 56.3403 206.051C55.8823 206.154 55.3354 206.205 54.6997 206.205ZM65.374 194.557C65.5996 194.557 65.8354 194.57 66.0815 194.598C66.3276 194.618 66.5464 194.649 66.7378 194.69L66.5225 196.269C66.3379 196.221 66.1328 196.184 65.9072 196.156C65.6816 196.129 65.4697 196.115 65.2715 196.115C64.8203 196.115 64.3931 196.208 63.9897 196.392C63.5933 196.57 63.2446 196.83 62.9438 197.171C62.6431 197.506 62.4072 197.913 62.2363 198.392C62.0654 198.863 61.98 199.39 61.98 199.971V206H60.2676V194.762H61.6826L61.8672 196.833H61.939C62.1714 196.416 62.4517 196.037 62.7798 195.695C63.1079 195.346 63.4873 195.069 63.918 194.864C64.3555 194.659 64.8408 194.557 65.374 194.557ZM73.1875 194.557C74.1445 194.557 74.9648 194.769 75.6484 195.192C76.332 195.616 76.855 196.211 77.2173 196.977C77.5796 197.735 77.7607 198.624 77.7607 199.643V200.699H69.9985C70.019 202.018 70.3472 203.023 70.9829 203.713C71.6187 204.404 72.5142 204.749 73.6694 204.749C74.3804 204.749 75.0093 204.684 75.5562 204.554C76.103 204.424 76.6704 204.233 77.2583 203.98V205.477C76.6909 205.73 76.127 205.915 75.5664 206.031C75.0127 206.147 74.3564 206.205 73.5977 206.205C72.5176 206.205 71.5742 205.986 70.7676 205.549C69.9678 205.104 69.3457 204.455 68.9014 203.601C68.457 202.746 68.2349 201.7 68.2349 200.463C68.2349 199.253 68.4365 198.207 68.8398 197.325C69.25 196.437 69.8242 195.753 70.5625 195.274C71.3076 194.796 72.1826 194.557 73.1875 194.557ZM73.167 195.951C72.2578 195.951 71.5332 196.249 70.9932 196.843C70.4531 197.438 70.1318 198.269 70.0293 199.335H75.9766C75.9697 198.665 75.8638 198.077 75.6587 197.571C75.4604 197.059 75.1562 196.662 74.7461 196.382C74.3359 196.095 73.8096 195.951 73.167 195.951ZM84.9795 194.557C85.9365 194.557 86.7568 194.769 87.4404 195.192C88.124 195.616 88.647 196.211 89.0093 196.977C89.3716 197.735 89.5527 198.624 89.5527 199.643V200.699H81.7905C81.811 202.018 82.1392 203.023 82.7749 203.713C83.4106 204.404 84.3062 204.749 85.4614 204.749C86.1724 204.749 86.8013 204.684 87.3481 204.554C87.895 204.424 88.4624 204.233 89.0503 203.98V205.477C88.4829 205.73 87.9189 205.915 87.3584 206.031C86.8047 206.147 86.1484 206.205 85.3896 206.205C84.3096 206.205 83.3662 205.986 82.5596 205.549C81.7598 205.104 81.1377 204.455 80.6934 203.601C80.249 202.746 80.0269 201.7 80.0269 200.463C80.0269 199.253 80.2285 198.207 80.6318 197.325C81.042 196.437 81.6162 195.753 82.3545 195.274C83.0996 194.796 83.9746 194.557 84.9795 194.557ZM84.959 195.951C84.0498 195.951 83.3252 196.249 82.7852 196.843C82.2451 197.438 81.9238 198.269 81.8213 199.335H87.7686C87.7617 198.665 87.6558 198.077 87.4507 197.571C87.2524 197.059 86.9482 196.662 86.5381 196.382C86.1279 196.095 85.6016 195.951 84.959 195.951ZM97.7661 194.557C99.0991 194.557 100.107 194.885 100.791 195.541C101.475 196.19 101.816 197.236 101.816 198.679V206H100.135V198.792C100.135 197.855 99.9194 197.154 99.4888 196.689C99.0649 196.225 98.4121 195.992 97.5303 195.992C96.2861 195.992 95.4111 196.344 94.9053 197.048C94.3994 197.752 94.1465 198.774 94.1465 200.114V206H92.4443V194.762H93.8184L94.0747 196.382H94.167C94.4062 195.985 94.7104 195.654 95.0796 195.387C95.4487 195.114 95.8623 194.909 96.3203 194.772C96.7783 194.628 97.2603 194.557 97.7661 194.557ZM107.025 194.762V206H105.323V194.762H107.025ZM106.195 190.558C106.475 190.558 106.714 190.65 106.913 190.834C107.118 191.012 107.22 191.292 107.22 191.675C107.22 192.051 107.118 192.332 106.913 192.516C106.714 192.701 106.475 192.793 106.195 192.793C105.901 192.793 105.655 192.701 105.457 192.516C105.265 192.332 105.169 192.051 105.169 191.675C105.169 191.292 105.265 191.012 105.457 190.834C105.655 190.65 105.901 190.558 106.195 190.558ZM115.957 194.557C117.29 194.557 118.298 194.885 118.981 195.541C119.665 196.19 120.007 197.236 120.007 198.679V206H118.325V198.792C118.325 197.855 118.11 197.154 117.679 196.689C117.255 196.225 116.603 195.992 115.721 195.992C114.477 195.992 113.602 196.344 113.096 197.048C112.59 197.752 112.337 198.774 112.337 200.114V206H110.635V194.762H112.009L112.265 196.382H112.357C112.597 195.985 112.901 195.654 113.27 195.387C113.639 195.114 114.053 194.909 114.511 194.772C114.969 194.628 115.451 194.557 115.957 194.557ZM126.651 211.045C125.175 211.045 124.037 210.768 123.237 210.214C122.437 209.667 122.037 208.898 122.037 207.907C122.037 207.203 122.259 206.602 122.704 206.103C123.155 205.604 123.777 205.272 124.57 205.108C124.276 204.971 124.023 204.766 123.811 204.493C123.606 204.219 123.503 203.905 123.503 203.549C123.503 203.139 123.616 202.78 123.842 202.473C124.074 202.158 124.426 201.857 124.898 201.57C124.31 201.331 123.832 200.928 123.462 200.36C123.1 199.786 122.919 199.12 122.919 198.361C122.919 197.554 123.086 196.867 123.421 196.3C123.756 195.726 124.242 195.288 124.877 194.987C125.513 194.687 126.282 194.536 127.185 194.536C127.383 194.536 127.581 194.546 127.779 194.567C127.984 194.581 128.179 194.604 128.364 194.639C128.548 194.666 128.709 194.7 128.846 194.741H132.701V195.838L130.63 196.095C130.835 196.361 131.006 196.683 131.143 197.059C131.279 197.435 131.348 197.852 131.348 198.31C131.348 199.431 130.968 200.323 130.209 200.986C129.451 201.642 128.408 201.97 127.082 201.97C126.768 201.97 126.446 201.943 126.118 201.888C125.783 202.073 125.527 202.278 125.349 202.503C125.178 202.729 125.093 202.989 125.093 203.283C125.093 203.501 125.158 203.676 125.288 203.806C125.424 203.936 125.619 204.031 125.872 204.093C126.125 204.147 126.429 204.175 126.785 204.175H128.764C129.987 204.175 130.924 204.431 131.573 204.944C132.229 205.457 132.558 206.205 132.558 207.189C132.558 208.434 132.052 209.387 131.04 210.05C130.028 210.713 128.565 211.045 126.651 211.045ZM126.703 209.712C127.632 209.712 128.401 209.616 129.01 209.425C129.625 209.24 130.083 208.97 130.384 208.615C130.691 208.266 130.845 207.849 130.845 207.364C130.845 206.913 130.743 206.571 130.538 206.338C130.333 206.113 130.032 205.962 129.635 205.887C129.239 205.805 128.753 205.764 128.179 205.764H126.231C125.725 205.764 125.284 205.843 124.908 206C124.532 206.157 124.242 206.39 124.037 206.697C123.838 207.005 123.739 207.388 123.739 207.846C123.739 208.454 123.996 208.916 124.508 209.23C125.021 209.551 125.752 209.712 126.703 209.712ZM127.144 200.729C127.957 200.729 128.569 200.524 128.979 200.114C129.389 199.704 129.594 199.106 129.594 198.32C129.594 197.479 129.386 196.85 128.969 196.433C128.552 196.009 127.937 195.797 127.123 195.797C126.344 195.797 125.742 196.016 125.318 196.454C124.901 196.884 124.693 197.517 124.693 198.351C124.693 199.116 124.905 199.704 125.329 200.114C125.752 200.524 126.357 200.729 127.144 200.729ZM41.8003 235V220.009H43.5435V235H41.8003ZM52.731 223.557C54.064 223.557 55.0723 223.885 55.7559 224.541C56.4395 225.19 56.7812 226.236 56.7812 227.679V235H55.0996V227.792C55.0996 226.855 54.8843 226.154 54.4536 225.689C54.0298 225.225 53.377 224.992 52.4951 224.992C51.251 224.992 50.376 225.344 49.8701 226.048C49.3643 226.752 49.1113 227.774 49.1113 229.114V235H47.4092V223.762H48.7832L49.0396 225.382H49.1318C49.3711 224.985 49.6753 224.654 50.0444 224.387C50.4136 224.114 50.8271 223.909 51.2852 223.772C51.7432 223.628 52.2251 223.557 52.731 223.557ZM63.918 233.811C64.1982 233.811 64.4854 233.787 64.7793 233.739C65.0732 233.691 65.3125 233.633 65.4971 233.564V234.887C65.2988 234.976 65.022 235.051 64.6665 235.113C64.3179 235.174 63.9761 235.205 63.6411 235.205C63.0464 235.205 62.5063 235.103 62.021 234.897C61.5356 234.686 61.146 234.33 60.8521 233.831C60.5649 233.332 60.4214 232.642 60.4214 231.76V225.095H58.8218V224.264L60.4316 223.598L61.1084 221.157H62.1338V223.762H65.4253V225.095H62.1338V231.708C62.1338 232.413 62.2944 232.939 62.6157 233.288C62.9438 233.636 63.3779 233.811 63.918 233.811ZM72.1006 223.557C73.0576 223.557 73.8779 223.769 74.5615 224.192C75.2451 224.616 75.7681 225.211 76.1304 225.977C76.4927 226.735 76.6738 227.624 76.6738 228.643V229.699H68.9116C68.9321 231.018 69.2603 232.023 69.896 232.713C70.5317 233.404 71.4272 233.749 72.5825 233.749C73.2935 233.749 73.9224 233.684 74.4692 233.554C75.0161 233.424 75.5835 233.233 76.1714 232.98V234.477C75.604 234.73 75.04 234.915 74.4795 235.031C73.9258 235.147 73.2695 235.205 72.5107 235.205C71.4307 235.205 70.4873 234.986 69.6807 234.549C68.8809 234.104 68.2588 233.455 67.8145 232.601C67.3701 231.746 67.1479 230.7 67.1479 229.463C67.1479 228.253 67.3496 227.207 67.7529 226.325C68.1631 225.437 68.7373 224.753 69.4756 224.274C70.2207 223.796 71.0957 223.557 72.1006 223.557ZM72.0801 224.951C71.1709 224.951 70.4463 225.249 69.9062 225.843C69.3662 226.438 69.0449 227.269 68.9424 228.335H74.8896C74.8828 227.665 74.7769 227.077 74.5718 226.571C74.3735 226.059 74.0693 225.662 73.6592 225.382C73.249 225.095 72.7227 224.951 72.0801 224.951ZM84.6719 223.557C84.8975 223.557 85.1333 223.57 85.3794 223.598C85.6255 223.618 85.8442 223.649 86.0356 223.69L85.8203 225.269C85.6357 225.221 85.4307 225.184 85.2051 225.156C84.9795 225.129 84.7676 225.115 84.5693 225.115C84.1182 225.115 83.6909 225.208 83.2876 225.392C82.8911 225.57 82.5425 225.83 82.2417 226.171C81.9409 226.506 81.7051 226.913 81.5342 227.392C81.3633 227.863 81.2778 228.39 81.2778 228.971V235H79.5654V223.762H80.9805L81.165 225.833H81.2368C81.4692 225.416 81.7495 225.037 82.0776 224.695C82.4058 224.346 82.7852 224.069 83.2158 223.864C83.6533 223.659 84.1387 223.557 84.6719 223.557ZM90.6294 235L86.3638 223.762H88.189L90.6602 230.56C90.8311 231.025 91.0054 231.538 91.1831 232.098C91.3608 232.659 91.4839 233.11 91.5522 233.452H91.624C91.7061 233.11 91.8428 232.659 92.0342 232.098C92.2256 231.531 92.3999 231.018 92.5571 230.56L95.0283 223.762H96.8535L92.5776 235H90.6294ZM100.36 223.762V235H98.6582V223.762H100.36ZM99.5298 219.558C99.8101 219.558 100.049 219.65 100.248 219.834C100.453 220.012 100.555 220.292 100.555 220.675C100.555 221.051 100.453 221.332 100.248 221.516C100.049 221.701 99.8101 221.793 99.5298 221.793C99.2358 221.793 98.9897 221.701 98.7915 221.516C98.6001 221.332 98.5044 221.051 98.5044 220.675C98.5044 220.292 98.6001 220.012 98.7915 219.834C98.9897 219.65 99.2358 219.558 99.5298 219.558ZM108.297 223.557C109.254 223.557 110.074 223.769 110.758 224.192C111.441 224.616 111.964 225.211 112.327 225.977C112.689 226.735 112.87 227.624 112.87 228.643V229.699H105.108C105.128 231.018 105.457 232.023 106.092 232.713C106.728 233.404 107.624 233.749 108.779 233.749C109.49 233.749 110.119 233.684 110.666 233.554C111.212 233.424 111.78 233.233 112.368 232.98V234.477C111.8 234.73 111.236 234.915 110.676 235.031C110.122 235.147 109.466 235.205 108.707 235.205C107.627 235.205 106.684 234.986 105.877 234.549C105.077 234.104 104.455 233.455 104.011 232.601C103.566 231.746 103.344 230.7 103.344 229.463C103.344 228.253 103.546 227.207 103.949 226.325C104.359 225.437 104.934 224.753 105.672 224.274C106.417 223.796 107.292 223.557 108.297 223.557ZM108.276 224.951C107.367 224.951 106.643 225.249 106.103 225.843C105.562 226.438 105.241 227.269 105.139 228.335H111.086C111.079 227.665 110.973 227.077 110.768 226.571C110.57 226.059 110.266 225.662 109.855 225.382C109.445 225.095 108.919 224.951 108.276 224.951ZM124.908 234.979L122.909 228.438C122.82 228.157 122.734 227.884 122.652 227.617C122.577 227.344 122.505 227.084 122.437 226.838C122.375 226.585 122.317 226.353 122.263 226.141C122.215 225.922 122.174 225.734 122.14 225.577H122.068C122.041 225.734 122.003 225.922 121.955 226.141C121.907 226.353 121.849 226.585 121.781 226.838C121.719 227.091 121.651 227.357 121.576 227.638C121.5 227.911 121.415 228.188 121.319 228.468L119.228 234.979H117.31L114.213 223.741H115.977L117.597 229.945C117.707 230.355 117.809 230.762 117.905 231.165C118.007 231.562 118.093 231.938 118.161 232.293C118.236 232.642 118.291 232.946 118.325 233.206H118.407C118.448 233.035 118.493 232.83 118.541 232.59C118.595 232.351 118.653 232.098 118.715 231.832C118.783 231.558 118.855 231.288 118.93 231.021C119.005 230.748 119.081 230.492 119.156 230.252L121.227 223.741H123.062L125.062 230.242C125.165 230.57 125.264 230.912 125.359 231.268C125.462 231.623 125.554 231.968 125.636 232.303C125.718 232.631 125.776 232.925 125.811 233.185H125.893C125.92 232.953 125.971 232.666 126.046 232.324C126.122 231.982 126.207 231.606 126.303 231.196C126.405 230.786 126.511 230.369 126.621 229.945L128.261 223.741H129.994L126.887 234.979H124.908Z" fill="#B5D9FF" />
  <path d="M508.42 206H506.667V192.547H501.95V191.009H513.117V192.547H508.42V206ZM519.454 194.557C520.411 194.557 521.231 194.769 521.915 195.192C522.598 195.616 523.121 196.211 523.483 196.977C523.846 197.735 524.027 198.624 524.027 199.643V200.699H516.265C516.285 202.018 516.613 203.023 517.249 203.713C517.885 204.404 518.78 204.749 519.936 204.749C520.646 204.749 521.275 204.684 521.822 204.554C522.369 204.424 522.937 204.233 523.524 203.98V205.477C522.957 205.73 522.393 205.915 521.833 206.031C521.279 206.147 520.623 206.205 519.864 206.205C518.784 206.205 517.84 205.986 517.034 205.549C516.234 205.104 515.612 204.455 515.167 203.601C514.723 202.746 514.501 201.7 514.501 200.463C514.501 199.253 514.703 198.207 515.106 197.325C515.516 196.437 516.09 195.753 516.829 195.274C517.574 194.796 518.449 194.557 519.454 194.557ZM519.433 195.951C518.524 195.951 517.799 196.249 517.259 196.843C516.719 197.438 516.398 198.269 516.295 199.335H522.243C522.236 198.665 522.13 198.077 521.925 197.571C521.727 197.059 521.422 196.662 521.012 196.382C520.602 196.095 520.076 195.951 519.433 195.951ZM531.123 194.577C532.462 194.577 533.457 194.878 534.106 195.479C534.756 196.081 535.081 197.042 535.081 198.361V206H533.84L533.512 204.339H533.43C533.115 204.749 532.787 205.094 532.445 205.375C532.104 205.648 531.707 205.856 531.256 206C530.812 206.137 530.265 206.205 529.615 206.205C528.932 206.205 528.323 206.085 527.79 205.846C527.264 205.607 526.847 205.245 526.539 204.759C526.238 204.274 526.088 203.659 526.088 202.914C526.088 201.792 526.532 200.931 527.421 200.33C528.31 199.728 529.663 199.4 531.481 199.345L533.419 199.263V198.576C533.419 197.605 533.211 196.925 532.794 196.536C532.377 196.146 531.789 195.951 531.03 195.951C530.442 195.951 529.882 196.037 529.349 196.208C528.815 196.378 528.31 196.58 527.831 196.812L527.308 195.521C527.814 195.261 528.395 195.039 529.051 194.854C529.708 194.669 530.398 194.577 531.123 194.577ZM533.399 200.463L531.687 200.535C530.285 200.589 529.297 200.818 528.723 201.222C528.149 201.625 527.862 202.196 527.862 202.934C527.862 203.577 528.057 204.052 528.446 204.359C528.836 204.667 529.352 204.821 529.995 204.821C530.993 204.821 531.81 204.544 532.445 203.99C533.081 203.437 533.399 202.606 533.399 201.499V200.463ZM550.79 194.557C552.027 194.557 552.96 194.881 553.589 195.531C554.218 196.173 554.532 197.209 554.532 198.638V206H552.851V198.72C552.851 197.811 552.652 197.13 552.256 196.679C551.866 196.221 551.285 195.992 550.513 195.992C549.426 195.992 548.636 196.307 548.144 196.936C547.652 197.564 547.406 198.491 547.406 199.714V206H545.714V198.72C545.714 198.111 545.625 197.605 545.447 197.202C545.276 196.799 545.017 196.498 544.668 196.3C544.326 196.095 543.892 195.992 543.366 195.992C542.621 195.992 542.022 196.146 541.571 196.454C541.12 196.761 540.792 197.219 540.587 197.828C540.389 198.429 540.29 199.171 540.29 200.053V206H538.587V194.762H539.961L540.218 196.351H540.31C540.536 195.961 540.819 195.633 541.161 195.367C541.503 195.1 541.886 194.898 542.31 194.762C542.733 194.625 543.185 194.557 543.663 194.557C544.518 194.557 545.232 194.717 545.806 195.039C546.387 195.353 546.808 195.835 547.067 196.484H547.16C547.529 195.835 548.035 195.353 548.677 195.039C549.32 194.717 550.024 194.557 550.79 194.557ZM480.796 235V220.009H482.54V235H480.796ZM491.727 223.557C493.06 223.557 494.068 223.885 494.752 224.541C495.436 225.19 495.777 226.236 495.777 227.679V235H494.096V227.792C494.096 226.855 493.88 226.154 493.45 225.689C493.026 225.225 492.373 224.992 491.491 224.992C490.247 224.992 489.372 225.344 488.866 226.048C488.36 226.752 488.107 227.774 488.107 229.114V235H486.405V223.762H487.779L488.036 225.382H488.128C488.367 224.985 488.671 224.654 489.041 224.387C489.41 224.114 489.823 223.909 490.281 223.772C490.739 223.628 491.221 223.557 491.727 223.557ZM502.914 233.811C503.194 233.811 503.481 233.787 503.775 233.739C504.069 233.691 504.309 233.633 504.493 233.564V234.887C504.295 234.976 504.018 235.051 503.663 235.113C503.314 235.174 502.972 235.205 502.637 235.205C502.042 235.205 501.502 235.103 501.017 234.897C500.532 234.686 500.142 234.33 499.848 233.831C499.561 233.332 499.417 232.642 499.417 231.76V225.095H497.818V224.264L499.428 223.598L500.104 221.157H501.13V223.762H504.421V225.095H501.13V231.708C501.13 232.413 501.291 232.939 501.612 233.288C501.94 233.636 502.374 233.811 502.914 233.811ZM511.097 223.557C512.054 223.557 512.874 223.769 513.558 224.192C514.241 224.616 514.764 225.211 515.126 225.977C515.489 226.735 515.67 227.624 515.67 228.643V229.699H507.908C507.928 231.018 508.256 232.023 508.892 232.713C509.528 233.404 510.423 233.749 511.579 233.749C512.29 233.749 512.918 233.684 513.465 233.554C514.012 233.424 514.58 233.233 515.167 232.98V234.477C514.6 234.73 514.036 234.915 513.476 235.031C512.922 235.147 512.266 235.205 511.507 235.205C510.427 235.205 509.483 234.986 508.677 234.549C507.877 234.104 507.255 233.455 506.811 232.601C506.366 231.746 506.144 230.7 506.144 229.463C506.144 228.253 506.346 227.207 506.749 226.325C507.159 225.437 507.733 224.753 508.472 224.274C509.217 223.796 510.092 223.557 511.097 223.557ZM511.076 224.951C510.167 224.951 509.442 225.249 508.902 225.843C508.362 226.438 508.041 227.269 507.938 228.335H513.886C513.879 227.665 513.773 227.077 513.568 226.571C513.37 226.059 513.065 225.662 512.655 225.382C512.245 225.095 511.719 224.951 511.076 224.951ZM523.668 223.557C523.894 223.557 524.129 223.57 524.375 223.598C524.622 223.618 524.84 223.649 525.032 223.69L524.816 225.269C524.632 225.221 524.427 225.184 524.201 225.156C523.976 225.129 523.764 225.115 523.565 225.115C523.114 225.115 522.687 225.208 522.284 225.392C521.887 225.57 521.539 225.83 521.238 226.171C520.937 226.506 520.701 226.913 520.53 227.392C520.359 227.863 520.274 228.39 520.274 228.971V235H518.562V223.762H519.977L520.161 225.833H520.233C520.465 225.416 520.746 225.037 521.074 224.695C521.402 224.346 521.781 224.069 522.212 223.864C522.649 223.659 523.135 223.557 523.668 223.557ZM529.625 235L525.36 223.762H527.185L529.656 230.56C529.827 231.025 530.001 231.538 530.179 232.098C530.357 232.659 530.48 233.11 530.548 233.452H530.62C530.702 233.11 530.839 232.659 531.03 232.098C531.222 231.531 531.396 231.018 531.553 230.56L534.024 223.762H535.85L531.574 235H529.625ZM539.356 223.762V235H537.654V223.762H539.356ZM538.526 219.558C538.806 219.558 539.045 219.65 539.244 219.834C539.449 220.012 539.551 220.292 539.551 220.675C539.551 221.051 539.449 221.332 539.244 221.516C539.045 221.701 538.806 221.793 538.526 221.793C538.232 221.793 537.986 221.701 537.788 221.516C537.596 221.332 537.5 221.051 537.5 220.675C537.5 220.292 537.596 220.012 537.788 219.834C537.986 219.65 538.232 219.558 538.526 219.558ZM547.293 223.557C548.25 223.557 549.07 223.769 549.754 224.192C550.438 224.616 550.96 225.211 551.323 225.977C551.685 226.735 551.866 227.624 551.866 228.643V229.699H544.104C544.125 231.018 544.453 232.023 545.088 232.713C545.724 233.404 546.62 233.749 547.775 233.749C548.486 233.749 549.115 233.684 549.662 233.554C550.208 233.424 550.776 233.233 551.364 232.98V234.477C550.796 234.73 550.232 234.915 549.672 235.031C549.118 235.147 548.462 235.205 547.703 235.205C546.623 235.205 545.68 234.986 544.873 234.549C544.073 234.104 543.451 233.455 543.007 232.601C542.562 231.746 542.34 230.7 542.34 229.463C542.34 228.253 542.542 227.207 542.945 226.325C543.355 225.437 543.93 224.753 544.668 224.274C545.413 223.796 546.288 223.557 547.293 223.557ZM547.272 224.951C546.363 224.951 545.639 225.249 545.099 225.843C544.559 226.438 544.237 227.269 544.135 228.335H550.082C550.075 227.665 549.969 227.077 549.764 226.571C549.566 226.059 549.262 225.662 548.852 225.382C548.441 225.095 547.915 224.951 547.272 224.951ZM563.904 234.979L561.905 228.438C561.816 228.157 561.73 227.884 561.648 227.617C561.573 227.344 561.501 227.084 561.433 226.838C561.372 226.585 561.313 226.353 561.259 226.141C561.211 225.922 561.17 225.734 561.136 225.577H561.064C561.037 225.734 560.999 225.922 560.951 226.141C560.903 226.353 560.845 226.585 560.777 226.838C560.715 227.091 560.647 227.357 560.572 227.638C560.497 227.911 560.411 228.188 560.315 228.468L558.224 234.979H556.306L553.209 223.741H554.973L556.593 229.945C556.703 230.355 556.805 230.762 556.901 231.165C557.003 231.562 557.089 231.938 557.157 232.293C557.232 232.642 557.287 232.946 557.321 233.206H557.403C557.444 233.035 557.489 232.83 557.537 232.59C557.591 232.351 557.649 232.098 557.711 231.832C557.779 231.558 557.851 231.288 557.926 231.021C558.001 230.748 558.077 230.492 558.152 230.252L560.223 223.741H562.059L564.058 230.242C564.161 230.57 564.26 230.912 564.355 231.268C564.458 231.623 564.55 231.968 564.632 232.303C564.714 232.631 564.772 232.925 564.807 233.185H564.889C564.916 232.953 564.967 232.666 565.042 232.324C565.118 231.982 565.203 231.606 565.299 231.196C565.401 230.786 565.507 230.369 565.617 229.945L567.257 223.741H568.99L565.883 234.979H563.904ZM578.311 231.924C578.311 232.642 578.13 233.247 577.768 233.739C577.412 234.224 576.899 234.59 576.229 234.836C575.566 235.082 574.773 235.205 573.851 235.205C573.064 235.205 572.384 235.144 571.81 235.021C571.236 234.897 570.733 234.723 570.303 234.498V232.929C570.761 233.154 571.308 233.359 571.943 233.544C572.579 233.729 573.229 233.821 573.892 233.821C574.862 233.821 575.566 233.664 576.004 233.349C576.441 233.035 576.66 232.607 576.66 232.067C576.66 231.76 576.571 231.49 576.394 231.257C576.223 231.018 575.932 230.789 575.522 230.57C575.112 230.345 574.544 230.099 573.82 229.832C573.102 229.559 572.48 229.289 571.954 229.022C571.434 228.749 571.031 228.417 570.744 228.027C570.463 227.638 570.323 227.132 570.323 226.51C570.323 225.56 570.706 224.832 571.472 224.326C572.244 223.813 573.256 223.557 574.507 223.557C575.184 223.557 575.816 223.625 576.404 223.762C576.999 223.892 577.552 224.069 578.065 224.295L577.491 225.659C577.026 225.46 576.53 225.293 576.004 225.156C575.478 225.02 574.941 224.951 574.394 224.951C573.608 224.951 573.003 225.081 572.579 225.341C572.162 225.601 571.954 225.956 571.954 226.407C571.954 226.756 572.049 227.043 572.241 227.269C572.439 227.494 572.753 227.706 573.184 227.904C573.615 228.103 574.182 228.335 574.886 228.602C575.59 228.861 576.199 229.131 576.711 229.412C577.224 229.685 577.617 230.02 577.891 230.417C578.171 230.806 578.311 231.309 578.311 231.924Z" fill="#B5D9FF" />
  <path d="M956.553 206H954.81V191.009H963.156V192.547H956.553V198.043H962.756V199.571H956.553V206ZM975.092 200.36C975.092 201.283 974.972 202.107 974.733 202.832C974.494 203.556 974.148 204.168 973.697 204.667C973.246 205.166 972.699 205.549 972.057 205.815C971.421 206.075 970.7 206.205 969.893 206.205C969.141 206.205 968.451 206.075 967.822 205.815C967.2 205.549 966.66 205.166 966.202 204.667C965.75 204.168 965.398 203.556 965.146 202.832C964.899 202.107 964.776 201.283 964.776 200.36C964.776 199.13 964.985 198.084 965.402 197.223C965.819 196.354 966.414 195.695 967.186 195.244C967.965 194.786 968.892 194.557 969.965 194.557C970.99 194.557 971.886 194.786 972.651 195.244C973.424 195.702 974.022 196.365 974.446 197.233C974.876 198.094 975.092 199.137 975.092 200.36ZM966.54 200.36C966.54 201.263 966.66 202.045 966.899 202.708C967.138 203.372 967.507 203.884 968.006 204.247C968.505 204.609 969.148 204.79 969.934 204.79C970.713 204.79 971.353 204.609 971.852 204.247C972.357 203.884 972.73 203.372 972.969 202.708C973.208 202.045 973.328 201.263 973.328 200.36C973.328 199.465 973.208 198.692 972.969 198.043C972.73 197.387 972.361 196.881 971.862 196.525C971.363 196.17 970.717 195.992 969.924 195.992C968.755 195.992 967.897 196.378 967.35 197.151C966.81 197.923 966.54 198.993 966.54 200.36ZM987.314 194.762V206H985.92L985.674 204.421H985.582C985.349 204.811 985.048 205.139 984.679 205.405C984.31 205.672 983.893 205.87 983.428 206C982.97 206.137 982.481 206.205 981.962 206.205C981.073 206.205 980.328 206.062 979.727 205.774C979.125 205.487 978.67 205.043 978.363 204.441C978.062 203.84 977.912 203.067 977.912 202.124V194.762H979.634V202.001C979.634 202.938 979.846 203.638 980.27 204.103C980.694 204.561 981.34 204.79 982.208 204.79C983.042 204.79 983.705 204.633 984.197 204.318C984.696 204.004 985.055 203.542 985.274 202.934C985.493 202.319 985.602 201.567 985.602 200.678V194.762H987.314ZM996.235 194.557C997.568 194.557 998.577 194.885 999.26 195.541C999.944 196.19 1000.29 197.236 1000.29 198.679V206H998.604V198.792C998.604 197.855 998.389 197.154 997.958 196.689C997.534 196.225 996.881 195.992 996 195.992C994.755 195.992 993.88 196.344 993.375 197.048C992.869 197.752 992.616 198.774 992.616 200.114V206H990.914V194.762H992.288L992.544 196.382H992.636C992.875 195.985 993.18 195.654 993.549 195.387C993.918 195.114 994.332 194.909 994.79 194.772C995.248 194.628 995.729 194.557 996.235 194.557ZM1007.79 206.205C1006.37 206.205 1005.24 205.72 1004.41 204.749C1003.58 203.778 1003.17 202.336 1003.17 200.422C1003.17 198.487 1003.59 197.028 1004.44 196.043C1005.29 195.052 1006.41 194.557 1007.82 194.557C1008.42 194.557 1008.94 194.635 1009.38 194.792C1009.83 194.95 1010.21 195.162 1010.53 195.428C1010.85 195.688 1011.12 195.985 1011.34 196.32H1011.46C1011.44 196.108 1011.41 195.818 1011.38 195.449C1011.35 195.08 1011.34 194.779 1011.34 194.546V190.045H1013.04V206H1011.67L1011.41 204.4H1011.34C1011.13 204.735 1010.86 205.04 1010.53 205.313C1010.21 205.586 1009.82 205.805 1009.37 205.969C1008.93 206.126 1008.4 206.205 1007.79 206.205ZM1008.06 204.79C1009.26 204.79 1010.11 204.448 1010.61 203.765C1011.11 203.081 1011.36 202.066 1011.36 200.719V200.412C1011.36 198.983 1011.12 197.886 1010.64 197.12C1010.17 196.354 1009.31 195.972 1008.06 195.972C1007.01 195.972 1006.23 196.375 1005.71 197.182C1005.19 197.981 1004.93 199.075 1004.93 200.463C1004.93 201.844 1005.19 202.91 1005.7 203.662C1006.22 204.414 1007.01 204.79 1008.06 204.79ZM1020.98 194.557C1021.94 194.557 1022.76 194.769 1023.44 195.192C1024.12 195.616 1024.65 196.211 1025.01 196.977C1025.37 197.735 1025.55 198.624 1025.55 199.643V200.699H1017.79C1017.81 202.018 1018.14 203.023 1018.77 203.713C1019.41 204.404 1020.3 204.749 1021.46 204.749C1022.17 204.749 1022.8 204.684 1023.35 204.554C1023.89 204.424 1024.46 204.233 1025.05 203.98V205.477C1024.48 205.73 1023.92 205.915 1023.36 206.031C1022.8 206.147 1022.15 206.205 1021.39 206.205C1020.31 206.205 1019.36 205.986 1018.56 205.549C1017.76 205.104 1017.14 204.455 1016.69 203.601C1016.25 202.746 1016.03 201.7 1016.03 200.463C1016.03 199.253 1016.23 198.207 1016.63 197.325C1017.04 196.437 1017.61 195.753 1018.35 195.274C1019.1 194.796 1019.97 194.557 1020.98 194.557ZM1020.96 195.951C1020.05 195.951 1019.32 196.249 1018.78 196.843C1018.24 197.438 1017.92 198.269 1017.82 199.335H1023.77C1023.76 198.665 1023.65 198.077 1023.45 197.571C1023.25 197.059 1022.95 196.662 1022.54 196.382C1022.13 196.095 1021.6 195.951 1020.96 195.951ZM1033.55 194.557C1033.77 194.557 1034.01 194.57 1034.26 194.598C1034.5 194.618 1034.72 194.649 1034.91 194.69L1034.7 196.269C1034.51 196.221 1034.31 196.184 1034.08 196.156C1033.86 196.129 1033.65 196.115 1033.45 196.115C1033 196.115 1032.57 196.208 1032.17 196.392C1031.77 196.57 1031.42 196.83 1031.12 197.171C1030.82 197.506 1030.58 197.913 1030.41 198.392C1030.24 198.863 1030.16 199.39 1030.16 199.971V206H1028.44V194.762H1029.86L1030.04 196.833H1030.11C1030.35 196.416 1030.63 196.037 1030.96 195.695C1031.28 195.346 1031.66 195.069 1032.09 194.864C1032.53 194.659 1033.02 194.557 1033.55 194.557ZM950.8 235V220.009H952.543V235H950.8ZM961.731 223.557C963.064 223.557 964.072 223.885 964.756 224.541C965.439 225.19 965.781 226.236 965.781 227.679V235H964.1V227.792C964.1 226.855 963.884 226.154 963.454 225.689C963.03 225.225 962.377 224.992 961.495 224.992C960.251 224.992 959.376 225.344 958.87 226.048C958.364 226.752 958.111 227.774 958.111 229.114V235H956.409V223.762H957.783L958.04 225.382H958.132C958.371 224.985 958.675 224.654 959.044 224.387C959.414 224.114 959.827 223.909 960.285 223.772C960.743 223.628 961.225 223.557 961.731 223.557ZM972.918 233.811C973.198 233.811 973.485 233.787 973.779 233.739C974.073 233.691 974.312 233.633 974.497 233.564V234.887C974.299 234.976 974.022 235.051 973.667 235.113C973.318 235.174 972.976 235.205 972.641 235.205C972.046 235.205 971.506 235.103 971.021 234.897C970.536 234.686 970.146 234.33 969.852 233.831C969.565 233.332 969.421 232.642 969.421 231.76V225.095H967.822V224.264L969.432 223.598L970.108 221.157H971.134V223.762H974.425V225.095H971.134V231.708C971.134 232.413 971.294 232.939 971.616 233.288C971.944 233.636 972.378 233.811 972.918 233.811ZM981.101 223.557C982.058 223.557 982.878 223.769 983.562 224.192C984.245 224.616 984.768 225.211 985.13 225.977C985.493 226.735 985.674 227.624 985.674 228.643V229.699H977.912C977.932 231.018 978.26 232.023 978.896 232.713C979.532 233.404 980.427 233.749 981.583 233.749C982.293 233.749 982.922 233.684 983.469 233.554C984.016 233.424 984.583 233.233 985.171 232.98V234.477C984.604 234.73 984.04 234.915 983.479 235.031C982.926 235.147 982.27 235.205 981.511 235.205C980.431 235.205 979.487 234.986 978.681 234.549C977.881 234.104 977.259 233.455 976.814 232.601C976.37 231.746 976.148 230.7 976.148 229.463C976.148 228.253 976.35 227.207 976.753 226.325C977.163 225.437 977.737 224.753 978.476 224.274C979.221 223.796 980.096 223.557 981.101 223.557ZM981.08 224.951C980.171 224.951 979.446 225.249 978.906 225.843C978.366 226.438 978.045 227.269 977.942 228.335H983.89C983.883 227.665 983.777 227.077 983.572 226.571C983.374 226.059 983.069 225.662 982.659 225.382C982.249 225.095 981.723 224.951 981.08 224.951ZM993.672 223.557C993.897 223.557 994.133 223.57 994.379 223.598C994.625 223.618 994.844 223.649 995.036 223.69L994.82 225.269C994.636 225.221 994.431 225.184 994.205 225.156C993.979 225.129 993.768 225.115 993.569 225.115C993.118 225.115 992.691 225.208 992.288 225.392C991.891 225.57 991.542 225.83 991.242 226.171C990.941 226.506 990.705 226.913 990.534 227.392C990.363 227.863 990.278 228.39 990.278 228.971V235H988.565V223.762H989.98L990.165 225.833H990.237C990.469 225.416 990.75 225.037 991.078 224.695C991.406 224.346 991.785 224.069 992.216 223.864C992.653 223.659 993.139 223.557 993.672 223.557ZM999.629 235L995.364 223.762H997.189L999.66 230.56C999.831 231.025 1000.01 231.538 1000.18 232.098C1000.36 232.659 1000.48 233.11 1000.55 233.452H1000.62C1000.71 233.11 1000.84 232.659 1001.03 232.098C1001.23 231.531 1001.4 231.018 1001.56 230.56L1004.03 223.762H1005.85L1001.58 235H999.629ZM1009.36 223.762V235H1007.66V223.762H1009.36ZM1008.53 219.558C1008.81 219.558 1009.05 219.65 1009.25 219.834C1009.45 220.012 1009.56 220.292 1009.56 220.675C1009.56 221.051 1009.45 221.332 1009.25 221.516C1009.05 221.701 1008.81 221.793 1008.53 221.793C1008.24 221.793 1007.99 221.701 1007.79 221.516C1007.6 221.332 1007.5 221.051 1007.5 220.675C1007.5 220.292 1007.6 220.012 1007.79 219.834C1007.99 219.65 1008.24 219.558 1008.53 219.558ZM1017.3 223.557C1018.25 223.557 1019.07 223.769 1019.76 224.192C1020.44 224.616 1020.96 225.211 1021.33 225.977C1021.69 226.735 1021.87 227.624 1021.87 228.643V229.699H1014.11C1014.13 231.018 1014.46 232.023 1015.09 232.713C1015.73 233.404 1016.62 233.749 1017.78 233.749C1018.49 233.749 1019.12 233.684 1019.67 233.554C1020.21 233.424 1020.78 233.233 1021.37 232.98V234.477C1020.8 234.73 1020.24 234.915 1019.68 235.031C1019.12 235.147 1018.47 235.205 1017.71 235.205C1016.63 235.205 1015.68 234.986 1014.88 234.549C1014.08 234.104 1013.46 233.455 1013.01 232.601C1012.57 231.746 1012.34 230.7 1012.34 229.463C1012.34 228.253 1012.55 227.207 1012.95 226.325C1013.36 225.437 1013.93 224.753 1014.67 224.274C1015.42 223.796 1016.29 223.557 1017.3 223.557ZM1017.28 224.951C1016.37 224.951 1015.64 225.249 1015.1 225.843C1014.56 226.438 1014.24 227.269 1014.14 228.335H1020.09C1020.08 227.665 1019.97 227.077 1019.77 226.571C1019.57 226.059 1019.27 225.662 1018.86 225.382C1018.45 225.095 1017.92 224.951 1017.28 224.951ZM1033.91 234.979L1031.91 228.438C1031.82 228.157 1031.73 227.884 1031.65 227.617C1031.58 227.344 1031.51 227.084 1031.44 226.838C1031.38 226.585 1031.32 226.353 1031.26 226.141C1031.21 225.922 1031.17 225.734 1031.14 225.577H1031.07C1031.04 225.734 1031 225.922 1030.96 226.141C1030.91 226.353 1030.85 226.585 1030.78 226.838C1030.72 227.091 1030.65 227.357 1030.58 227.638C1030.5 227.911 1030.42 228.188 1030.32 228.468L1028.23 234.979H1026.31L1023.21 223.741H1024.98L1026.6 229.945C1026.71 230.355 1026.81 230.762 1026.9 231.165C1027.01 231.562 1027.09 231.938 1027.16 232.293C1027.24 232.642 1027.29 232.946 1027.33 233.206H1027.41C1027.45 233.035 1027.49 232.83 1027.54 232.59C1027.6 232.351 1027.65 232.098 1027.71 231.832C1027.78 231.558 1027.85 231.288 1027.93 231.021C1028.01 230.748 1028.08 230.492 1028.16 230.252L1030.23 223.741H1032.06L1034.06 230.242C1034.16 230.57 1034.26 230.912 1034.36 231.268C1034.46 231.623 1034.55 231.968 1034.64 232.303C1034.72 232.631 1034.78 232.925 1034.81 233.185H1034.89C1034.92 232.953 1034.97 232.666 1035.05 232.324C1035.12 231.982 1035.21 231.606 1035.3 231.196C1035.41 230.786 1035.51 230.369 1035.62 229.945L1037.26 223.741H1038.99L1035.89 234.979H1033.91Z" fill="#B5D9FF" />
  <path d="M1448.62 198.484C1448.62 199.639 1448.48 200.692 1448.18 201.642C1447.89 202.585 1447.45 203.399 1446.87 204.083C1446.3 204.759 1445.58 205.282 1444.73 205.651C1443.87 206.021 1442.88 206.205 1441.75 206.205C1440.59 206.205 1439.58 206.021 1438.71 205.651C1437.85 205.282 1437.13 204.756 1436.55 204.072C1435.99 203.389 1435.56 202.572 1435.27 201.622C1434.99 200.671 1434.85 199.619 1434.85 198.463C1434.85 196.932 1435.1 195.589 1435.61 194.434C1436.12 193.278 1436.88 192.379 1437.91 191.737C1438.94 191.094 1440.23 190.773 1441.78 190.773C1443.27 190.773 1444.51 191.091 1445.53 191.727C1446.54 192.362 1447.31 193.258 1447.83 194.413C1448.36 195.562 1448.62 196.918 1448.62 198.484ZM1436.69 198.484C1436.69 199.755 1436.87 200.856 1437.23 201.786C1437.59 202.715 1438.15 203.433 1438.89 203.939C1439.64 204.445 1440.6 204.698 1441.75 204.698C1442.92 204.698 1443.87 204.445 1444.6 203.939C1445.35 203.433 1445.9 202.715 1446.25 201.786C1446.61 200.856 1446.79 199.755 1446.79 198.484C1446.79 196.549 1446.38 195.039 1445.57 193.952C1444.76 192.858 1443.5 192.311 1441.78 192.311C1440.62 192.311 1439.66 192.561 1438.91 193.06C1438.16 193.559 1437.6 194.27 1437.23 195.192C1436.87 196.108 1436.69 197.206 1436.69 198.484ZM1456.71 196.095H1453.91V206H1452.21V196.095H1450.22V195.274L1452.21 194.71V193.962C1452.21 193.019 1452.35 192.253 1452.63 191.665C1452.91 191.07 1453.32 190.633 1453.85 190.353C1454.39 190.072 1455.04 189.932 1455.8 189.932C1456.23 189.932 1456.62 189.97 1456.98 190.045C1457.34 190.12 1457.66 190.206 1457.93 190.301L1457.49 191.645C1457.26 191.569 1457 191.501 1456.7 191.439C1456.42 191.371 1456.12 191.337 1455.82 191.337C1455.17 191.337 1454.69 191.549 1454.38 191.973C1454.07 192.39 1453.91 193.046 1453.91 193.941V194.762H1456.71V196.095ZM1463.78 196.095H1460.98V206H1459.28V196.095H1457.29V195.274L1459.28 194.71V193.962C1459.28 193.019 1459.42 192.253 1459.7 191.665C1459.98 191.07 1460.38 190.633 1460.92 190.353C1461.45 190.072 1462.1 189.932 1462.87 189.932C1463.3 189.932 1463.69 189.97 1464.04 190.045C1464.41 190.12 1464.73 190.206 1465 190.301L1464.56 191.645C1464.33 191.569 1464.06 191.501 1463.77 191.439C1463.48 191.371 1463.19 191.337 1462.89 191.337C1462.24 191.337 1461.75 191.549 1461.44 191.973C1461.13 192.39 1460.98 193.046 1460.98 193.941V194.762H1463.78V196.095ZM1470.17 194.557C1471.12 194.557 1471.94 194.769 1472.63 195.192C1473.31 195.616 1473.83 196.211 1474.2 196.977C1474.56 197.735 1474.74 198.624 1474.74 199.643V200.699H1466.98C1467 202.018 1467.33 203.023 1467.96 203.713C1468.6 204.404 1469.49 204.749 1470.65 204.749C1471.36 204.749 1471.99 204.684 1472.54 204.554C1473.08 204.424 1473.65 204.233 1474.24 203.98V205.477C1473.67 205.73 1473.11 205.915 1472.55 206.031C1471.99 206.147 1471.34 206.205 1470.58 206.205C1469.5 206.205 1468.55 205.986 1467.75 205.549C1466.95 205.104 1466.32 204.455 1465.88 203.601C1465.44 202.746 1465.21 201.7 1465.21 200.463C1465.21 199.253 1465.42 198.207 1465.82 197.325C1466.23 196.437 1466.8 195.753 1467.54 195.274C1468.29 194.796 1469.16 194.557 1470.17 194.557ZM1470.15 195.951C1469.24 195.951 1468.51 196.249 1467.97 196.843C1467.43 197.438 1467.11 198.269 1467.01 199.335H1472.96C1472.95 198.665 1472.84 198.077 1472.64 197.571C1472.44 197.059 1472.14 196.662 1471.73 196.382C1471.31 196.095 1470.79 195.951 1470.15 195.951ZM1482.74 194.557C1482.96 194.557 1483.2 194.57 1483.45 194.598C1483.69 194.618 1483.91 194.649 1484.1 194.69L1483.89 196.269C1483.7 196.221 1483.5 196.184 1483.27 196.156C1483.05 196.129 1482.83 196.115 1482.64 196.115C1482.18 196.115 1481.76 196.208 1481.35 196.392C1480.96 196.57 1480.61 196.83 1480.31 197.171C1480.01 197.506 1479.77 197.913 1479.6 198.392C1479.43 198.863 1479.34 199.39 1479.34 199.971V206H1477.63V194.762H1479.05L1479.23 196.833H1479.3C1479.54 196.416 1479.82 196.037 1480.14 195.695C1480.47 195.346 1480.85 195.069 1481.28 194.864C1481.72 194.659 1482.2 194.557 1482.74 194.557Z" fill="#B5D9FF" />
</svg>