<svg width="1075" height="700" viewBox="0 0 1075 700" fill="none" xmlns="http://www.w3.org/2000/svg">
<path opacity="0.79" d="M215.273 544.944C223.938 546.335 233.113 543.488 242.116 541.908C289.225 533.659 331.312 563.09 377.646 564.123C404.437 564.72 432.005 555.807 459.185 552.223C491.303 547.99 522.744 551.217 554.347 552.329C695.601 557.311 842.503 519.486 983.814 441.755C996.898 434.556 1010.79 426.123 1019.92 409.562C1030.55 390.301 1031.95 364.185 1027.38 343.721C1020.78 314.16 1003.92 294.463 987.309 276.793C941.298 227.854 892.249 184.601 840.68 147.482C812.142 126.945 782.643 108.191 750.713 97.9358C660.211 68.867 555.239 111.743 467.092 194.997C423.171 236.484 382.715 287.548 337.638 325.451C308.181 350.223 220.385 413.286 196.745 450.253C179.6 477.061 164.281 536.763 215.273 544.944V544.944Z" fill="#FFDCC9"/>
<path d="M2.55641 514.056C18.0682 497.769 41.9412 489.548 62.7684 478.762C84.8989 467.302 105.184 453.668 124.674 439.416C144.271 425.085 163.127 410.092 182.665 395.709C202.321 381.239 222.821 367.56 243.985 354.583C327.968 303.105 420.975 262.796 511.181 219.288C533.526 208.51 555.73 197.532 577.612 186.132C599.493 174.733 621.023 162.429 643.227 151.212C665.479 139.968 688.889 129.703 714.123 123.693C739.295 117.694 765.598 116.607 791.404 120.411C842.459 127.935 888.048 151.571 928.058 177.513C967.725 203.232 1006.92 233.564 1028.16 271.83C1033.8 281.987 1037.95 292.948 1038.16 304.177C1038.37 315.831 1033.51 326.514 1025.46 336.018C1018.39 344.355 1009.67 351.632 1001.61 359.319C993.702 366.859 986.444 374.842 979.874 383.19C953.619 416.557 938.327 455.612 936.165 495.236C935.657 504.552 935.892 513.877 936.814 523.174C936.951 524.568 939.796 524.046 939.665 522.736C935.516 480.956 946.264 438.6 969.971 401.433C982.095 382.422 997.841 366.127 1015.04 350.063C1022.81 342.801 1030.43 335.185 1035.36 326.343C1040.32 317.433 1041.87 307.658 1040.56 297.963C1037.75 277.171 1024.01 257.853 1009.41 241.1C994.644 224.155 976.975 209.02 958.066 195.13C920.185 167.304 877.364 141.41 829.271 126.756C805.964 119.646 781.139 115.456 756.178 116.057C731.217 116.659 706.411 122.39 683.5 130.934C660.369 139.562 638.844 150.766 617.675 162.19C595.217 174.307 572.77 186.391 549.834 197.907C458.92 243.557 363.697 283.548 275.878 333.258C253.674 345.824 231.983 359.005 211.092 372.989C190.538 386.747 171.053 401.465 151.656 416.282C131.83 431.422 111.94 446.57 90.4925 460.192C80.0521 466.824 69.2553 473.09 57.9997 478.774C47.5348 484.055 36.616 488.716 26.3025 494.2C16.5356 499.394 7.49598 505.377 0.31603 512.921C-0.850529 514.148 1.51187 515.144 2.55153 514.052L2.55641 514.056Z" fill="#A7C8F9"/>
</svg>
