<svg width="54" height="71" viewBox="0 0 54 71" fill="none" xmlns="http://www.w3.org/2000/svg">
<path d="M51.489 5.90942H49.4088V1.602C49.4088 1.15571 49.2166 0.730248 48.882 0.435257C48.5454 0.139572 48.1019 0.00215201 47.6577 0.0597572L1.71567 5.90876H1.70317C0.845297 5.90876 0.148438 6.60562 0.148438 7.4635V68.7041C0.148438 69.562 0.845297 70.2589 1.70317 70.2589H10.5874C11.4453 70.2589 12.1421 69.562 12.1421 68.7041C12.1421 67.8462 11.4453 67.1494 10.5874 67.1494H3.25791L3.25722 9.02001H49.9331V67.1512H18.0796C17.2217 67.1512 16.5249 67.848 16.5249 68.7059C16.5249 69.5638 17.2217 70.2606 18.0796 70.2606H51.4896C52.3474 70.2606 53.0443 69.5638 53.0443 68.7059L53.045 7.46528C53.0443 6.60601 52.3481 5.91054 51.4896 5.91054L51.489 5.90942ZM46.3001 3.36694V5.90871L26.3355 5.90941L46.3001 3.36694Z" fill="#44376D"/>
<path d="M13.193 33.2528C13.6198 39.6724 18.5588 44.8661 24.8673 45.6824C25.1415 45.756 25.4219 45.8066 25.7169 45.8066C25.8182 45.8066 25.9161 45.7948 26.0112 45.7768C26.2069 45.7851 26.3999 45.8066 26.5984 45.8066C26.7969 45.8066 26.9891 45.7858 27.1856 45.7768C27.2813 45.7948 27.3792 45.8066 27.4798 45.8066C27.7755 45.8066 28.0552 45.7566 28.3294 45.6824C34.6372 44.8661 39.577 39.6724 40.0038 33.2528C40.0308 33.1376 40.0496 33.0189 40.0496 32.8954C40.0496 32.8329 40.0378 32.7746 40.0315 32.7149C40.0343 32.5942 40.0496 32.4769 40.0496 32.3568C40.0496 25.5284 34.9301 19.8843 28.3301 19.0305C28.0559 18.9569 27.7755 18.9062 27.4805 18.9062C27.3792 18.9062 27.2813 18.918 27.1862 18.9361C26.9905 18.9278 26.7975 18.9062 26.599 18.9062C26.4005 18.9062 26.2083 18.9271 26.0118 18.9361C25.9161 18.918 25.8182 18.9062 25.7176 18.9062C25.4219 18.9062 25.1422 18.9562 24.868 19.0305C18.2679 19.8842 13.1485 25.5284 13.1485 32.3568C13.1485 32.4783 13.1638 32.5956 13.1666 32.7149C13.1596 32.7746 13.1485 32.8329 13.1485 32.8954C13.1471 33.0182 13.1659 33.1376 13.1929 33.2528H13.193ZM16.4703 34.4494H19.8282C19.9837 36.8613 20.4085 39.1803 21.0921 41.0945C18.7579 39.6175 17.047 37.2409 16.4702 34.4494H16.4703ZM25.5468 22.0677C25.8918 22.033 26.2437 22.0149 26.5976 22.0149C26.9523 22.0149 27.3028 22.033 27.6485 22.0677C28.4453 22.4945 30.127 25.661 30.3102 31.34H22.8857C23.0689 25.6603 24.7499 22.4947 25.5468 22.0677H25.5468ZM30.2554 34.4494C29.9105 39.4509 28.3938 42.2446 27.6485 42.6437C27.3035 42.6784 26.9516 42.6964 26.5976 42.6964C26.2429 42.6964 25.8924 42.6784 25.5468 42.6437C24.8013 42.2446 23.2854 39.4509 22.9398 34.4494H30.2554ZM32.103 41.0939C32.7874 39.181 33.2114 36.8615 33.3669 34.4489H36.7248C36.148 37.2412 34.4371 39.6177 32.1029 41.0939H32.103ZM36.8866 31.34H33.4189C33.3329 28.5498 32.888 25.8151 32.103 23.6169C34.7329 25.2806 36.568 28.0868 36.8866 31.34H36.8866ZM21.0921 23.6169C20.3064 25.8143 19.8622 28.5491 19.7761 31.34H16.3084C16.627 28.0868 18.4622 25.2806 21.0921 23.6169H21.0921Z" fill="#44376D"/>
<path d="M34 53.6504C34 54.5083 34.6969 55.2052 35.5547 55.2052H41.5745C42.4324 55.2052 43.1292 54.5083 43.1292 53.6504C43.1292 52.7926 42.4324 52.0957 41.5745 52.0957H35.5547C34.6969 52.0957 34 52.7919 34 53.6504Z" fill="#44376D"/>
<path d="M10.1797 53.6504C10.1797 54.5083 10.8765 55.2052 11.7344 55.2052H29.2468C30.1047 55.2052 30.8015 54.5083 30.8015 53.6504C30.8015 52.7926 30.1047 52.0957 29.2468 52.0957H11.7344C10.8759 52.0957 10.1797 52.7919 10.1797 53.6504Z" fill="#44376D"/>
</svg>
