<svg viewBox="0 0 260 56" fill="none" xmlns="http://www.w3.org/2000/svg">
<path fill-rule="evenodd" clip-rule="evenodd" d="M231.362 0.333357C229.785 1.12358 230.439 3.51493 232.232 3.51493C233.063 3.51493 234.313 2.46959 234.313 1.77412C234.313 0.510092 232.639 -0.307021 231.362 0.333357ZM2.88909 0.717321C0.771879 1.66199 0.825654 0.931766 0.925662 27.3784C1.01321 50.5485 1.03452 51.2552 1.67162 52.3369C2.03231 52.9494 2.74384 53.7609 3.25306 54.1403C4.1728 54.8259 4.32232 54.8305 26.4172 54.8305C47.8837 54.8305 48.6795 54.8085 49.351 54.2013C49.7333 53.855 52.5689 48.6379 55.6518 42.6073L61.2575 31.6427L66.913 42.7414C73.022 54.7289 73.3519 55.1909 75.5766 54.8587C77.4873 54.5734 78.0824 53.6511 79.9091 48.1447C81.9037 42.1325 93.1151 11.9425 94.9821 7.55557C97.6052 1.39278 96.6262 0.235973 88.7865 0.235973C82.1424 0.235973 82.969 -0.708035 78.0185 12.532C75.7931 18.4833 73.845 23.6476 73.6899 24.0083C73.4611 24.5395 72.4967 22.845 68.6118 15.0837C64.5066 6.88339 63.6678 5.42688 62.7881 4.97209C61.5073 4.30974 59.8977 4.56255 58.9865 5.56919C58.6215 5.97217 54.533 13.7852 49.9012 22.9312C44.4358 33.7223 41.1812 39.7949 40.631 40.2277C39.8155 40.8694 39.3502 40.895 28.52 40.895H17.2571L16.1862 39.9385L15.1153 38.9821L14.9513 20.5999L14.7874 2.21777L13.8791 1.30884C12.9846 0.413364 12.9036 0.398608 8.46887 0.318274C5.07746 0.25663 3.70096 0.354998 2.88909 0.717321ZM107.491 0.746504L106.762 1.25671V27.6103C106.762 51.1309 106.817 54.0193 107.277 54.4793C107.968 55.1702 109.16 55.1309 109.826 54.3947C110.321 53.8475 110.369 51.5096 110.369 27.526V1.25671L109.64 0.746504C108.728 0.107438 108.402 0.107438 107.491 0.746504ZM125.851 0.74716C125.132 1.25146 125.124 1.34917 125.124 9.74C125.124 17.015 125.197 18.2967 125.639 18.7387C126.401 19.5004 136.307 19.5004 137.069 18.7387C137.656 18.1512 137.709 17.6649 137.263 16.9586C137.02 16.5723 136.036 16.4435 132.678 16.3589L128.403 16.2507L128.398 8.81731C128.395 4.72879 128.284 1.219 128.152 1.018C127.714 0.353687 126.601 0.222529 125.851 0.74716ZM200.711 0.883892C200.143 1.51148 200.22 1.79675 203.165 9.98297C204.837 14.6312 206.35 18.6187 206.528 18.844C206.953 19.3847 208.576 19.3686 209.123 18.8184C209.362 18.5791 210.575 15.5398 211.821 12.0644C213.172 8.29333 214.18 5.92397 214.32 6.18792C214.449 6.43089 215.481 9.28587 216.614 12.532C217.746 15.7782 218.9 18.6187 219.178 18.844C219.851 19.3903 221.04 19.3637 221.615 18.7892C221.87 18.5335 223.446 14.5417 225.116 9.91805C228.039 1.82331 228.13 1.48787 227.574 0.873727C226.826 0.0461219 225.946 0.0628441 225.348 0.916353C225.086 1.29048 223.877 4.47205 222.661 7.98642C221.445 11.5008 220.345 14.2561 220.216 14.1099C220.088 13.9633 218.978 10.9155 217.749 7.33654C215.917 1.99709 215.379 0.766505 214.751 0.480581C214.144 0.203839 213.857 0.24876 213.36 0.697975C213.016 1.00948 211.724 4.13006 210.49 7.63263C209.255 11.1352 208.152 14.0023 208.038 14.0043C207.924 14.0059 206.819 11.1054 205.582 7.55787C204.345 4.0107 203.136 0.912091 202.896 0.672072C202.272 0.0480889 201.39 0.133669 200.711 0.883892ZM248.002 0.590098C247.478 0.895368 247.428 1.68789 247.428 9.69574C247.428 18.8919 247.485 19.2594 248.888 19.2489C250.402 19.2375 250.538 18.8617 250.651 14.3554L250.759 10.0876L251.742 9.26029C253.087 8.12906 254.695 8.14447 255.602 9.29735C256.208 10.0679 256.282 10.6093 256.282 14.3141C256.282 18.702 256.451 19.2539 257.799 19.2539C259.273 19.2539 259.561 18.5027 259.561 14.6561C259.561 10.024 259.132 8.02708 257.919 7.00635C256.191 5.55214 252.894 5.61116 251.528 7.12045C251.201 7.48179 250.846 7.77788 250.739 7.77821C250.631 7.77854 250.59 6.38695 250.647 4.68518C250.74 1.9161 250.68 1.52033 250.074 0.91373C249.324 0.163836 248.859 0.0910432 248.002 0.590098ZM26.8536 1.05669C25.6217 1.91971 25.3453 3.45525 26.0539 5.50033C28.2301 11.7805 35.7942 31.0053 36.2972 31.5338C36.7897 32.0509 37.0766 32.1132 37.7976 31.8598C39.0649 31.4142 45.4015 20.33 45.4277 18.5135C45.4513 16.8743 39.7883 1.92987 38.8436 1.13768C38.2537 0.643217 37.4274 0.563867 32.8583 0.563867C28.6721 0.563867 27.4094 0.667481 26.8536 1.05669ZM238.969 2.59681C238.752 2.81322 238.575 3.69855 238.575 4.56419C238.575 6.13349 238.572 6.13808 237.468 6.13808C235.174 6.13808 234.946 8.0825 237.182 8.57827L238.575 8.88715V12.7147C238.575 16.1444 238.649 16.6363 239.286 17.4459C241.075 19.7198 245.828 19.9267 245.402 17.7121C245.321 17.2934 244.884 17.0684 243.893 16.9356C243.125 16.833 242.316 16.5678 242.094 16.3464C241.839 16.0923 241.649 14.6201 241.579 12.3527L241.468 8.76124L242.563 8.75665C244.254 8.74976 245.092 8.42515 245.326 7.68509C245.625 6.74567 244.687 6.13808 242.939 6.13808H241.526V4.56419C241.526 2.85323 241.12 2.20334 240.051 2.20334C239.672 2.20334 239.185 2.3804 238.969 2.59681ZM143.073 6.26596C140.253 7.30178 138.961 9.30522 138.927 12.696C138.884 17.0999 141.667 19.5424 146.305 19.1699C148.863 18.9647 150.495 18.0944 150.64 16.8586C150.783 15.6342 150.141 15.489 148.115 16.2874C147.179 16.6566 146.012 16.9579 145.523 16.9573C144.133 16.9553 142.567 15.8257 142.247 14.5938L141.967 13.5157L145.596 13.435C150.733 13.3209 150.701 13.3334 150.694 11.4601C150.688 9.57507 149.636 7.55951 148.24 6.75616C146.828 5.94331 144.542 5.72658 143.073 6.26596ZM157.036 6.1371C154.826 6.5991 153.651 7.34605 153.651 8.28809C153.651 9.41211 154.431 9.61934 156.232 8.97404C158.535 8.14873 160.401 8.2494 161.046 9.23406C161.334 9.67443 161.522 10.3755 161.463 10.7916C161.363 11.4962 161.164 11.5615 158.568 11.7395C154.495 12.0185 153.352 12.7852 153.333 15.2486C153.315 17.7436 154.956 19.2539 157.687 19.2539C158.665 19.2539 159.502 19.004 160.27 18.4827L161.406 17.7114L161.709 18.4007C162.061 19.2014 163.311 19.4801 163.997 18.9109C164.369 18.6023 164.471 17.5311 164.471 13.9351C164.471 8.856 164.154 7.65689 162.563 6.71747C161.412 6.03709 158.818 5.76461 157.036 6.1371ZM184.015 6.27941C183.312 6.53811 182.511 6.97553 182.235 7.25128C181.785 7.70148 181.697 7.67853 181.374 7.02733C181.159 6.59418 180.646 6.2594 180.101 6.19645C178.351 5.99414 178.243 6.3581 178.243 12.4297C178.243 15.6323 178.386 18.2541 178.582 18.6197C178.971 19.3463 180.59 19.489 181.125 18.844C181.312 18.6187 181.515 16.5396 181.575 14.2243C181.684 10.0771 181.699 10.0026 182.606 9.2239C183.762 8.23038 185.52 8.16873 186.44 9.08913C187.026 9.67541 187.096 10.182 187.096 13.8652C187.096 16.1313 187.249 18.2708 187.435 18.6197C187.82 19.3385 189.358 19.4837 189.981 18.8604C190.509 18.3331 190.481 9.98888 189.947 8.46417C189.2 6.33416 186.534 5.35245 184.015 6.27941ZM168.486 6.5168C167.919 7.08406 167.905 18.2944 168.471 18.8604C169.095 19.4837 170.633 19.3385 171.018 18.6197C171.204 18.2708 171.357 16.3727 171.357 14.4014C171.357 10.2132 171.802 9.25865 173.912 8.91666C176.095 8.56253 176.657 8.19595 176.543 7.20112C176.453 6.42433 176.275 6.28826 175.229 6.20137C173.929 6.09316 172.093 6.85748 171.797 7.63066C171.503 8.39564 171.081 8.17791 170.969 7.20374C170.884 6.46991 170.682 6.284 169.88 6.2053C169.338 6.15218 168.711 6.29219 168.486 6.5168ZM231.099 6.53156C230.823 6.80764 230.706 8.64451 230.706 12.696C230.706 16.7474 230.823 18.5843 231.099 18.8604C231.723 19.4837 233.261 19.3385 233.645 18.6197C234.142 17.6911 234.095 7.03487 233.591 6.53156C233.375 6.31515 232.814 6.13808 232.345 6.13808C231.876 6.13808 231.316 6.31515 231.099 6.53156ZM147.141 9.08684C147.778 9.72361 148.086 10.3286 148.017 10.8083C147.92 11.4956 147.727 11.5552 145.318 11.6451C141.976 11.7697 141.774 11.6897 142.219 10.4135C143.034 8.07397 145.471 7.4172 147.141 9.08684ZM161.52 14.1656C161.52 14.5922 161.138 15.3949 160.671 15.9497C159.584 17.2426 157.594 17.3858 156.784 16.2297C155.634 14.5873 156.454 13.6029 159.193 13.339C161.393 13.1272 161.52 13.1721 161.52 14.1656ZM126.864 25.1592C125.103 25.8685 125.095 25.9455 125.195 40.3533L125.288 53.6652L126.027 54.4042C127.14 55.5161 129.209 55.4312 130.241 54.2311L131.026 53.3183V44.6474C131.026 39.8785 131.138 35.9766 131.275 35.9766C131.412 35.9766 131.688 36.2346 131.889 36.5504C132.09 36.8662 135.308 41.0344 139.041 45.8134C143.76 51.8542 146.133 54.6328 146.828 54.9299C148.131 55.486 149.54 55.1574 150.368 54.1052C151.004 53.2963 151.027 52.7966 151.027 40.0494V26.8322L150.242 25.9193C149.615 25.1901 149.18 25.0068 148.076 25.0068C146.972 25.0068 146.538 25.1901 145.91 25.9193C145.126 26.8315 145.125 26.8367 145.125 35.3664C145.125 40.8884 145.01 43.8621 144.799 43.7913C144.619 43.7313 141.285 39.6244 137.39 34.665C129.688 24.8576 129.048 24.2795 126.864 25.1592ZM158.658 33.9089C158.255 33.9882 157.616 34.4473 157.237 34.9293C156.576 35.769 156.553 36.0953 156.665 42.8588C156.793 50.5282 157 51.5457 158.823 53.4491C159.991 54.6689 162.753 55.4561 165.036 55.2204C166.88 55.0302 169.496 53.7491 169.833 52.872C170.143 52.0628 170.604 52.2952 170.819 53.3694C170.97 54.1239 171.311 54.4902 172.218 54.8689C173.609 55.4502 174.801 55.2502 175.865 54.2574C176.596 53.5753 176.603 53.4786 176.603 44.5871C176.603 39.1263 176.472 35.3614 176.27 34.9824C175.752 34.0141 173.595 33.5593 172.229 34.1302C171.613 34.3876 170.98 34.7975 170.823 35.0414C170.666 35.2854 170.463 38.3368 170.373 41.8226L170.209 48.1605L168.985 49.2822C167.414 50.7204 165.36 50.8548 163.916 49.6134L162.996 48.8228L162.832 42.0797C162.681 35.8861 162.614 35.2854 162.012 34.705C161.306 34.0253 159.837 33.6764 158.658 33.9089ZM183.597 34.1594C183.025 34.4079 182.398 34.909 182.203 35.2726C181.976 35.6975 181.85 39.0352 181.85 44.6258C181.85 53.2533 181.855 53.3251 182.613 54.2055C183.675 55.4404 186.002 55.5201 187.233 54.3636C188.075 53.573 188.08 53.5399 188.08 48.2975C188.081 40.9658 188.707 39.8746 193.31 39.1913C196.172 38.7666 196.933 38.1712 196.933 36.3553C196.933 34.5689 196.027 33.8249 193.96 33.9138C191.954 34.0004 190.073 34.9493 188.767 36.5337L187.752 37.7656V36.6855C187.752 35.1949 187.289 34.4686 186.07 34.0436C184.809 33.6043 184.881 33.601 183.597 34.1594ZM203.818 34.1873C200.261 35.1824 198.244 37.4298 198.244 40.3982C198.244 42.3548 198.935 43.8083 200.308 44.7425C200.9 45.1455 203.134 45.92 205.273 46.464C209.528 47.5457 210.048 47.8168 210.048 48.9501C210.048 50.8794 205.943 51.3886 202.343 49.9059C198.93 48.4999 197.588 48.9163 197.588 51.3817C197.588 53.4806 200.374 54.8974 205.13 55.2178C211.564 55.6512 215.618 53.1445 215.621 48.731C215.624 45.3235 213.782 43.77 208.362 42.6076C205.047 41.8967 203.818 41.2147 203.818 40.0864C203.818 38.1751 207.234 37.6551 210.327 39.0949C211.292 39.5437 212.565 39.9113 213.156 39.9113C214.049 39.9113 214.303 39.7392 214.652 38.8968C215.211 37.5465 214.774 36.3684 213.362 35.4162C211.104 33.8951 206.831 33.3446 203.818 34.1873ZM225.951 34.1191C222.869 35.1431 220.756 36.9868 219.5 39.7474C218.893 41.0816 218.753 41.9669 218.749 44.5018C218.745 47.1732 218.865 47.8739 219.591 49.4203C221.126 52.6874 223.464 54.3826 227.356 55.0502C230.21 55.5394 233.342 55.0741 235.912 53.779C238.013 52.7202 238.578 51.6703 237.853 50.1695C237.476 49.3878 237.225 49.2606 236.109 49.2855C235.391 49.3019 233.96 49.6337 232.927 50.0233C230.632 50.8895 228.602 50.9276 227.119 50.1328C225.921 49.4898 224.804 47.765 224.804 46.5564V45.8134H231.01C238.442 45.8134 238.417 45.8242 238.168 42.7171C237.865 38.9443 235.737 35.6913 232.757 34.4463C231.123 33.7639 227.539 33.5915 225.951 34.1191ZM247.428 34.1804C243.737 35.1988 241.854 37.3367 241.854 40.5114C241.854 43.8582 243.235 45.0278 248.883 46.464C251.022 47.0076 252.978 47.6244 253.232 47.8346C253.935 48.4182 253.616 49.8357 252.675 50.3095C251.313 50.9951 248.332 50.8197 245.921 49.9121C243.273 48.9153 242.001 48.8615 241.538 49.7265C241.049 50.6403 241.12 52.1139 241.693 52.9317C243.007 54.8079 249.669 55.8814 253.658 54.86C257.513 53.8731 259.361 51.6817 259.147 48.3503C258.937 45.0612 257.236 43.7333 251.72 42.5479C248.439 41.8426 247.428 41.2531 247.428 40.0431C247.428 38.159 250.792 37.6843 253.985 39.1175C256.283 40.1487 257.554 40.0739 258.228 38.868C260.029 35.6448 253.07 32.6238 247.428 34.1804ZM231.55 39.0099C232.42 39.8064 232.761 40.4274 232.9 41.4691L233.087 42.8624H228.965C226.698 42.8624 224.774 42.7512 224.69 42.6155C224.452 42.2308 225.33 39.9425 226.002 39.1952C227.459 37.5744 229.896 37.4931 231.55 39.0099Z" fill="white"/>
</svg>
