<svg width="53" height="68" viewBox="0 0 53 68" fill="none" xmlns="http://www.w3.org/2000/svg">
<path d="M52.25 0.505859V67.3431H0.350296V0.505859H52.25ZM1.9803 65.7154H50.62V2.13817H1.9803V65.7154Z" fill="#44376D"/>
<path d="M41.2422 22.6758H11.3649V24.3059H41.2422V22.6758Z" fill="#44376D"/>
<path d="M41.2422 33.1094H11.3649V34.7395H41.2422V33.1094Z" fill="#44376D"/>
<path d="M41.2422 43.541H11.3649V45.172H41.2422V43.541Z" fill="#44376D"/>
<path d="M18.8005 20.1944L13.8121 16.456L8.82543 20.1944L10.7302 14.1433L5.78415 10.4393H11.8984L13.814 4.35938L15.7313 10.4393H21.8438L16.9005 14.1433L18.8005 20.1944ZM16.9471 12.0684H14.5344L13.8121 9.78084L13.0916 12.0684H10.677L12.6295 13.53L11.8991 15.8498L13.812 14.4179L15.7249 15.8498L14.9945 13.53L16.9471 12.0684Z" fill="#44376D"/>
</svg>
