<svg width="485" height="238" viewBox="0 0 485 238" fill="none" xmlns="http://www.w3.org/2000/svg">
<path d="M265.306 130.228C262.141 128.751 258.317 129.191 255.97 132.067C249.588 139.893 252.172 152.33 251.856 161.736C251.539 170.52 250.01 179.641 247.188 187.984C244.972 194.54 241.544 201.717 236.506 206.2C231.363 210.786 225.482 212.911 219.6 211.278C206.414 207.625 198.053 190.653 194.493 177.723C189.64 160 189.112 141.007 188.374 122.791C187.899 111.131 188.057 99.4708 187.926 87.7848C187.873 82.3175 187.846 76.8243 187.794 71.357C187.715 65.5269 188.137 59.4637 185.183 54.2296C183.257 50.8352 178.141 50.7834 175.767 53.8668C168.699 63.1172 168.462 77.213 167.143 88.3289C165.719 100.222 165.455 112.323 165.139 124.294C164.585 146.241 164.426 168.732 170.677 190.005C176.295 209.102 189.402 228.95 210.396 233.64C234.37 239.004 256.128 222.835 265.913 202.313C271.109 191.404 273.931 179.097 274.854 167.151C275.355 160.518 274.906 134.788 265.306 130.305V130.228Z" fill="#44376D"/>
<path d="M270.845 74.829C259.056 71.2533 239.75 77.8348 239.856 91.7492C239.961 105.612 255.997 105.975 265.861 102.269C274.458 99.0303 285.43 89.4949 280.076 79.5449C278.362 76.3578 274.511 74.6217 270.845 74.8549V74.829Z" fill="#44376D"/>
<path d="M482.944 88.8472C480.464 85.3233 474.425 83.2504 470.31 82.2139C465.748 81.0738 461.185 80.2187 456.543 79.6487C453.537 79.2859 450.556 78.9491 447.55 78.6641C446.785 75.0624 445.915 71.4348 444.807 67.9627C443.277 63.1172 441.695 58.9973 439.084 53.7632C436.13 47.8036 426.24 51.3794 426.53 57.624C426.82 63.6873 427.136 67.0298 427.453 70.5279C427.664 72.7563 427.69 75.0105 427.928 77.2648C419.462 76.8762 410.996 76.5652 402.53 77.0316C397.756 77.2907 393.272 78.0681 388.631 79.1045C384.2 80.0892 379.347 81.022 376.446 84.805C375.576 85.9192 374.89 87.733 375.707 89.0545C376.156 89.78 377.659 91.3347 379.743 92.3712C386.125 95.5842 394.037 96.7761 398.864 97.1648C407.488 97.8903 416.139 98.3308 424.763 99.0304C426.424 99.1599 428.086 99.3154 429.747 99.4709C429.906 102.166 430.038 104.86 430.117 107.555C430.354 117.376 429.958 127.248 429.141 137.068C428.693 142.484 428.112 147.873 427.427 153.237C423.892 181.299 422.389 187.518 420.965 192.285C417.827 202.624 415.532 206.433 409.598 211.563C408.49 212.626 406.459 213.74 404.349 214.621C400.552 216.202 396.305 216.59 392.349 215.502C389.712 214.802 386.257 213.015 384.094 209.516C380.798 204.179 379.426 200.784 377.976 194.851C376.077 187.259 374.995 179.485 374.02 171.738C372.015 155.958 370.38 139.919 364.499 124.994C361.65 117.738 356.428 111.727 347.909 111.546C338.441 111.364 331.584 118.049 326.204 124.916C322.01 130.28 318.634 136.032 315.812 142.069C315.18 137.846 314.125 133.829 311.804 129.865C308.56 124.294 299.408 124.994 296.665 131.005C292.63 139.789 293.579 145.697 293.263 154.714C293.025 161.036 293.026 167.359 293.131 173.681C293.342 187.31 293.342 198.608 293.184 212.289C293.078 221.177 299.171 223.457 303.812 223.69C309.114 223.949 315.496 220.814 317.527 215.813C327.602 191.145 326.731 160.803 341.474 137.923C341.896 137.25 342.951 135.85 343.558 137.094C344.27 138.83 344.956 140.592 345.457 142.38C346.485 146.06 347.224 149.817 347.883 153.574C350.652 169.25 351.417 185.263 355.452 200.733C359.356 215.58 366.635 230.842 383.25 234.858C396.042 237.941 409.756 235.765 420.385 227.991C440.983 212.911 444.807 185.367 448.209 162.202C450.767 144.79 451.216 129.243 451.137 109.68C451.137 106.933 450.873 104.161 450.688 101.388C455.066 101.829 459.392 102.114 463.796 102.192C468.754 102.269 475.137 102.192 479.515 99.6782C483.761 97.2684 486.082 93.2003 482.996 88.8213L482.944 88.8472Z" fill="#44376D"/>
<path d="M134.545 29.1217C141.877 26.8933 149.182 24.6131 156.514 22.3329C164.057 19.975 171.996 17.9798 178.405 13.238C184.26 8.91082 181.859 0.904203 174.739 0.152773C167.248 -0.624568 159.547 1.73337 152.294 3.41761C144.989 5.10185 137.683 6.78609 130.378 8.4185C116.03 11.6315 101.789 15.285 87.4675 18.6017C73.1201 21.9442 58.8519 25.4682 44.5309 28.8626C30.2626 32.2311 12.4076 33.1898 2.46462 44.4094C-1.41234 48.7884 -0.515626 54.9553 3.75694 57.391C11.6427 61.8996 33.5594 55.6031 47.1419 52.3383C58.8519 49.5139 70.5883 46.6896 82.2455 43.6321C80.2147 47.1301 78.7641 50.7059 77.4191 54.5667C74.7289 62.2364 73.252 70.4503 72.408 78.5088C71.6168 85.9194 71.0102 93.356 70.5619 100.818C64.0739 102.01 57.5859 103.306 51.2826 105.068C46.4298 106.415 37.5155 109.706 33.4803 112.219C29.2341 114.862 27.7835 117.816 28.1527 122.273C29.0494 132.508 46.9045 130.15 53.9727 129.217C59.2211 128.518 64.4959 127.3 69.7179 125.953C69.7179 128.025 69.7179 130.124 69.7179 132.197C69.8762 149.817 70.9575 167.463 73.3839 184.901C74.5971 193.659 76.5751 202.624 78.8696 211.201C80.6367 217.782 85.5158 230.557 89.7884 235.584C94.3247 240.947 102.105 236.465 104.347 231.049C106.325 226.255 105.771 213.481 105.454 204.904C105.138 196.38 104.294 187.829 103.45 179.356C101.789 162.747 100.285 146.112 99.5995 129.425C99.4412 125.667 99.3094 121.936 99.1511 118.179C103.213 117.065 107.274 115.951 111.309 114.811C121.2 111.986 132.092 109.447 140.69 103.669C146.176 99.9893 143.591 94.1333 139.213 92.2677C137.868 91.7236 136.18 91.6977 135.468 91.6199C126.659 90.8685 117.639 92.6823 109.015 94.0556C105.534 94.5997 102.079 95.1698 98.6236 95.7657C98.5709 90.5057 98.6236 85.2457 98.7555 79.9857C98.9665 72.7305 99.5467 65.6049 100.206 58.3756C100.575 54.3853 101.05 50.2913 101.657 46.3268C101.841 45.109 102.369 39.8749 102.659 38.1907C113.34 35.3145 123.995 32.3606 134.545 29.1476V29.1217Z" fill="#44376D"/>
</svg>
