<svg width="465" height="228" viewBox="0 0 465 228" fill="none" xmlns="http://www.w3.org/2000/svg">
<path d="M254.515 124.756C251.482 123.341 247.816 123.763 245.567 126.519C239.449 134.015 241.926 145.93 241.623 154.941C241.32 163.356 239.854 172.093 237.149 180.086C235.025 186.366 231.739 193.242 226.911 197.536C221.982 201.93 216.345 203.966 210.708 202.402C198.068 198.902 190.055 182.643 186.643 170.256C181.991 153.278 181.486 135.083 180.778 117.632C180.323 106.462 180.475 95.2919 180.348 84.0969C180.298 78.8593 180.272 73.5969 180.222 68.3593C180.146 62.7742 180.55 56.9657 177.719 51.9515C175.874 48.6997 170.97 48.6501 168.695 51.604C161.92 60.4657 161.693 73.9692 160.429 84.6181C159.064 96.0117 158.811 107.604 158.508 119.072C157.977 140.097 157.825 161.643 163.816 182.022C169.2 200.317 181.764 219.331 201.885 223.824C224.864 228.962 245.718 213.473 255.097 193.813C260.076 183.363 262.781 171.572 263.666 160.129C264.146 153.774 263.717 129.125 254.515 124.831V124.756Z" fill="#F9F1ED"/>
<path d="M259.823 71.6849C248.524 68.2594 230.02 74.5643 230.121 87.8941C230.222 101.174 245.592 101.522 255.046 97.9721C263.287 94.8693 273.802 85.7345 268.671 76.2026C267.028 73.1494 263.337 71.4863 259.823 71.7097V71.6849Z" fill="#F9F1ED"/>
<path d="M463.113 85.1137C460.737 81.7378 454.948 79.752 451.004 78.7591C446.631 77.6669 442.258 76.8477 437.809 76.3016C434.927 75.9541 432.071 75.6314 429.189 75.3584C428.456 71.908 427.622 68.4329 426.56 65.1066C425.094 60.4648 423.577 56.518 421.075 51.5038C418.244 45.7946 408.764 49.2201 409.042 55.2024C409.32 61.0109 409.624 64.213 409.927 67.5641C410.129 69.6988 410.154 71.8584 410.382 74.018C402.268 73.6456 394.153 73.3477 386.039 73.7946C381.463 74.0428 377.166 74.7875 372.717 75.7804C368.47 76.7236 363.819 77.6172 361.038 81.2414C360.204 82.3087 359.547 84.0463 360.331 85.3123C360.76 86.0073 362.201 87.4967 364.198 88.4896C370.316 91.5676 377.899 92.7094 382.525 93.0818C390.791 93.7768 399.083 94.1988 407.349 94.869C408.941 94.9931 410.534 95.142 412.126 95.291C412.278 97.8725 412.404 100.454 412.48 103.036C412.708 112.443 412.328 121.901 411.545 131.309C411.115 136.497 410.559 141.66 409.902 146.798C406.514 173.681 405.073 179.638 403.708 184.206C400.7 194.11 398.501 197.759 392.813 202.674C391.752 203.692 389.805 204.759 387.783 205.603C384.143 207.117 380.073 207.489 376.281 206.447C373.753 205.777 370.442 204.064 368.369 200.713C365.209 195.599 363.895 192.348 362.505 186.663C360.685 179.39 359.648 171.943 358.713 164.521C356.792 149.404 355.224 134.039 349.587 119.741C346.857 112.791 341.852 107.032 333.687 106.858C324.612 106.685 318.04 113.089 312.883 119.667C308.864 124.805 305.628 130.316 302.923 136.099C302.317 132.053 301.305 128.206 299.081 124.408C295.972 119.071 287.2 119.741 284.571 125.5C280.704 133.915 281.614 139.575 281.31 148.213C281.083 154.27 281.083 160.326 281.184 166.383C281.386 179.44 281.386 190.262 281.234 203.369C281.133 211.883 286.973 214.067 291.422 214.291C296.503 214.539 302.62 211.535 304.566 206.745C314.223 183.114 313.389 154.046 327.519 132.128C327.924 131.482 328.935 130.142 329.516 131.333C330.199 132.997 330.856 134.685 331.336 136.397C332.322 139.922 333.03 143.521 333.662 147.121C336.316 162.138 337.049 177.479 340.917 192.298C344.658 206.521 351.635 221.142 367.56 224.989C379.82 227.943 392.965 225.858 403.152 218.411C422.895 203.965 426.56 177.578 429.821 155.387C432.273 138.706 432.703 123.812 432.627 105.071C432.627 102.44 432.374 99.7839 432.197 97.1279C436.393 97.5498 440.539 97.8229 444.761 97.8974C449.513 97.9718 455.63 97.8974 459.827 95.4896C463.896 93.1811 466.121 89.2839 463.163 85.0889L463.113 85.1137Z" fill="#F9F1ED"/>
<path d="M129.184 27.8981C136.212 25.7633 143.214 23.5789 150.241 21.3946C157.471 19.1357 165.08 17.2243 171.222 12.6818C176.834 8.53642 174.534 0.866212 167.709 0.146354C160.529 -0.598325 153.148 1.66054 146.197 3.27401C139.194 4.88748 132.192 6.50096 125.19 8.06478C111.439 11.1428 97.7884 14.6428 84.0622 17.8201C70.3107 21.0222 56.6351 24.3981 42.9089 27.6499C29.2333 30.8768 12.1198 31.7952 2.58979 42.5435C-1.12614 46.7385 -0.266671 52.6463 3.82844 54.9796C11.3867 59.2988 32.3931 53.2669 45.4115 50.1392C56.6351 47.4335 67.884 44.7279 79.0571 41.7988C77.1106 45.1498 75.7203 48.5754 74.4311 52.2739C71.8527 59.6215 70.4371 67.4902 69.6282 75.2101C68.8699 82.3094 68.2885 89.4335 67.8587 96.5824C61.6402 97.7242 55.4217 98.9654 49.3802 100.653C44.729 101.944 36.1848 105.097 32.3172 107.504C28.2474 110.036 26.8571 112.866 27.211 117.136C28.0705 126.941 45.184 124.682 51.9586 123.788C56.989 123.118 62.0447 121.951 67.0498 120.66C67.0498 122.646 67.0498 124.657 67.0498 126.643C67.2015 143.522 68.2379 160.426 70.5635 177.132C71.7263 185.522 73.6222 194.111 75.8214 202.327C77.5151 208.632 82.1916 220.869 86.2867 225.685C90.6346 230.823 98.0917 226.529 100.24 221.341C102.136 216.749 101.605 204.511 101.302 196.295C100.999 188.128 100.19 179.937 99.3809 171.82C97.7884 155.909 96.3475 139.972 95.6903 123.987C95.5386 120.387 95.4122 116.813 95.2606 113.214C99.1534 112.146 103.046 111.079 106.914 109.987C116.393 107.281 126.833 104.848 135.074 99.3129C140.332 95.7881 137.855 90.1782 133.659 88.3909C132.369 87.8696 130.751 87.8448 130.069 87.7704C121.626 87.0505 112.981 88.7881 104.715 90.1037C101.378 90.625 98.0665 91.1711 94.755 91.742C94.7044 86.703 94.755 81.664 94.8814 76.625C95.0836 69.6746 95.6397 62.8484 96.2717 55.9229C96.6256 52.1002 97.0806 48.1782 97.662 44.3803C97.839 43.2137 98.3445 38.1995 98.6226 36.586C108.86 33.8307 119.073 31.0009 129.184 27.9229V27.8981Z" fill="#F9F1ED"/>
</svg>
