<svg width="131" height="41" viewBox="0 0 131 41" fill="none" xmlns="http://www.w3.org/2000/svg">
  <path d="M0 39.8H4.65V23.35H18.65V19.45H4.65V7.05H21.15V3.1H0V39.8Z" fill="white" />
  <path d="M31.9879 40.45C33.2379 40.45 33.9879 40.3 34.6379 40.05L33.9879 36.55C33.4879 36.65 33.2879 36.65 33.0379 36.65C32.3379 36.65 31.7379 36.1 31.7379 34.7V0H27.1879V34.4C27.1879 38.25 28.5879 40.45 31.9879 40.45Z" fill="white" />
  <path d="M41.4457 39.8H45.9957V12.65H41.4457V39.8ZM43.7457 7.05C45.5457 7.05 46.7957 5.85 46.7957 4C46.7957 2.25 45.5457 1.05 43.7457 1.05C41.9457 1.05 40.6957 2.25 40.6957 4C40.6957 5.85 41.9457 7.05 43.7457 7.05Z" fill="white" />
  <path d="M55.2152 39.8H59.7652V20.1C62.5152 17.35 64.4152 15.95 67.2152 15.95C70.8152 15.95 72.3652 18.1 72.3652 23.2V39.8H76.9152V22.6C76.9152 15.65 74.3152 11.95 68.6152 11.95C64.9152 11.95 62.1152 14 59.5152 16.55H59.3652L58.9652 12.65H55.2152V39.8Z" fill="white" />
  <path d="M94.3316 40.45C95.9816 40.45 97.7816 39.95 99.3316 39.45L98.4316 36.05C97.5316 36.4 96.2816 36.75 95.3316 36.75C92.1816 36.75 91.1316 34.85 91.1316 31.5V16.35H98.4816V12.65H91.1316V5H87.3316L86.7816 12.65L82.5316 12.9V16.35H86.5816V31.4C86.5816 36.8 88.5316 40.45 94.3316 40.45Z" fill="white" />
  <path d="M112.318 32.3307C113.014 33.3274 113.891 34.2746 114.95 35.1709C116.009 36.0672 117.079 36.8401 118.161 37.4893C119.244 38.1388 120.48 38.78 121.871 39.4142L121.848 39.3909L121.941 39.4142C120.905 37.4354 120.387 35.7045 120.387 34.2204C120.387 33.4319 120.577 32.686 120.956 31.9831C121.334 31.2794 121.829 30.6491 122.44 30.0932C123.05 29.5368 123.727 28.9804 124.468 28.4239C125.21 27.867 125.952 27.2681 126.694 26.6269C127.436 25.9855 128.113 25.3051 128.723 24.5864C129.334 23.8675 129.828 22.998 130.207 21.9778C130.586 20.9575 130.775 19.8444 130.775 18.639C130.775 17.1241 130.563 15.702 130.138 14.3726C129.713 13.0433 129.152 11.8799 128.457 10.883C127.762 9.88615 126.885 8.93921 125.825 8.04302C124.766 7.14644 123.696 6.37354 122.614 5.72448C121.532 5.07527 120.295 4.43377 118.904 3.79999L118.927 3.82338L118.858 3.79999C119.878 5.80927 120.388 7.54072 120.388 8.99354C120.388 9.78187 120.198 10.5278 119.82 11.2309C119.441 11.9342 118.946 12.5641 118.336 13.1207C117.725 13.6771 117.049 14.2335 116.307 14.7902C115.565 15.3466 114.823 15.9457 114.081 16.5871C113.339 17.2285 112.663 17.9087 112.052 18.6273C111.441 19.3462 110.947 20.2157 110.568 21.2359C110.19 22.2561 110 23.3692 110 24.5747C110 26.0896 110.212 27.5117 110.637 28.841C111.062 30.1704 111.623 31.3341 112.318 32.3307Z" fill="white" />
</svg>