<svg viewBox="0 0 264 65" fill="none" xmlns="http://www.w3.org/2000/svg">
<path d="M148.862 16.1609L136.924 41.677L124.987 16.1609H119.018L114.318 53.7635H121.331L124.315 28.6951L134.164 49.5855H139.759L149.608 28.6951L152.592 53.7635H159.531L154.979 16.0863H148.862V16.1609ZM172.289 27.6506C165.052 27.6506 159.083 32.8732 159.083 40.9309C159.083 48.9886 165.052 54.3604 172.289 54.3604C177.064 54.3604 181.988 52.5698 184.226 48.1679L179.153 45.4074C177.959 47.6456 175.348 48.6902 172.736 48.6902C169.006 48.6902 166.171 46.6011 165.723 43.2438H185.121C185.27 42.6469 185.27 41.6024 185.27 40.9309C185.27 32.8732 179.6 27.6506 172.289 27.6506V27.6506ZM165.574 38.6926C166.171 35.2607 168.857 33.2462 172.363 33.2462C175.646 33.2462 178.332 35.186 178.78 38.6926H165.648H165.574ZM247.792 52.2714L234.214 16.0863H226.678L213.249 51.8237V14.3703H206.683V31.6795C205.191 29.1428 201.983 27.7252 198.625 27.7252C191.911 27.7252 186.091 32.9478 186.091 41.1547C186.091 49.2124 191.911 54.435 198.625 54.435C201.908 54.435 205.191 52.9428 206.683 50.4062V53.8381H219.963L223.395 44.7359H237.496L240.928 53.8381H254.432V14.3703H247.718V52.346L247.792 52.2714ZM199.595 48.0187C195.865 48.0187 192.881 45.1836 192.881 41.0055C192.839 40.1058 192.984 39.2073 193.305 38.3658C193.626 37.5243 194.116 36.7578 194.746 36.114C195.376 35.4702 196.131 34.9628 196.965 34.6235C197.8 34.2842 198.695 34.1201 199.595 34.1415C201.436 34.1415 203.2 34.8726 204.502 36.1738C205.803 37.475 206.534 39.2399 206.534 41.0801C206.534 42.9203 205.803 44.6852 204.502 45.9864C203.2 47.2877 201.436 48.0187 199.595 48.0187V48.0187ZM225.708 38.618L230.334 24.2186L235.109 38.618H225.708ZM257.118 14.3703V53.9128H263.833V14.3703H257.118V14.3703Z" fill="white"/>
<path d="M46.9467 22.1297L46.4991 23.0996L36.0539 43.2439L32.9203 49.3618L29.2645 56.375C27.3946 59.9763 24.1707 62.6872 20.302 63.9115C16.4332 65.1358 12.2366 64.7731 8.63531 62.9032C5.03401 61.0333 2.32302 57.8093 1.09874 53.9406C-0.125539 50.0719 0.237169 45.8753 2.10708 42.274L19.267 9.22244V8.99861C19.5215 8.47615 19.8211 7.97687 20.1623 7.50644L20.3861 7.1334L20.9084 6.46193L21.4307 5.86506L21.8037 5.49202L22.1767 5.04437C22.326 5.04437 22.4006 4.89515 22.4752 4.82054C22.7576 4.55328 23.0567 4.30409 23.3705 4.07446C23.7078 3.8109 24.0563 3.56197 24.415 3.32837L24.8626 3.02994C25.2254 2.7894 25.5988 2.56535 25.9818 2.35846L26.5786 2.06003C27.7524 1.57078 28.9793 1.22023 30.2344 1.01551L30.8313 0.940904C31.2988 0.851238 31.773 0.801321 32.2489 0.791687L33.8903 0.791687L34.4125 0.866295H34.9348C35.5401 0.979506 36.138 1.12899 36.7254 1.31395L37.173 1.38855L37.4715 1.46316C37.9836 1.62294 38.4826 1.8225 38.9636 2.06003L39.1875 2.13464C40.0635 2.5782 40.9108 3.07658 41.7241 3.62681L42.4702 4.14907L42.8433 4.4475L43.4401 4.96976L43.9624 5.56663L44.2608 5.93967C44.7618 6.46783 45.2115 7.04241 45.6038 7.65566L45.9022 8.10331L46.2006 8.55096L46.4991 9.07322V9.22244C48.5881 13.2513 48.7373 18.0262 46.9467 22.1297V22.1297Z" fill="white"/>
<path d="M46.9466 22.1296C48.7372 18.0261 48.588 13.2512 46.5736 9.22234L46.4989 9.07312L46.2005 8.55086L45.9021 8.10321C45.8065 7.95146 45.7069 7.80219 45.6036 7.65556L45.3798 7.20791C45.0268 6.79172 44.6533 6.39332 44.2607 6.01418C44.2607 5.86496 44.1115 5.71574 43.9623 5.64113L43.44 5.04427L42.8431 4.52201L42.3955 4.22357L41.7986 3.70132C40.9893 3.10387 40.1129 2.60308 39.1873 2.20915L38.9635 2.13454C38.6723 1.99341 38.3734 1.86886 38.0682 1.7615C37.7745 1.64839 37.4757 1.54881 37.1729 1.46306L36.7252 1.38846C36.1417 1.20711 35.5421 1.08219 34.9346 1.01541H34.4124L33.9647 0.791588H33.6663L32.9948 0.71698H31.9503C31.6234 0.739323 31.2989 0.789239 30.9804 0.866197L30.2343 0.940805C29.8541 1.01113 29.4799 1.11091 29.1152 1.23924L28.6675 1.31385L28.3691 1.38846C27.7756 1.58455 27.2013 1.83428 26.6531 2.13454C26.4293 2.13454 26.2055 2.28376 26.0562 2.35836L25.907 2.43297L24.9371 3.02984L24.4895 3.25367L24.1164 3.5521C23.5662 3.93908 23.0427 4.36283 22.5497 4.82044L22.2512 5.04427L21.8782 5.49192L21.5797 5.86496L20.9829 6.46183L20.5352 7.1333C20.1051 7.71898 19.7305 8.34341 19.4161 8.99851L19.2669 9.14773C17.0286 13.5496 17.1032 18.6976 19.4161 23.0249L32.9948 49.287L36.1284 43.1692L47.0212 22.055L46.9466 22.1296Z" fill="white"/>
<path d="M29.7124 43.3184C29.7124 43.3184 17.8497 19.966 18.8196 22.2042L30.0108 21.0851C30.0108 21.0851 36.3526 33.7685 36.5018 34.9622C36.8002 35.5591 33.219 48.6902 33.2936 48.541L29.3394 56.2256C31.3538 52.1968 31.5776 47.4965 29.7124 43.3184V43.3184Z" fill="white"/>
<path d="M80.8934 23.1741L75.8946 32.724L67.3147 49.2871L63.7335 56.0764V56.3003C62.5644 58.426 60.9325 60.2618 58.9585 61.6721L58.5109 61.9705L58.1378 62.2689C56.4473 63.3105 54.5734 64.0195 52.6168 64.358H52.1692L51.1246 64.5072H49.0356C48.8616 64.5148 48.6874 64.5148 48.5133 64.5072L48.1403 64.4326L46.4989 64.1341L45.9767 63.9849L45.8274 63.9103L45.529 63.8357C45.3052 63.8357 45.156 63.6865 44.9321 63.6119L44.5591 63.4627C43.7306 63.1638 42.9314 62.7892 42.1716 62.3435C41.9177 62.1771 41.6689 62.0029 41.4256 61.8213L40.9779 61.5229L40.5302 61.1498C39.7842 60.5529 39.0381 59.8815 38.4412 59.21L38.1428 58.837C37.5924 58.1276 37.0937 57.3796 36.6506 56.5987L36.576 56.3749V56.3003L36.3522 56.0018C35.2934 53.8505 34.7552 51.4804 34.7812 49.0828C34.8071 46.6851 35.3964 44.3272 36.5014 42.1993L46.9466 22.055L50.0801 16.0117L53.5867 9.14775L53.9598 8.55089L54.2582 7.95402L54.5566 7.58098L54.7805 7.13333L55.3027 6.46185L55.6758 6.08881L56.4218 5.34273L56.5711 5.04429C57.6568 3.96786 58.9184 3.08473 60.3015 2.433L61.7936 1.68692H62.0921C62.4008 1.52765 62.7261 1.40256 63.062 1.31387H63.2858L63.3604 1.23926C63.9187 1.05852 64.4935 0.933557 65.0764 0.866223L66.2701 0.791614H66.5686C67.6649 0.711158 68.7669 0.761249 69.8513 0.940831C71.7912 1.23926 73.5818 1.98535 75.2978 3.02987L75.7454 3.25369L76.1185 3.55212L76.8645 4.07438L77.2376 4.37282L77.9837 5.1189L78.2075 5.34273C79.3302 6.39424 80.264 7.63083 80.968 8.99854V9.14775C83.2063 13.5497 83.2063 18.6976 80.968 23.0249L80.8934 23.1741Z" fill="white"/>
<path d="M84.4745 64.5818C78.8043 64.5818 73.5071 61.4483 70.8958 56.3749L53.7359 23.0995C52.0617 19.5194 51.8384 15.4301 53.1129 11.689C54.3873 7.9478 57.0604 4.84521 60.572 3.03155C64.0836 1.21789 68.1609 0.83397 71.9493 1.96027C75.7376 3.08658 78.943 5.63565 80.8933 9.07316L98.0533 42.2739C99.2733 44.607 99.8705 47.2154 99.787 49.8469C99.7035 52.4784 98.9421 55.0438 97.5765 57.2948C96.2109 59.5458 94.2874 61.4061 91.992 62.6958C89.6967 63.9855 87.1073 64.6608 84.4745 64.6564V64.5818Z" fill="#E8E6ED"/>
<path d="M64.1064 43.3184C64.1064 43.3184 52.2437 19.966 53.2136 22.2042L64.4049 21.0851C64.4049 21.0851 70.7466 33.7685 70.8958 34.9622C71.1942 35.5591 67.613 48.6902 67.6876 48.541L63.808 56.2256C65.8224 52.1968 66.0463 47.4965 64.1811 43.3184H64.1064Z" fill="white"/>
<path d="M81.3408 22.1296C83.1314 18.0261 82.9822 13.2512 80.9678 9.22235L80.8932 9.07314L80.5947 8.55088L80.2963 8.10323C79.9923 7.57637 79.6427 7.07709 79.2518 6.61106L78.7295 5.86498L78.3565 5.56654L77.8342 4.96967C77.6372 4.79344 77.4382 4.61934 77.2374 4.44742L76.8643 4.14898L76.1182 3.62672L75.7452 3.32829L75.2975 3.10446C74.4125 2.52045 73.4607 2.04454 72.4624 1.6869L71.8656 1.53769L71.5671 1.46308L71.1195 1.31386L70.5226 1.16465L69.9257 1.01543L69.3289 0.940821C68.9844 0.867885 68.6355 0.818036 68.2844 0.791604H66.2699C65.9472 0.764615 65.6228 0.764615 65.3 0.791604V0.866212L64.5539 0.940821C64.1737 1.01115 63.7996 1.11093 63.4348 1.23925C63.1807 1.29434 62.9312 1.36918 62.6887 1.46308C62.1003 1.61108 61.526 1.81081 60.9727 2.05995L60.3759 2.35838L60.2266 2.43299C58.9994 3.06466 57.8688 3.86862 56.8693 4.82046L56.6454 5.04428C56.3848 5.28069 56.1358 5.52969 55.8994 5.79037V6.01419L55.3025 6.61106L54.8548 7.28253C54.6423 7.57167 54.4431 7.87042 54.258 8.17784L53.9595 8.62549C53.8519 8.84558 53.7523 9.06955 53.6611 9.29696C51.4229 13.6989 51.4229 18.8468 53.6611 23.1741L67.3144 49.4363L70.448 43.3184L81.3408 22.2042V22.1296Z" fill="white"/>
</svg>
