<svg viewBox="0 0 336 83" fill="none" xmlns="http://www.w3.org/2000/svg">
<path d="M118.753 37.3137V60.0072H111.631V25.1324H118.113L129.458 40.6549L140.804 25.1324H147.286V60.0072H140.164V37.3137L129.455 52.0001L118.753 37.3137Z" fill="white"/>
<path d="M165.124 60.5483C157.608 60.5483 152.254 55.1446 152.254 47.6784C152.254 40.3598 157.707 34.9069 165.173 34.9069C172.393 34.9069 178.338 40.0647 177.994 49.2982H158.838C159.133 52.1968 161.294 54.7019 165.468 54.7019C167.826 54.7019 169.888 53.669 170.675 52.0001H177.699C176.223 56.9611 171.36 60.5483 165.124 60.5483ZM159.081 44.8782H170.623C169.786 41.5861 167.281 40.3598 164.973 40.3598C161.881 40.3598 159.72 42.1763 159.081 44.8782Z" fill="white"/>
<path d="M192.877 34.907C196.267 34.907 198.871 36.6251 199.95 38.199V23.1683H206.678V60.0073H199.95V57.2562C198.871 58.8269 196.267 60.5483 192.877 60.5483C186.345 60.5483 181.335 54.702 181.335 47.7276C181.335 40.7533 186.345 34.907 192.877 34.907ZM194.3 41.0484C190.618 41.0484 188.113 43.8978 188.113 47.7276C188.113 51.5574 190.618 54.4068 194.3 54.4068C197.985 54.4068 200.491 51.5574 200.491 47.7276C200.491 43.8978 197.985 41.0484 194.3 41.0484Z" fill="white"/>
<path d="M223.184 34.9069C226.574 34.9069 229.178 36.6251 230.257 38.199V35.4479H236.985V60.0072H230.257V57.2562C229.178 58.8268 226.574 60.5483 223.184 60.5483C216.652 60.5483 211.642 54.7019 211.642 47.7276C211.642 40.7533 216.652 34.9069 223.184 34.9069ZM224.61 41.0484C220.928 41.0484 218.423 43.8978 218.423 47.7276C218.423 51.5574 220.928 54.4068 224.61 54.4068C228.296 54.4068 230.801 51.5574 230.801 47.7276C230.801 43.8978 228.293 41.0484 224.61 41.0484Z" fill="white"/>
<path d="M243.523 23.1683H250.252V60.0073H243.523V23.1683Z" fill="white"/>
<path d="M256.734 23.1683H263.463V60.0073H256.734V23.1683Z" fill="white"/>
<path d="M273.29 31.4215C270.982 31.4215 269.018 29.5066 269.018 27.149C269.018 24.7914 270.982 22.8765 273.29 22.8765C275.697 22.8765 277.612 24.7914 277.612 27.149C277.612 29.5033 275.697 31.4215 273.29 31.4215ZM269.949 35.448H276.677V60.0073H269.949V35.448Z" fill="white"/>
<path d="M294.459 60.5483C287.337 60.5483 281.54 54.8987 281.54 47.7276C281.54 40.5565 287.337 34.9069 294.459 34.9069C301.58 34.9069 307.378 40.5565 307.378 47.7276C307.378 54.8987 301.58 60.5483 294.459 60.5483ZM294.459 54.2593C297.997 54.2593 300.548 51.5082 300.548 47.7276C300.548 43.947 297.993 41.1959 294.459 41.1959C290.921 41.1959 288.317 43.947 288.317 47.7276C288.317 51.5082 290.924 54.2593 294.459 54.2593Z" fill="white"/>
<path d="M312.243 35.4479H318.972V38.2482C320.247 36.2841 322.805 34.9069 325.995 34.9069C331.941 34.9069 335.475 39.2286 335.475 45.616V60.0072H328.747V46.7439C328.747 43.2059 327.225 41.0451 324.424 41.0451C321.329 41.0451 318.972 43.3043 318.972 48.0194V60.004H312.243V35.4479Z" fill="white"/>
<path d="M74.3167 21.1846C70.9918 15.4235 64.2339 10.8002 55.9284 12.0003C52.8035 4.24559 45.439 0.723999 38.8057 0.723999C32.169 0.723999 24.8045 4.24559 21.6797 12.0003C13.3708 10.8002 6.61621 15.4235 3.29135 21.1846C-0.0367737 26.949 -0.663052 35.1136 4.53736 41.7108C-0.663052 48.3048 -0.033495 56.4726 3.29135 62.237C6.25881 67.3784 11.9576 71.6148 19.0532 71.6148C19.9091 71.6148 20.7845 71.5492 21.6797 71.4213C24.8045 79.176 32.169 82.6976 38.8057 82.6976C45.4423 82.6976 52.8035 79.176 55.9316 71.4213C64.2372 72.6214 70.9918 67.9981 74.32 62.237C77.6481 56.4726 78.2744 48.308 73.074 41.7108C78.2711 35.1169 77.6448 26.949 74.3167 21.1846ZM38.8057 8.17704C42.2683 8.17704 46.5047 9.75421 48.636 13.9644C42.1961 15.5579 35.4153 15.5579 28.9721 13.9644C31.1066 9.75421 35.3431 8.17704 38.8057 8.17704ZM9.74432 58.5088C8.00648 55.4955 7.25561 51.0066 9.87876 47.0424C14.4922 51.8395 17.8892 57.7317 19.7254 64.1257C14.9874 64.4077 11.4822 61.5189 9.74432 58.5088ZM38.8057 75.2446C34.5693 75.2446 29.1688 72.8837 27.89 66.2308C26.1128 57.0005 21.6174 48.4294 15.0923 41.7075C19.8041 36.8514 23.4601 31.0313 25.7948 24.6898C24.4471 24.3422 23.1093 23.9422 21.7912 23.4864C20.5386 23.0536 19.4238 22.9454 18.4434 23.0438C16.4858 27.9884 13.5741 32.5396 9.88204 36.3825C7.25561 32.415 8.0032 27.9261 9.74432 24.9128C11.8625 21.2436 16.6072 17.7483 23.0109 19.9681C31.9002 23.0471 41.5731 23.4372 50.6624 21.142C52.5019 27.6573 55.7054 33.7364 60.0205 38.9335C60.9976 37.9367 62.0141 36.976 63.0732 36.0579C64.0733 35.1923 64.7225 34.2873 65.1258 33.3921C61.8272 29.218 59.3516 24.4209 57.8793 19.2959C62.6207 19.014 66.1259 21.9027 67.8637 24.9128C69.9819 28.5819 70.6377 34.4381 65.5127 38.8745C58.3876 45.0455 53.2068 53.2461 50.6558 62.2862C44.1045 60.6336 37.2482 60.3746 30.6017 61.5124C30.9689 62.837 31.2837 64.1749 31.546 65.5291C31.8018 66.8603 32.2805 67.8965 32.874 68.7031C38.1139 67.9391 43.4848 68.1883 48.636 69.4605C46.5047 73.6674 42.265 75.2446 38.8057 75.2446ZM67.8637 58.5088C66.1259 61.5189 62.6207 64.4077 57.8826 64.1257C59.7188 57.7285 63.1158 51.8362 67.7293 47.0424C70.3524 51.0099 69.6048 55.4988 67.8637 58.5088Z" fill="white"/>
</svg>
