<svg width="673" height="453" viewBox="0 0 673 453" fill="none" xmlns="http://www.w3.org/2000/svg">
<path d="M144.243 167.381C190.461 167.381 227.931 129.912 227.931 83.6934C227.931 37.4747 190.461 0.00537109 144.243 0.00537109C98.024 0.0105791 60.5547 37.4694 60.5547 83.688C60.5547 129.907 98.024 167.381 144.243 167.381V167.381ZM144.243 22.648C177.909 22.648 205.289 50.0334 205.289 83.6947C205.289 117.356 177.904 144.741 144.243 144.741C110.581 144.741 83.196 117.356 83.196 83.6947C83.196 50.0387 110.587 22.648 144.243 22.648V22.648Z" fill="#44376D"/>
<path d="M22.6415 307.075C22.6415 259.903 61.0215 221.528 108.193 221.528H180.297C189.282 221.528 197.933 222.94 206.079 225.518L211.141 203.43C201.36 200.508 191.016 198.888 180.297 198.888L108.193 198.893C48.532 198.893 0 247.424 0 307.076L22.6415 307.075Z" fill="#44376D"/>
<path d="M527.758 167.381C573.977 167.381 611.452 129.912 611.452 83.6933C611.452 37.4747 573.982 0 527.758 0C481.54 0 444.07 37.4693 444.07 83.6933C444.07 129.923 481.54 167.381 527.758 167.381V167.381ZM527.758 22.648C561.425 22.648 588.816 50.0333 588.816 83.7053C588.816 117.372 561.43 144.752 527.758 144.752C494.092 144.752 466.712 117.367 466.712 83.7053C466.712 50.044 494.092 22.648 527.758 22.648V22.648Z" fill="#44376D"/>
<path d="M491.71 198.901C481.028 198.901 470.716 200.516 460.961 203.417L465.685 225.625C473.899 222.995 482.633 221.547 491.716 221.547H563.82C610.992 221.547 649.372 259.927 649.372 307.094H672.008C672.008 247.438 623.477 198.911 563.814 198.911L491.71 198.906V198.901Z" fill="#44376D"/>
<path d="M333.615 312.795C379.834 312.795 417.303 275.325 417.303 229.107C417.303 215.112 413.824 201.951 407.751 190.357C393.767 163.664 365.839 145.425 333.615 145.425C305.449 145.425 280.589 159.379 265.422 180.712C255.698 194.384 249.922 211.056 249.922 229.119C249.922 275.327 287.391 312.796 333.615 312.796L333.615 312.795ZM333.615 168.061C367.282 168.061 394.662 195.447 394.662 229.108C394.662 262.769 367.277 290.155 333.615 290.155C299.954 290.155 272.569 262.769 272.569 229.108C272.569 195.447 299.949 168.061 333.615 168.061V168.061Z" fill="#44376D"/>
<path d="M369.665 344.315H297.561C237.905 344.315 189.367 392.845 189.367 452.497H212.003C212.003 405.331 250.383 366.951 297.555 366.951H369.659C416.831 366.951 455.206 405.331 455.206 452.497H477.842C477.847 392.836 429.321 344.315 369.665 344.315V344.315Z" fill="#44376D"/>
</svg>
