<svg width="626" height="541" viewBox="0 0 626 541" fill="none" xmlns="http://www.w3.org/2000/svg">
<path d="M380.667 39.9019C340.464 13.7619 293.521 -0.103419 245.573 0.000580788C180.437 1.24537 118.349 27.8339 72.5066 74.1153C26.6573 120.397 0.651927 182.725 0.011927 247.875C-0.623486 313.021 24.1519 375.849 69.0906 423.022C114.028 470.189 175.58 497.986 240.677 500.506C284.208 528.438 335.323 542.194 386.997 539.875C438.664 537.552 488.341 519.271 529.197 487.547C570.047 455.829 600.057 412.219 615.099 362.735C630.14 313.251 629.468 260.319 613.182 211.229C596.895 162.135 565.797 119.302 524.155 88.6193C482.519 57.9419 432.395 40.9219 380.675 39.9059L380.667 39.9019ZM17.3599 251.075C17.4016 200.45 34.3439 151.289 65.4999 111.382C96.6559 71.4806 140.245 43.1219 189.349 30.8086C238.453 18.4953 290.261 22.9283 336.563 43.4075L330.495 44.5742L320.693 46.6731L307.391 50.1731L298.057 52.9753L284.99 57.8763L276.125 61.3763L263.057 67.6784L255.359 71.6473C250.458 74.215 246.026 77.2462 241.359 80.2827L235.76 83.7827C229.38 88.1368 223.24 92.7254 217.328 97.5481L214.063 100.35C209.396 104.319 204.73 108.517 200.298 112.949L194.699 119.017C191.433 122.517 187.933 126.251 184.896 129.986L179.298 137.22C176.495 140.72 173.699 144.454 171.131 148.189L165.766 156.356C163.433 160.09 161.1 163.824 158.766 167.788L154.1 176.423C152.079 180.314 150.131 184.356 148.266 188.559L144.298 197.658C142.662 201.856 141.032 206.059 139.631 210.491C138.23 214.923 137.532 216.559 136.6 219.824C135.667 223.09 134.032 228.923 133.1 233.59C132.167 238.256 131.464 239.657 131.001 242.689C130.532 245.72 129.365 253.189 128.667 258.553C127.969 263.917 128.667 263.917 128.667 266.485C128.667 274.417 127.501 282.584 127.501 289.818L127.496 289.808C127.558 299.48 128.183 309.141 129.36 318.74C129.36 321.771 129.36 324.808 130.761 327.839C132.162 330.87 132.86 340.672 134.496 346.975C136.131 353.277 136.36 353.975 137.298 357.24C138.23 360.506 140.798 368.907 142.897 374.506C144.996 380.104 145.464 381.271 146.865 384.537C148.266 387.802 152.001 395.969 154.798 401.568C157.6 407.166 157.6 407.401 159.23 410.432C162.964 417.198 167.162 423.734 171.365 430.031L174.168 434.463L174.162 434.473C179.688 442.598 185.688 450.385 192.132 457.807L197.731 463.64C201.465 467.374 204.965 471.338 208.928 475.072C155.59 466.588 107.011 439.384 71.9151 398.338C36.8111 357.291 17.4724 305.083 17.3631 251.071L17.3599 251.075ZM376.227 516.835C331.315 516.835 287.409 503.518 250.071 478.559C212.727 453.601 183.628 418.127 166.451 376.633C149.273 335.133 144.795 289.471 153.57 245.425C162.352 201.378 183.997 160.925 215.773 129.185C247.544 97.4393 288.024 75.8352 332.076 67.1059C376.133 58.3715 421.789 62.8977 463.269 80.1163C504.753 97.3403 540.19 126.476 565.113 163.84C590.03 201.204 603.306 245.122 603.258 290.038C603.425 329.923 593.024 369.136 573.118 403.704C553.212 438.267 524.509 466.939 489.925 486.814C455.341 506.683 416.113 517.043 376.228 516.835L376.227 516.835Z" fill="#44376D"/>
<path d="M389.758 269.502C366.425 259.471 354.993 252.236 354.993 237.532C354.993 222.835 363.16 214.199 384.629 214.199V214.204C397.025 214.1 409.213 217.413 419.858 223.767L427.327 204.403C416.233 198.07 403.702 194.695 390.926 194.601V167.538H373.661V195.773V195.768C362.343 196.846 351.806 202.012 344.03 210.304C336.254 218.595 331.775 229.44 331.426 240.804C331.426 264.137 349.16 277.902 378.092 289.334C398.858 297.735 409.827 307.304 409.827 322.698C409.827 338.1 396.296 350.001 376.463 350.001C362.119 349.933 348.099 345.72 336.094 337.871L329.328 356.537C342.146 364.527 356.927 368.808 372.025 368.902V397.136H389.76V367.735C401.515 366.615 412.463 361.266 420.572 352.683C428.687 344.1 433.405 332.866 433.859 321.068C433.161 295.636 418.692 281.167 389.76 269.5L389.758 269.502Z" fill="#44376D"/>
</svg>
