<svg width="395" height="637" viewBox="0 0 395 637" fill="none" xmlns="http://www.w3.org/2000/svg">
<path d="M15.5831 636.529H379.65C387.863 636.529 394.582 629.811 394.582 621.597V389.384C394.582 323.676 341.118 270.217 275.415 270.217H119.815C54.1071 270.217 0.648438 323.681 0.648438 389.384V621.597C0.648438 629.811 7.29431 636.529 15.5804 636.529H15.5831ZM273.556 412.303C281.697 412.303 288.343 418.948 288.343 427.089C288.343 435.23 281.697 441.876 273.556 441.876C265.416 441.876 258.77 435.23 258.77 427.089C258.77 418.949 265.343 412.303 273.556 412.303ZM30.5164 389.381C30.5164 345.627 62.1005 309.261 103.688 301.575C98.6103 318.377 96.0739 335.7 96.0739 354.064C96.0739 360.189 96.4489 366.236 96.9697 372.209C64.1884 377.886 39.1058 406.48 39.1058 440.829V502.652C39.1058 510.866 45.8245 517.584 54.0377 517.584H80.9911C89.2047 517.584 95.9231 510.865 95.9231 502.652C95.9231 494.438 89.2043 487.72 80.9911 487.72H68.9703V440.829C68.9703 418.876 86.8916 400.96 108.84 400.96H122.131C144.085 400.96 162.001 418.881 162.001 440.829V487.72H146.621C138.407 487.72 131.689 494.439 131.689 502.652C131.689 510.866 138.407 517.584 146.621 517.584H176.933C185.146 517.584 191.865 510.865 191.865 502.652V440.829C191.865 404.017 163.119 373.856 126.906 371.313C126.307 365.563 125.937 359.813 125.937 353.991C125.937 334.579 129.073 317.179 135.791 299.933H258.765C266.234 317.855 269.442 334.428 269.442 353.991C269.442 363.845 268.619 373.553 266.978 382.96C245.473 386.168 228.973 404.689 228.973 427.091C228.973 451.731 248.984 471.741 273.624 471.741C298.264 471.741 318.274 451.731 318.274 427.091C318.274 410.736 309.462 396.476 296.321 388.711C298.336 377.435 299.305 365.789 299.305 354.065C299.305 335.101 296.769 318.451 291.165 301.497C332.977 308.966 364.862 345.476 364.862 389.377V606.657L30.5153 606.662L30.5164 389.381Z" fill="#44376D"/>
<path d="M197.628 263.276C270.207 263.276 329.264 204.213 329.264 131.64C329.264 59.0613 270.207 0 197.628 0C125.05 0 65.9922 59.0627 65.9922 131.636C65.9922 204.215 125.05 263.276 197.628 263.276V263.276ZM197.628 29.8627C253.779 29.8627 299.399 75.56 299.399 131.633C299.399 187.712 253.779 233.404 197.628 233.404C141.478 233.404 95.8575 187.707 95.8575 131.633C95.8575 75.56 141.478 29.8627 197.628 29.8627Z" fill="#44376D"/>
</svg>
