<svg width="70" height="78" viewBox="0 0 70 78" fill="none" xmlns="http://www.w3.org/2000/svg">
<path d="M1.6095 0.496991C1.12678 0.57858 0.780076 0.955384 0.78924 1.38949V63.887C0.78924 64.3803 1.24094 64.7802 1.79907 64.7802H21.2137L28.348 68.9655L34.2828 76.8615V76.8608C34.4491 77.0913 34.7253 77.2414 35.0333 77.2688C35.3412 77.2956 35.6464 77.1972 35.8606 77.0003L38.8908 74.3216H38.8915C39.105 74.1304 39.2093 73.8638 39.1754 73.5966L38.2283 66.9007L45.994 60.8184L56.4742 76.8342V76.8336C56.6341 77.0784 56.9146 77.2415 57.2317 77.2745C57.5488 77.3076 57.8652 77.206 58.0844 77.0011L63.1349 72.5368C63.3878 72.3095 63.4844 71.9794 63.3878 71.6723L56.9485 51.8634C60.8101 48.2175 63.9334 44.8637 66.0713 42.0422C68.2875 39.1174 69.5806 36.8074 69.4805 34.8997C69.4417 34.1972 69.169 33.5464 68.6278 33.1701C68.0873 32.7933 67.5306 32.7317 67.0493 32.6401V32.6395C66.9972 32.6357 66.9443 32.6357 66.8915 32.6395C64.7337 32.551 62.1193 33.6939 58.8101 35.6526C57.1308 36.6466 55.2867 37.8947 53.3171 39.3354V15.676L53.3178 15.6766C53.3157 15.4468 53.2142 15.2275 53.0338 15.0625L37.8817 0.777557H37.8809C37.6921 0.601296 37.4299 0.500402 37.1551 0.498536H18.9726C18.9099 0.492931 18.8465 0.492931 18.7838 0.498536C18.5153 0.520335 18.2672 0.635556 18.0953 0.818661C17.9233 1.00176 17.8402 1.23781 17.8656 1.47511C17.8909 1.71241 18.022 1.93101 18.2292 2.08236C18.437 2.23432 18.7048 2.30656 18.9726 2.28414H36.7449L51.2974 15.983V40.8701C50.1445 41.7576 48.95 42.6787 47.7304 43.6877L25.3175 38.0239V38.0245C24.9602 37.928 24.5719 38.0139 24.3076 38.2475L19.2572 42.7118H19.2565C19.0401 42.9092 18.9386 43.1845 18.9816 43.4573C19.0246 43.7295 19.2078 43.9693 19.4777 44.1069L37.5971 53.3701L30.6842 60.2616L23.1399 59.4245H23.1392C22.8263 59.3853 22.5113 59.4787 22.2872 59.6755L19.257 62.3543L19.2563 62.3537C19.0688 62.5256 18.966 62.7566 18.9723 62.9958H2.80955V2.28397H12.9112C13.1818 2.28708 13.4426 2.19491 13.6349 2.02674C13.828 1.8592 13.9366 1.63001 13.9366 1.39085C13.9366 1.15231 13.828 0.92311 13.6349 0.754948C13.4426 0.587408 13.1818 0.494614 12.9112 0.498345H1.79968C1.73696 0.492739 1.67353 0.492739 1.61011 0.498345L1.6095 0.496991ZM34.123 8.53248V16.568H43.2142L34.123 8.53248ZM66.7627 34.424C66.779 34.4278 66.779 34.4203 66.7945 34.424C67.0954 34.4919 67.3547 34.586 67.3624 34.5916C67.3723 34.5984 67.4336 34.5474 67.4569 34.9821C67.509 35.9786 66.5175 38.2356 64.3949 41.0365C62.2723 43.8379 59.0901 47.2727 55.0825 51.0247H55.0832C54.8415 51.2576 54.7576 51.5871 54.8626 51.8892L61.271 71.6423L57.5777 74.9065L47.1285 58.9755C46.977 58.7426 46.7149 58.5819 46.4147 58.5389C46.1152 58.4953 45.8086 58.5738 45.5817 58.7519L36.4905 65.8944L36.4898 65.895C36.2347 66.088 36.1043 66.3808 36.1431 66.676L37.0902 73.3719L35.2911 74.9619L30.0193 67.987H30.0186C29.9784 67.9061 29.9255 67.8313 29.8607 67.7641H29.829C29.8191 67.7454 29.8086 67.7267 29.7973 67.7086C29.7874 67.6993 29.7769 67.6899 29.7663 67.6812C29.7451 67.6712 29.724 67.6619 29.7029 67.6532V67.6258C29.6824 67.6158 29.6613 67.6065 29.6394 67.5978C29.6091 67.5778 29.5781 67.5598 29.545 67.5423L21.5587 62.8551L23.3894 61.2371L30.9655 62.0742C31.2939 62.1153 31.6244 62.0106 31.8491 61.7951L39.9305 53.7596V53.7603C40.1321 53.5591 40.2209 53.2888 40.1722 53.0235C40.1229 52.7582 39.9418 52.5265 39.6782 52.3932L21.622 43.1581L25.3469 39.8659L47.6967 45.5578V45.5572C48.0448 45.6431 48.4176 45.5578 48.6755 45.3342C52.9205 41.7916 56.7758 39.0076 59.9449 37.1318C63.0963 35.2665 65.6268 34.3902 66.7635 34.4256L66.7627 34.424Z" fill="#44376D"/>
</svg>
