<svg width="390" height="254" viewBox="0 0 390 254" fill="none" xmlns="http://www.w3.org/2000/svg">
  <rect width="390" height="254" fill="#44376D" />
  <rect x="43.5" y="48.5" width="113" height="110" stroke="white" />
  <rect x="97" y="76" width="131" height="129" fill="#44376D" />
  <path d="M112.701 108.557C112.792 109.214 112.971 109.706 113.238 110.031C113.727 110.624 114.563 110.92 115.748 110.92C116.458 110.92 117.034 110.842 117.477 110.686C118.316 110.386 118.736 109.829 118.736 109.016C118.736 108.54 118.528 108.173 118.111 107.912C117.695 107.658 117.04 107.434 116.148 107.238L114.625 106.896C113.128 106.558 112.092 106.19 111.52 105.793C110.549 105.129 110.064 104.09 110.064 102.678C110.064 101.389 110.533 100.318 111.471 99.4648C112.408 98.612 113.785 98.1855 115.602 98.1855C117.118 98.1855 118.411 98.5892 119.479 99.3965C120.553 100.197 121.116 101.363 121.168 102.893H118.277C118.225 102.027 117.848 101.411 117.145 101.047C116.676 100.806 116.093 100.686 115.396 100.686C114.622 100.686 114.003 100.842 113.541 101.154C113.079 101.467 112.848 101.903 112.848 102.463C112.848 102.977 113.076 103.361 113.531 103.615C113.824 103.785 114.449 103.983 115.406 104.211L117.887 104.807C118.974 105.067 119.794 105.415 120.348 105.852C121.207 106.529 121.637 107.508 121.637 108.791C121.637 110.106 121.132 111.2 120.123 112.072C119.12 112.938 117.701 113.371 115.865 113.371C113.99 113.371 112.516 112.945 111.441 112.092C110.367 111.232 109.83 110.054 109.83 108.557H112.701ZM122.545 104.436V102.453H124.029V99.4844H126.783V102.453H128.512V104.436H126.783V110.061C126.783 110.497 126.839 110.77 126.949 110.881C127.06 110.985 127.398 111.037 127.965 111.037C128.049 111.037 128.137 111.037 128.229 111.037C128.326 111.031 128.421 111.024 128.512 111.018V113.098L127.193 113.146C125.878 113.192 124.98 112.964 124.498 112.463C124.186 112.144 124.029 111.652 124.029 110.988V104.436H122.545ZM136.168 107.824C135.992 107.935 135.813 108.026 135.631 108.098C135.455 108.163 135.211 108.225 134.898 108.283L134.273 108.4C133.688 108.505 133.268 108.632 133.014 108.781C132.584 109.035 132.369 109.429 132.369 109.963C132.369 110.438 132.499 110.783 132.76 110.998C133.027 111.206 133.349 111.311 133.727 111.311C134.326 111.311 134.876 111.135 135.377 110.783C135.885 110.432 136.148 109.79 136.168 108.859V107.824ZM134.479 106.525C134.993 106.46 135.361 106.379 135.582 106.281C135.979 106.112 136.178 105.848 136.178 105.49C136.178 105.054 136.025 104.755 135.719 104.592C135.419 104.423 134.977 104.338 134.391 104.338C133.733 104.338 133.268 104.501 132.994 104.826C132.799 105.067 132.669 105.393 132.604 105.803H129.918C129.977 104.872 130.237 104.107 130.699 103.508C131.435 102.57 132.698 102.102 134.488 102.102C135.654 102.102 136.689 102.333 137.594 102.795C138.499 103.257 138.951 104.13 138.951 105.412V110.295C138.951 110.633 138.958 111.044 138.971 111.525C138.99 111.89 139.046 112.137 139.137 112.268C139.228 112.398 139.365 112.505 139.547 112.59V113H136.52C136.435 112.785 136.376 112.583 136.344 112.395C136.311 112.206 136.285 111.991 136.266 111.75C135.882 112.167 135.439 112.521 134.938 112.814C134.339 113.16 133.661 113.332 132.906 113.332C131.943 113.332 131.145 113.059 130.514 112.512C129.889 111.958 129.576 111.177 129.576 110.168C129.576 108.859 130.081 107.912 131.09 107.326C131.643 107.007 132.457 106.779 133.531 106.643L134.479 106.525ZM145.357 98.459C145.533 98.459 145.693 98.4655 145.836 98.4785C145.979 98.485 146.174 98.498 146.422 98.5176V100.783C146.266 100.764 146.002 100.751 145.631 100.744C145.266 100.731 145.012 100.812 144.869 100.988C144.732 101.158 144.664 101.346 144.664 101.555C144.664 101.763 144.664 102.062 144.664 102.453H146.49V104.416H144.664V113H141.891V104.416H140.338V102.453H141.861V101.77C141.861 100.63 142.053 99.8457 142.438 99.416C142.841 98.778 143.814 98.459 145.357 98.459ZM154.869 98.5176H157.594V101.057H154.869V98.5176ZM154.869 102.404H157.643V113H154.869V102.404ZM152.086 98.459C152.255 98.459 152.428 98.4655 152.604 98.4785C152.779 98.4915 152.962 98.5046 153.15 98.5176V100.783C153.02 100.777 152.893 100.773 152.77 100.773C152.646 100.767 152.496 100.764 152.32 100.764C151.884 100.764 151.617 100.884 151.52 101.125C151.422 101.366 151.38 101.743 151.393 102.258V102.453H153.219V104.416H151.393V113H148.619V104.416H147.066V102.453H148.59V101.77C148.59 100.637 148.84 99.7936 149.342 99.2402C149.791 98.7194 150.706 98.459 152.086 98.459ZM166.217 102.102C167.317 102.102 168.215 102.391 168.912 102.971C169.615 103.544 169.967 104.497 169.967 105.832V113H167.115V106.525C167.115 105.965 167.04 105.536 166.891 105.236C166.617 104.689 166.096 104.416 165.328 104.416C164.384 104.416 163.736 104.816 163.385 105.617C163.202 106.04 163.111 106.581 163.111 107.238V113H160.338V102.375H163.023V103.928C163.382 103.381 163.72 102.987 164.039 102.746C164.612 102.316 165.338 102.102 166.217 102.102ZM177.115 110.715C177.766 110.715 178.316 110.471 178.766 109.982C179.215 109.488 179.439 108.703 179.439 107.629C179.439 106.62 179.225 105.852 178.795 105.324C178.372 104.797 177.802 104.533 177.086 104.533C176.109 104.533 175.436 104.992 175.064 105.91C174.869 106.398 174.771 107.001 174.771 107.717C174.771 108.335 174.876 108.885 175.084 109.367C175.462 110.266 176.139 110.715 177.115 110.715ZM176.422 102.102C176.956 102.102 177.421 102.183 177.818 102.346C178.495 102.626 179.042 103.14 179.459 103.889V102.355H182.164V112.453C182.164 113.827 181.933 114.862 181.471 115.559C180.676 116.757 179.153 117.355 176.9 117.355C175.54 117.355 174.43 117.089 173.57 116.555C172.711 116.021 172.236 115.223 172.145 114.162H175.172C175.25 114.488 175.377 114.722 175.553 114.865C175.852 115.119 176.357 115.246 177.066 115.246C178.069 115.246 178.74 114.911 179.078 114.24C179.299 113.811 179.41 113.088 179.41 112.072V111.389C179.143 111.844 178.857 112.186 178.551 112.414C177.997 112.837 177.278 113.049 176.393 113.049C175.025 113.049 173.932 112.57 173.111 111.613C172.298 110.65 171.891 109.348 171.891 107.707C171.891 106.125 172.285 104.797 173.072 103.723C173.86 102.642 174.977 102.102 176.422 102.102ZM112.467 132.602C112.525 133.096 112.652 133.448 112.848 133.656C113.193 134.027 113.831 134.213 114.762 134.213C115.309 134.213 115.742 134.132 116.061 133.969C116.386 133.806 116.549 133.562 116.549 133.236C116.549 132.924 116.419 132.686 116.158 132.523C115.898 132.361 114.931 132.081 113.258 131.684C112.053 131.384 111.204 131.01 110.709 130.561C110.214 130.118 109.967 129.48 109.967 128.646C109.967 127.663 110.351 126.82 111.119 126.117C111.894 125.408 112.981 125.053 114.381 125.053C115.709 125.053 116.79 125.32 117.623 125.854C118.463 126.381 118.945 127.296 119.068 128.598H116.285C116.246 128.24 116.145 127.956 115.982 127.748C115.676 127.37 115.156 127.182 114.42 127.182C113.814 127.182 113.382 127.276 113.121 127.465C112.867 127.654 112.74 127.875 112.74 128.129C112.74 128.448 112.877 128.679 113.15 128.822C113.424 128.972 114.391 129.229 116.051 129.594C117.158 129.854 117.988 130.248 118.541 130.775C119.088 131.309 119.361 131.977 119.361 132.777C119.361 133.832 118.967 134.695 118.18 135.365C117.398 136.029 116.188 136.361 114.547 136.361C112.874 136.361 111.637 136.01 110.836 135.307C110.042 134.597 109.645 133.695 109.645 132.602H112.467ZM127.301 125.082C127.958 125.082 128.554 125.196 129.088 125.424C129.628 125.652 130.071 126 130.416 126.469C130.709 126.866 130.888 127.276 130.953 127.699C131.018 128.116 131.051 128.799 131.051 129.75V136H128.209V129.525C128.209 128.952 128.111 128.49 127.916 128.139C127.662 127.644 127.18 127.396 126.471 127.396C125.735 127.396 125.175 127.644 124.791 128.139C124.413 128.627 124.225 129.327 124.225 130.238V136H121.451V121.654H124.225V126.742C124.628 126.124 125.094 125.694 125.621 125.453C126.155 125.206 126.715 125.082 127.301 125.082ZM138.434 134.037C139.247 134.037 139.872 133.747 140.309 133.168C140.745 132.589 140.963 131.765 140.963 130.697C140.963 129.63 140.745 128.809 140.309 128.236C139.872 127.657 139.247 127.367 138.434 127.367C137.62 127.367 136.992 127.657 136.549 128.236C136.113 128.809 135.895 129.63 135.895 130.697C135.895 131.765 136.113 132.589 136.549 133.168C136.992 133.747 137.62 134.037 138.434 134.037ZM143.883 130.697C143.883 132.26 143.434 133.598 142.535 134.711C141.637 135.818 140.273 136.371 138.443 136.371C136.614 136.371 135.25 135.818 134.352 134.711C133.453 133.598 133.004 132.26 133.004 130.697C133.004 129.161 133.453 127.829 134.352 126.703C135.25 125.577 136.614 125.014 138.443 125.014C140.273 125.014 141.637 125.577 142.535 126.703C143.434 127.829 143.883 129.161 143.883 130.697ZM151.666 125.102C151.718 125.102 151.76 125.105 151.793 125.111C151.832 125.111 151.913 125.115 152.037 125.121V127.973C151.861 127.953 151.705 127.94 151.568 127.934C151.432 127.927 151.321 127.924 151.236 127.924C150.117 127.924 149.365 128.288 148.98 129.018C148.766 129.428 148.658 130.059 148.658 130.912V136H145.855V125.355H148.512V127.211C148.941 126.501 149.316 126.016 149.635 125.756C150.156 125.32 150.833 125.102 151.666 125.102ZM152.584 127.436V125.453H154.068V122.484H156.822V125.453H158.551V127.436H156.822V133.061C156.822 133.497 156.878 133.77 156.988 133.881C157.099 133.985 157.438 134.037 158.004 134.037C158.089 134.037 158.176 134.037 158.268 134.037C158.365 134.031 158.46 134.024 158.551 134.018V136.098L157.232 136.146C155.917 136.192 155.019 135.964 154.537 135.463C154.225 135.144 154.068 134.652 154.068 133.988V127.436H152.584ZM166.207 130.824C166.031 130.935 165.852 131.026 165.67 131.098C165.494 131.163 165.25 131.225 164.938 131.283L164.312 131.4C163.727 131.505 163.307 131.632 163.053 131.781C162.623 132.035 162.408 132.429 162.408 132.963C162.408 133.438 162.538 133.783 162.799 133.998C163.066 134.206 163.388 134.311 163.766 134.311C164.365 134.311 164.915 134.135 165.416 133.783C165.924 133.432 166.188 132.79 166.207 131.859V130.824ZM164.518 129.525C165.032 129.46 165.4 129.379 165.621 129.281C166.018 129.112 166.217 128.848 166.217 128.49C166.217 128.054 166.064 127.755 165.758 127.592C165.458 127.423 165.016 127.338 164.43 127.338C163.772 127.338 163.307 127.501 163.033 127.826C162.838 128.067 162.708 128.393 162.643 128.803H159.957C160.016 127.872 160.276 127.107 160.738 126.508C161.474 125.57 162.737 125.102 164.527 125.102C165.693 125.102 166.728 125.333 167.633 125.795C168.538 126.257 168.99 127.13 168.99 128.412V133.295C168.99 133.633 168.997 134.044 169.01 134.525C169.029 134.89 169.085 135.137 169.176 135.268C169.267 135.398 169.404 135.505 169.586 135.59V136H166.559C166.474 135.785 166.415 135.583 166.383 135.395C166.35 135.206 166.324 134.991 166.305 134.75C165.921 135.167 165.478 135.521 164.977 135.814C164.378 136.16 163.701 136.332 162.945 136.332C161.982 136.332 161.184 136.059 160.553 135.512C159.928 134.958 159.615 134.177 159.615 133.168C159.615 131.859 160.12 130.912 161.129 130.326C161.682 130.007 162.496 129.779 163.57 129.643L164.518 129.525ZM176.041 133.715C176.692 133.715 177.242 133.471 177.691 132.982C178.141 132.488 178.365 131.703 178.365 130.629C178.365 129.62 178.15 128.852 177.721 128.324C177.298 127.797 176.728 127.533 176.012 127.533C175.035 127.533 174.361 127.992 173.99 128.91C173.795 129.398 173.697 130.001 173.697 130.717C173.697 131.335 173.801 131.885 174.01 132.367C174.387 133.266 175.064 133.715 176.041 133.715ZM175.348 125.102C175.882 125.102 176.347 125.183 176.744 125.346C177.421 125.626 177.968 126.14 178.385 126.889V125.355H181.09V135.453C181.09 136.827 180.859 137.862 180.396 138.559C179.602 139.757 178.079 140.355 175.826 140.355C174.465 140.355 173.355 140.089 172.496 139.555C171.637 139.021 171.161 138.223 171.07 137.162H174.098C174.176 137.488 174.303 137.722 174.479 137.865C174.778 138.119 175.283 138.246 175.992 138.246C176.995 138.246 177.665 137.911 178.004 137.24C178.225 136.811 178.336 136.088 178.336 135.072V134.389C178.069 134.844 177.783 135.186 177.477 135.414C176.923 135.837 176.204 136.049 175.318 136.049C173.951 136.049 172.857 135.57 172.037 134.613C171.223 133.65 170.816 132.348 170.816 130.707C170.816 129.125 171.21 127.797 171.998 126.723C172.786 125.642 173.902 125.102 175.348 125.102ZM187.896 127.367C187.252 127.367 186.751 127.569 186.393 127.973C186.041 128.376 185.82 128.923 185.729 129.613H190.055C190.009 128.878 189.785 128.321 189.381 127.943C188.984 127.559 188.489 127.367 187.896 127.367ZM187.896 125.072C188.782 125.072 189.579 125.238 190.289 125.57C190.999 125.902 191.585 126.426 192.047 127.143C192.464 127.774 192.734 128.507 192.857 129.34C192.929 129.828 192.958 130.531 192.945 131.449H185.66C185.699 132.517 186.035 133.266 186.666 133.695C187.05 133.962 187.512 134.096 188.053 134.096C188.626 134.096 189.091 133.933 189.449 133.607C189.645 133.432 189.817 133.188 189.967 132.875H192.809C192.737 133.507 192.408 134.148 191.822 134.799C190.911 135.834 189.635 136.352 187.994 136.352C186.64 136.352 185.445 135.915 184.41 135.043C183.375 134.171 182.857 132.751 182.857 130.785C182.857 128.943 183.323 127.53 184.254 126.547C185.191 125.564 186.406 125.072 187.896 125.072ZM196.998 132.602C197.057 133.096 197.184 133.448 197.379 133.656C197.724 134.027 198.362 134.213 199.293 134.213C199.84 134.213 200.273 134.132 200.592 133.969C200.917 133.806 201.08 133.562 201.08 133.236C201.08 132.924 200.95 132.686 200.689 132.523C200.429 132.361 199.462 132.081 197.789 131.684C196.585 131.384 195.735 131.01 195.24 130.561C194.745 130.118 194.498 129.48 194.498 128.646C194.498 127.663 194.882 126.82 195.65 126.117C196.425 125.408 197.512 125.053 198.912 125.053C200.24 125.053 201.321 125.32 202.154 125.854C202.994 126.381 203.476 127.296 203.6 128.598H200.816C200.777 128.24 200.676 127.956 200.514 127.748C200.208 127.37 199.687 127.182 198.951 127.182C198.346 127.182 197.913 127.276 197.652 127.465C197.398 127.654 197.271 127.875 197.271 128.129C197.271 128.448 197.408 128.679 197.682 128.822C197.955 128.972 198.922 129.229 200.582 129.594C201.689 129.854 202.519 130.248 203.072 130.775C203.619 131.309 203.893 131.977 203.893 132.777C203.893 133.832 203.499 134.695 202.711 135.365C201.93 136.029 200.719 136.361 199.078 136.361C197.405 136.361 196.168 136.01 195.367 135.307C194.573 134.597 194.176 133.695 194.176 132.602H196.998ZM217.398 130.824C217.223 130.935 217.044 131.026 216.861 131.098C216.686 131.163 216.441 131.225 216.129 131.283L215.504 131.4C214.918 131.505 214.498 131.632 214.244 131.781C213.814 132.035 213.6 132.429 213.6 132.963C213.6 133.438 213.73 133.783 213.99 133.998C214.257 134.206 214.579 134.311 214.957 134.311C215.556 134.311 216.106 134.135 216.607 133.783C217.115 133.432 217.379 132.79 217.398 131.859V130.824ZM215.709 129.525C216.223 129.46 216.591 129.379 216.812 129.281C217.21 129.112 217.408 128.848 217.408 128.49C217.408 128.054 217.255 127.755 216.949 127.592C216.65 127.423 216.207 127.338 215.621 127.338C214.964 127.338 214.498 127.501 214.225 127.826C214.029 128.067 213.899 128.393 213.834 128.803H211.148C211.207 127.872 211.467 127.107 211.93 126.508C212.665 125.57 213.928 125.102 215.719 125.102C216.884 125.102 217.919 125.333 218.824 125.795C219.729 126.257 220.182 127.13 220.182 128.412V133.295C220.182 133.633 220.188 134.044 220.201 134.525C220.221 134.89 220.276 135.137 220.367 135.268C220.458 135.398 220.595 135.505 220.777 135.59V136H217.75C217.665 135.785 217.607 135.583 217.574 135.395C217.542 135.206 217.516 134.991 217.496 134.75C217.112 135.167 216.669 135.521 216.168 135.814C215.569 136.16 214.892 136.332 214.137 136.332C213.173 136.332 212.376 136.059 211.744 135.512C211.119 134.958 210.807 134.177 210.807 133.168C210.807 131.859 211.311 130.912 212.32 130.326C212.874 130.007 213.688 129.779 214.762 129.643L215.709 129.525ZM228.443 125.102C228.495 125.102 228.538 125.105 228.57 125.111C228.609 125.111 228.691 125.115 228.814 125.121V127.973C228.639 127.953 228.482 127.94 228.346 127.934C228.209 127.927 228.098 127.924 228.014 127.924C226.894 127.924 226.142 128.288 225.758 129.018C225.543 129.428 225.436 130.059 225.436 130.912V136H222.633V125.355H225.289V127.211C225.719 126.501 226.093 126.016 226.412 125.756C226.933 125.32 227.61 125.102 228.443 125.102ZM234.654 127.367C234.01 127.367 233.508 127.569 233.15 127.973C232.799 128.376 232.577 128.923 232.486 129.613H236.812C236.767 128.878 236.542 128.321 236.139 127.943C235.742 127.559 235.247 127.367 234.654 127.367ZM234.654 125.072C235.54 125.072 236.337 125.238 237.047 125.57C237.757 125.902 238.342 126.426 238.805 127.143C239.221 127.774 239.492 128.507 239.615 129.34C239.687 129.828 239.716 130.531 239.703 131.449H232.418C232.457 132.517 232.792 133.266 233.424 133.695C233.808 133.962 234.27 134.096 234.811 134.096C235.383 134.096 235.849 133.933 236.207 133.607C236.402 133.432 236.575 133.188 236.725 132.875H239.566C239.495 133.507 239.166 134.148 238.58 134.799C237.669 135.834 236.393 136.352 234.752 136.352C233.398 136.352 232.203 135.915 231.168 135.043C230.133 134.171 229.615 132.751 229.615 130.785C229.615 128.943 230.081 127.53 231.012 126.547C231.949 125.564 233.163 125.072 234.654 125.072ZM246.061 127.436V125.453H247.545V122.484H250.299V125.453H252.027V127.436H250.299V133.061C250.299 133.497 250.354 133.77 250.465 133.881C250.576 133.985 250.914 134.037 251.48 134.037C251.565 134.037 251.653 134.037 251.744 134.037C251.842 134.031 251.936 134.024 252.027 134.018V136.098L250.709 136.146C249.394 136.192 248.495 135.964 248.014 135.463C247.701 135.144 247.545 134.652 247.545 133.988V127.436H246.061ZM259.684 125.082C260.341 125.082 260.937 125.196 261.471 125.424C262.011 125.652 262.454 126 262.799 126.469C263.092 126.866 263.271 127.276 263.336 127.699C263.401 128.116 263.434 128.799 263.434 129.75V136H260.592V129.525C260.592 128.952 260.494 128.49 260.299 128.139C260.045 127.644 259.563 127.396 258.854 127.396C258.118 127.396 257.558 127.644 257.174 128.139C256.796 128.627 256.607 129.327 256.607 130.238V136H253.834V121.654H256.607V126.742C257.011 126.124 257.477 125.694 258.004 125.453C258.538 125.206 259.098 125.082 259.684 125.082ZM270.24 127.367C269.596 127.367 269.094 127.569 268.736 127.973C268.385 128.376 268.163 128.923 268.072 129.613H272.398C272.353 128.878 272.128 128.321 271.725 127.943C271.327 127.559 270.833 127.367 270.24 127.367ZM270.24 125.072C271.126 125.072 271.923 125.238 272.633 125.57C273.342 125.902 273.928 126.426 274.391 127.143C274.807 127.774 275.077 128.507 275.201 129.34C275.273 129.828 275.302 130.531 275.289 131.449H268.004C268.043 132.517 268.378 133.266 269.01 133.695C269.394 133.962 269.856 134.096 270.396 134.096C270.969 134.096 271.435 133.933 271.793 133.607C271.988 133.432 272.161 133.188 272.311 132.875H275.152C275.081 133.507 274.752 134.148 274.166 134.799C273.255 135.834 271.979 136.352 270.338 136.352C268.984 136.352 267.789 135.915 266.754 135.043C265.719 134.171 265.201 132.751 265.201 130.785C265.201 128.943 265.667 127.53 266.598 126.547C267.535 125.564 268.749 125.072 270.24 125.072ZM116.197 148.102C117.298 148.102 118.196 148.391 118.893 148.971C119.596 149.544 119.947 150.497 119.947 151.832V159H117.096V152.525C117.096 151.965 117.021 151.536 116.871 151.236C116.598 150.689 116.077 150.416 115.309 150.416C114.365 150.416 113.717 150.816 113.365 151.617C113.183 152.04 113.092 152.581 113.092 153.238V159H110.318V148.375H113.004V149.928C113.362 149.381 113.701 148.987 114.02 148.746C114.592 148.316 115.318 148.102 116.197 148.102ZM127.301 157.037C128.115 157.037 128.74 156.747 129.176 156.168C129.612 155.589 129.83 154.765 129.83 153.697C129.83 152.63 129.612 151.809 129.176 151.236C128.74 150.657 128.115 150.367 127.301 150.367C126.487 150.367 125.859 150.657 125.416 151.236C124.98 151.809 124.762 152.63 124.762 153.697C124.762 154.765 124.98 155.589 125.416 156.168C125.859 156.747 126.487 157.037 127.301 157.037ZM132.75 153.697C132.75 155.26 132.301 156.598 131.402 157.711C130.504 158.818 129.14 159.371 127.311 159.371C125.481 159.371 124.117 158.818 123.219 157.711C122.32 156.598 121.871 155.26 121.871 153.697C121.871 152.161 122.32 150.829 123.219 149.703C124.117 148.577 125.481 148.014 127.311 148.014C129.14 148.014 130.504 148.577 131.402 149.703C132.301 150.829 132.75 152.161 132.75 153.697ZM140.533 148.102C140.585 148.102 140.628 148.105 140.66 148.111C140.699 148.111 140.781 148.115 140.904 148.121V150.973C140.729 150.953 140.572 150.94 140.436 150.934C140.299 150.927 140.188 150.924 140.104 150.924C138.984 150.924 138.232 151.288 137.848 152.018C137.633 152.428 137.525 153.059 137.525 153.912V159H134.723V148.355H137.379V150.211C137.809 149.501 138.183 149.016 138.502 148.756C139.023 148.32 139.7 148.102 140.533 148.102ZM154.439 148.121C154.908 148.121 155.37 148.212 155.826 148.395C156.282 148.577 156.695 148.896 157.066 149.352C157.366 149.723 157.568 150.178 157.672 150.719C157.737 151.077 157.77 151.601 157.77 152.291L157.75 159H154.898V152.223C154.898 151.819 154.833 151.487 154.703 151.227C154.456 150.732 154 150.484 153.336 150.484C152.568 150.484 152.037 150.803 151.744 151.441C151.594 151.78 151.52 152.187 151.52 152.662V159H148.717V152.662C148.717 152.031 148.652 151.572 148.521 151.285C148.287 150.771 147.828 150.514 147.145 150.514C146.35 150.514 145.816 150.771 145.543 151.285C145.393 151.578 145.318 152.014 145.318 152.594V159H142.496V148.375H145.201V149.928C145.546 149.374 145.872 148.98 146.178 148.746C146.718 148.329 147.418 148.121 148.277 148.121C149.091 148.121 149.749 148.3 150.25 148.658C150.654 148.99 150.96 149.417 151.168 149.938C151.533 149.312 151.985 148.854 152.525 148.561C153.098 148.268 153.736 148.121 154.439 148.121ZM168.766 147.086H165.943V144.518H168.766V147.086ZM165.943 148.355H168.766V159H165.943V148.355ZM177.369 148.102C178.469 148.102 179.368 148.391 180.064 148.971C180.768 149.544 181.119 150.497 181.119 151.832V159H178.268V152.525C178.268 151.965 178.193 151.536 178.043 151.236C177.77 150.689 177.249 150.416 176.48 150.416C175.536 150.416 174.889 150.816 174.537 151.617C174.355 152.04 174.264 152.581 174.264 153.238V159H171.49V148.375H174.176V149.928C174.534 149.381 174.872 148.987 175.191 148.746C175.764 148.316 176.49 148.102 177.369 148.102ZM195.133 148.082C195.79 148.082 196.386 148.196 196.92 148.424C197.46 148.652 197.903 149 198.248 149.469C198.541 149.866 198.72 150.276 198.785 150.699C198.85 151.116 198.883 151.799 198.883 152.75V159H196.041V152.525C196.041 151.952 195.943 151.49 195.748 151.139C195.494 150.644 195.012 150.396 194.303 150.396C193.567 150.396 193.007 150.644 192.623 151.139C192.245 151.627 192.057 152.327 192.057 153.238V159H189.283V144.654H192.057V149.742C192.46 149.124 192.926 148.694 193.453 148.453C193.987 148.206 194.547 148.082 195.133 148.082ZM205.689 150.367C205.045 150.367 204.544 150.569 204.186 150.973C203.834 151.376 203.613 151.923 203.521 152.613H207.848C207.802 151.878 207.577 151.321 207.174 150.943C206.777 150.559 206.282 150.367 205.689 150.367ZM205.689 148.072C206.575 148.072 207.372 148.238 208.082 148.57C208.792 148.902 209.378 149.426 209.84 150.143C210.257 150.774 210.527 151.507 210.65 152.34C210.722 152.828 210.751 153.531 210.738 154.449H203.453C203.492 155.517 203.827 156.266 204.459 156.695C204.843 156.962 205.305 157.096 205.846 157.096C206.419 157.096 206.884 156.933 207.242 156.607C207.438 156.432 207.61 156.188 207.76 155.875H210.602C210.53 156.507 210.201 157.148 209.615 157.799C208.704 158.834 207.428 159.352 205.787 159.352C204.433 159.352 203.238 158.915 202.203 158.043C201.168 157.171 200.65 155.751 200.65 153.785C200.65 151.943 201.116 150.53 202.047 149.547C202.984 148.564 204.199 148.072 205.689 148.072ZM218.492 153.824C218.316 153.935 218.137 154.026 217.955 154.098C217.779 154.163 217.535 154.225 217.223 154.283L216.598 154.4C216.012 154.505 215.592 154.632 215.338 154.781C214.908 155.035 214.693 155.429 214.693 155.963C214.693 156.438 214.824 156.783 215.084 156.998C215.351 157.206 215.673 157.311 216.051 157.311C216.65 157.311 217.2 157.135 217.701 156.783C218.209 156.432 218.473 155.79 218.492 154.859V153.824ZM216.803 152.525C217.317 152.46 217.685 152.379 217.906 152.281C218.303 152.112 218.502 151.848 218.502 151.49C218.502 151.054 218.349 150.755 218.043 150.592C217.743 150.423 217.301 150.338 216.715 150.338C216.057 150.338 215.592 150.501 215.318 150.826C215.123 151.067 214.993 151.393 214.928 151.803H212.242C212.301 150.872 212.561 150.107 213.023 149.508C213.759 148.57 215.022 148.102 216.812 148.102C217.978 148.102 219.013 148.333 219.918 148.795C220.823 149.257 221.275 150.13 221.275 151.412V156.295C221.275 156.633 221.282 157.044 221.295 157.525C221.314 157.89 221.37 158.137 221.461 158.268C221.552 158.398 221.689 158.505 221.871 158.59V159H218.844C218.759 158.785 218.701 158.583 218.668 158.395C218.635 158.206 218.609 157.991 218.59 157.75C218.206 158.167 217.763 158.521 217.262 158.814C216.663 159.16 215.986 159.332 215.23 159.332C214.267 159.332 213.469 159.059 212.838 158.512C212.213 157.958 211.9 157.177 211.9 156.168C211.9 154.859 212.405 153.912 213.414 153.326C213.967 153.007 214.781 152.779 215.855 152.643L216.803 152.525ZM226.598 159H223.814V144.605H226.598V159ZM228.229 150.436V148.453H229.713V145.484H232.467V148.453H234.195V150.436H232.467V156.061C232.467 156.497 232.522 156.77 232.633 156.881C232.743 156.985 233.082 157.037 233.648 157.037C233.733 157.037 233.821 157.037 233.912 157.037C234.01 157.031 234.104 157.024 234.195 157.018V159.098L232.877 159.146C231.562 159.192 230.663 158.964 230.182 158.463C229.869 158.144 229.713 157.652 229.713 156.988V150.436H228.229ZM241.852 148.082C242.509 148.082 243.105 148.196 243.639 148.424C244.179 148.652 244.622 149 244.967 149.469C245.26 149.866 245.439 150.276 245.504 150.699C245.569 151.116 245.602 151.799 245.602 152.75V159H242.76V152.525C242.76 151.952 242.662 151.49 242.467 151.139C242.213 150.644 241.731 150.396 241.021 150.396C240.286 150.396 239.726 150.644 239.342 151.139C238.964 151.627 238.775 152.327 238.775 153.238V159H236.002V144.654H238.775V149.742C239.179 149.124 239.645 148.694 240.172 148.453C240.706 148.206 241.266 148.082 241.852 148.082ZM116.656 175.174C116.604 174.777 116.471 174.419 116.256 174.1C115.943 173.67 115.458 173.455 114.801 173.455C113.863 173.455 113.222 173.921 112.877 174.852C112.695 175.346 112.604 176.004 112.604 176.824C112.604 177.605 112.695 178.234 112.877 178.709C113.209 179.594 113.834 180.037 114.752 180.037C115.403 180.037 115.865 179.861 116.139 179.51C116.412 179.158 116.578 178.702 116.637 178.143H119.479C119.413 178.989 119.107 179.79 118.561 180.545C117.688 181.762 116.396 182.371 114.684 182.371C112.971 182.371 111.712 181.863 110.904 180.848C110.097 179.832 109.693 178.514 109.693 176.893C109.693 175.063 110.139 173.641 111.031 172.625C111.923 171.609 113.154 171.102 114.723 171.102C116.057 171.102 117.148 171.401 117.994 172C118.847 172.599 119.352 173.657 119.508 175.174H116.656ZM127.301 176.824C127.125 176.935 126.946 177.026 126.764 177.098C126.588 177.163 126.344 177.225 126.031 177.283L125.406 177.4C124.82 177.505 124.4 177.632 124.146 177.781C123.717 178.035 123.502 178.429 123.502 178.963C123.502 179.438 123.632 179.783 123.893 179.998C124.16 180.206 124.482 180.311 124.859 180.311C125.458 180.311 126.008 180.135 126.51 179.783C127.018 179.432 127.281 178.79 127.301 177.859V176.824ZM125.611 175.525C126.126 175.46 126.493 175.379 126.715 175.281C127.112 175.112 127.311 174.848 127.311 174.49C127.311 174.054 127.158 173.755 126.852 173.592C126.552 173.423 126.109 173.338 125.523 173.338C124.866 173.338 124.4 173.501 124.127 173.826C123.932 174.067 123.801 174.393 123.736 174.803H121.051C121.109 173.872 121.37 173.107 121.832 172.508C122.568 171.57 123.831 171.102 125.621 171.102C126.786 171.102 127.822 171.333 128.727 171.795C129.632 172.257 130.084 173.13 130.084 174.412V179.295C130.084 179.633 130.09 180.044 130.104 180.525C130.123 180.89 130.178 181.137 130.27 181.268C130.361 181.398 130.497 181.505 130.68 181.59V182H127.652C127.568 181.785 127.509 181.583 127.477 181.395C127.444 181.206 127.418 180.991 127.398 180.75C127.014 181.167 126.572 181.521 126.07 181.814C125.471 182.16 124.794 182.332 124.039 182.332C123.076 182.332 122.278 182.059 121.646 181.512C121.021 180.958 120.709 180.177 120.709 179.168C120.709 177.859 121.214 176.912 122.223 176.326C122.776 176.007 123.59 175.779 124.664 175.643L125.611 175.525ZM138.346 171.102C138.398 171.102 138.44 171.105 138.473 171.111C138.512 171.111 138.593 171.115 138.717 171.121V173.973C138.541 173.953 138.385 173.94 138.248 173.934C138.111 173.927 138.001 173.924 137.916 173.924C136.796 173.924 136.044 174.288 135.66 175.018C135.445 175.428 135.338 176.059 135.338 176.912V182H132.535V171.355H135.191V173.211C135.621 172.501 135.995 172.016 136.314 171.756C136.835 171.32 137.512 171.102 138.346 171.102ZM144.557 173.367C143.912 173.367 143.411 173.569 143.053 173.973C142.701 174.376 142.48 174.923 142.389 175.613H146.715C146.669 174.878 146.445 174.321 146.041 173.943C145.644 173.559 145.149 173.367 144.557 173.367ZM144.557 171.072C145.442 171.072 146.24 171.238 146.949 171.57C147.659 171.902 148.245 172.426 148.707 173.143C149.124 173.774 149.394 174.507 149.518 175.34C149.589 175.828 149.618 176.531 149.605 177.449H142.32C142.359 178.517 142.695 179.266 143.326 179.695C143.71 179.962 144.173 180.096 144.713 180.096C145.286 180.096 145.751 179.933 146.109 179.607C146.305 179.432 146.477 179.188 146.627 178.875H149.469C149.397 179.507 149.068 180.148 148.482 180.799C147.571 181.834 146.295 182.352 144.654 182.352C143.3 182.352 142.105 181.915 141.07 181.043C140.035 180.171 139.518 178.751 139.518 176.785C139.518 174.943 139.983 173.53 140.914 172.547C141.852 171.564 143.066 171.072 144.557 171.072ZM162.926 176.824C162.75 176.935 162.571 177.026 162.389 177.098C162.213 177.163 161.969 177.225 161.656 177.283L161.031 177.4C160.445 177.505 160.025 177.632 159.771 177.781C159.342 178.035 159.127 178.429 159.127 178.963C159.127 179.438 159.257 179.783 159.518 179.998C159.785 180.206 160.107 180.311 160.484 180.311C161.083 180.311 161.633 180.135 162.135 179.783C162.643 179.432 162.906 178.79 162.926 177.859V176.824ZM161.236 175.525C161.751 175.46 162.118 175.379 162.34 175.281C162.737 175.112 162.936 174.848 162.936 174.49C162.936 174.054 162.783 173.755 162.477 173.592C162.177 173.423 161.734 173.338 161.148 173.338C160.491 173.338 160.025 173.501 159.752 173.826C159.557 174.067 159.426 174.393 159.361 174.803H156.676C156.734 173.872 156.995 173.107 157.457 172.508C158.193 171.57 159.456 171.102 161.246 171.102C162.411 171.102 163.447 171.333 164.352 171.795C165.257 172.257 165.709 173.13 165.709 174.412V179.295C165.709 179.633 165.715 180.044 165.729 180.525C165.748 180.89 165.803 181.137 165.895 181.268C165.986 181.398 166.122 181.505 166.305 181.59V182H163.277C163.193 181.785 163.134 181.583 163.102 181.395C163.069 181.206 163.043 180.991 163.023 180.75C162.639 181.167 162.197 181.521 161.695 181.814C161.096 182.16 160.419 182.332 159.664 182.332C158.701 182.332 157.903 182.059 157.271 181.512C156.646 180.958 156.334 180.177 156.334 179.168C156.334 177.859 156.839 176.912 157.848 176.326C158.401 176.007 159.215 175.779 160.289 175.643L161.236 175.525ZM174.088 171.102C175.188 171.102 176.087 171.391 176.783 171.971C177.486 172.544 177.838 173.497 177.838 174.832V182H174.986V175.525C174.986 174.965 174.911 174.536 174.762 174.236C174.488 173.689 173.967 173.416 173.199 173.416C172.255 173.416 171.607 173.816 171.256 174.617C171.074 175.04 170.982 175.581 170.982 176.238V182H168.209V171.375H170.895V172.928C171.253 172.381 171.591 171.987 171.91 171.746C172.483 171.316 173.209 171.102 174.088 171.102ZM184.342 171.102C184.986 171.102 185.559 171.245 186.061 171.531C186.562 171.811 186.969 172.202 187.281 172.703V167.625H190.104V182H187.398V180.525C187.001 181.157 186.549 181.616 186.041 181.902C185.533 182.189 184.902 182.332 184.146 182.332C182.903 182.332 181.855 181.831 181.002 180.828C180.156 179.819 179.732 178.527 179.732 176.951C179.732 175.135 180.149 173.706 180.982 172.664C181.822 171.622 182.942 171.102 184.342 171.102ZM184.947 179.988C185.735 179.988 186.334 179.695 186.744 179.109C187.154 178.523 187.359 177.765 187.359 176.834C187.359 175.532 187.031 174.601 186.373 174.041C185.969 173.702 185.501 173.533 184.967 173.533C184.153 173.533 183.554 173.842 183.17 174.461C182.792 175.073 182.604 175.835 182.604 176.746C182.604 177.729 182.796 178.517 183.18 179.109C183.57 179.695 184.16 179.988 184.947 179.988ZM201.07 170.086H198.248V167.518H201.07V170.086ZM198.248 171.355H201.07V182H198.248V171.355ZM202.682 173.436V171.453H204.166V168.484H206.92V171.453H208.648V173.436H206.92V179.061C206.92 179.497 206.975 179.77 207.086 179.881C207.197 179.985 207.535 180.037 208.102 180.037C208.186 180.037 208.274 180.037 208.365 180.037C208.463 180.031 208.557 180.024 208.648 180.018V182.098L207.33 182.146C206.015 182.192 205.117 181.964 204.635 181.463C204.322 181.144 204.166 180.652 204.166 179.988V173.436H202.682ZM210.475 172.117C211.113 171.915 211.552 171.574 211.793 171.092C211.923 170.805 211.979 170.516 211.959 170.223H210.426V167.654H213.209V169.715C213.209 170.698 212.968 171.473 212.486 172.039C212.011 172.605 211.34 172.973 210.475 173.143V172.117ZM217.428 178.602C217.486 179.096 217.613 179.448 217.809 179.656C218.154 180.027 218.792 180.213 219.723 180.213C220.27 180.213 220.702 180.132 221.021 179.969C221.347 179.806 221.51 179.562 221.51 179.236C221.51 178.924 221.38 178.686 221.119 178.523C220.859 178.361 219.892 178.081 218.219 177.684C217.014 177.384 216.165 177.01 215.67 176.561C215.175 176.118 214.928 175.48 214.928 174.646C214.928 173.663 215.312 172.82 216.08 172.117C216.855 171.408 217.942 171.053 219.342 171.053C220.67 171.053 221.751 171.32 222.584 171.854C223.424 172.381 223.906 173.296 224.029 174.598H221.246C221.207 174.24 221.106 173.956 220.943 173.748C220.637 173.37 220.117 173.182 219.381 173.182C218.775 173.182 218.342 173.276 218.082 173.465C217.828 173.654 217.701 173.875 217.701 174.129C217.701 174.448 217.838 174.679 218.111 174.822C218.385 174.972 219.352 175.229 221.012 175.594C222.118 175.854 222.949 176.248 223.502 176.775C224.049 177.309 224.322 177.977 224.322 178.777C224.322 179.832 223.928 180.695 223.141 181.365C222.359 182.029 221.148 182.361 219.508 182.361C217.835 182.361 216.598 182.01 215.797 181.307C215.003 180.597 214.605 179.695 214.605 178.602H217.428ZM236.734 180.037C237.548 180.037 238.173 179.747 238.609 179.168C239.046 178.589 239.264 177.765 239.264 176.697C239.264 175.63 239.046 174.809 238.609 174.236C238.173 173.657 237.548 173.367 236.734 173.367C235.921 173.367 235.292 173.657 234.85 174.236C234.413 174.809 234.195 175.63 234.195 176.697C234.195 177.765 234.413 178.589 234.85 179.168C235.292 179.747 235.921 180.037 236.734 180.037ZM242.184 176.697C242.184 178.26 241.734 179.598 240.836 180.711C239.938 181.818 238.574 182.371 236.744 182.371C234.915 182.371 233.551 181.818 232.652 180.711C231.754 179.598 231.305 178.26 231.305 176.697C231.305 175.161 231.754 173.829 232.652 172.703C233.551 171.577 234.915 171.014 236.744 171.014C238.574 171.014 239.938 171.577 240.836 172.703C241.734 173.829 242.184 175.161 242.184 176.697ZM250.084 171.102C251.184 171.102 252.083 171.391 252.779 171.971C253.482 172.544 253.834 173.497 253.834 174.832V182H250.982V175.525C250.982 174.965 250.908 174.536 250.758 174.236C250.484 173.689 249.964 173.416 249.195 173.416C248.251 173.416 247.604 173.816 247.252 174.617C247.07 175.04 246.979 175.581 246.979 176.238V182H244.205V171.375H246.891V172.928C247.249 172.381 247.587 171.987 247.906 171.746C248.479 171.316 249.205 171.102 250.084 171.102ZM259.254 182H256.471V167.605H259.254V182ZM262.408 184.041L262.76 184.061C263.033 184.074 263.294 184.064 263.541 184.031C263.788 183.999 263.997 183.924 264.166 183.807C264.329 183.696 264.479 183.465 264.615 183.113C264.758 182.762 264.817 182.547 264.791 182.469L260.885 171.355H263.98L266.305 179.207L268.502 171.355H271.461L267.809 181.824C267.105 183.842 266.549 185.092 266.139 185.574C265.729 186.062 264.908 186.307 263.678 186.307C263.43 186.307 263.232 186.303 263.082 186.297C262.932 186.297 262.708 186.287 262.408 186.268V184.041ZM114.869 202.715C115.52 202.715 116.07 202.471 116.52 201.982C116.969 201.488 117.193 200.703 117.193 199.629C117.193 198.62 116.979 197.852 116.549 197.324C116.126 196.797 115.556 196.533 114.84 196.533C113.863 196.533 113.189 196.992 112.818 197.91C112.623 198.398 112.525 199.001 112.525 199.717C112.525 200.335 112.63 200.885 112.838 201.367C113.215 202.266 113.893 202.715 114.869 202.715ZM114.176 194.102C114.71 194.102 115.175 194.183 115.572 194.346C116.249 194.626 116.796 195.14 117.213 195.889V194.355H119.918V204.453C119.918 205.827 119.687 206.862 119.225 207.559C118.43 208.757 116.907 209.355 114.654 209.355C113.294 209.355 112.184 209.089 111.324 208.555C110.465 208.021 109.99 207.223 109.898 206.162H112.926C113.004 206.488 113.131 206.722 113.307 206.865C113.606 207.119 114.111 207.246 114.82 207.246C115.823 207.246 116.493 206.911 116.832 206.24C117.053 205.811 117.164 205.088 117.164 204.072V203.389C116.897 203.844 116.611 204.186 116.305 204.414C115.751 204.837 115.032 205.049 114.146 205.049C112.779 205.049 111.686 204.57 110.865 203.613C110.051 202.65 109.645 201.348 109.645 199.707C109.645 198.125 110.038 196.797 110.826 195.723C111.614 194.642 112.73 194.102 114.176 194.102ZM126.725 196.367C126.08 196.367 125.579 196.569 125.221 196.973C124.869 197.376 124.648 197.923 124.557 198.613H128.883C128.837 197.878 128.613 197.321 128.209 196.943C127.812 196.559 127.317 196.367 126.725 196.367ZM126.725 194.072C127.61 194.072 128.408 194.238 129.117 194.57C129.827 194.902 130.413 195.426 130.875 196.143C131.292 196.774 131.562 197.507 131.686 198.34C131.757 198.828 131.786 199.531 131.773 200.449H124.488C124.527 201.517 124.863 202.266 125.494 202.695C125.878 202.962 126.34 203.096 126.881 203.096C127.454 203.096 127.919 202.933 128.277 202.607C128.473 202.432 128.645 202.188 128.795 201.875H131.637C131.565 202.507 131.236 203.148 130.65 203.799C129.739 204.834 128.463 205.352 126.822 205.352C125.468 205.352 124.273 204.915 123.238 204.043C122.203 203.171 121.686 201.751 121.686 199.785C121.686 197.943 122.151 196.53 123.082 195.547C124.02 194.564 125.234 194.072 126.725 194.072ZM132.564 196.436V194.453H134.049V191.484H136.803V194.453H138.531V196.436H136.803V202.061C136.803 202.497 136.858 202.77 136.969 202.881C137.079 202.985 137.418 203.037 137.984 203.037C138.069 203.037 138.157 203.037 138.248 203.037C138.346 203.031 138.44 203.024 138.531 203.018V205.098L137.213 205.146C135.898 205.192 134.999 204.964 134.518 204.463C134.205 204.144 134.049 203.652 134.049 202.988V196.436H132.564ZM139.225 196.436V194.453H140.709V191.484H143.463V194.453H145.191V196.436H143.463V202.061C143.463 202.497 143.518 202.77 143.629 202.881C143.74 202.985 144.078 203.037 144.645 203.037C144.729 203.037 144.817 203.037 144.908 203.037C145.006 203.031 145.1 203.024 145.191 203.018V205.098L143.873 205.146C142.558 205.192 141.66 204.964 141.178 204.463C140.865 204.144 140.709 203.652 140.709 202.988V196.436H139.225ZM149.84 193.086H147.018V190.518H149.84V193.086ZM147.018 194.355H149.84V205H147.018V194.355ZM158.443 194.102C159.544 194.102 160.442 194.391 161.139 194.971C161.842 195.544 162.193 196.497 162.193 197.832V205H159.342V198.525C159.342 197.965 159.267 197.536 159.117 197.236C158.844 196.689 158.323 196.416 157.555 196.416C156.611 196.416 155.963 196.816 155.611 197.617C155.429 198.04 155.338 198.581 155.338 199.238V205H152.564V194.375H155.25V195.928C155.608 195.381 155.947 194.987 156.266 194.746C156.839 194.316 157.564 194.102 158.443 194.102ZM169.342 202.715C169.993 202.715 170.543 202.471 170.992 201.982C171.441 201.488 171.666 200.703 171.666 199.629C171.666 198.62 171.451 197.852 171.021 197.324C170.598 196.797 170.029 196.533 169.312 196.533C168.336 196.533 167.662 196.992 167.291 197.91C167.096 198.398 166.998 199.001 166.998 199.717C166.998 200.335 167.102 200.885 167.311 201.367C167.688 202.266 168.365 202.715 169.342 202.715ZM168.648 194.102C169.182 194.102 169.648 194.183 170.045 194.346C170.722 194.626 171.269 195.14 171.686 195.889V194.355H174.391V204.453C174.391 205.827 174.16 206.862 173.697 207.559C172.903 208.757 171.38 209.355 169.127 209.355C167.766 209.355 166.656 209.089 165.797 208.555C164.938 208.021 164.462 207.223 164.371 206.162H167.398C167.477 206.488 167.604 206.722 167.779 206.865C168.079 207.119 168.583 207.246 169.293 207.246C170.296 207.246 170.966 206.911 171.305 206.24C171.526 205.811 171.637 205.088 171.637 204.072V203.389C171.37 203.844 171.083 204.186 170.777 204.414C170.224 204.837 169.505 205.049 168.619 205.049C167.252 205.049 166.158 204.57 165.338 203.613C164.524 202.65 164.117 201.348 164.117 199.707C164.117 198.125 164.511 196.797 165.299 195.723C166.087 194.642 167.203 194.102 168.648 194.102ZM187.584 194.355H190.406L192.027 202.021L193.688 194.355H196.588L193.502 205H190.641L188.971 197.246L187.281 205H184.391L181.402 194.355H184.391L186.051 201.992L187.584 194.355ZM202.906 203.037C203.72 203.037 204.345 202.747 204.781 202.168C205.217 201.589 205.436 200.765 205.436 199.697C205.436 198.63 205.217 197.809 204.781 197.236C204.345 196.657 203.72 196.367 202.906 196.367C202.092 196.367 201.464 196.657 201.021 197.236C200.585 197.809 200.367 198.63 200.367 199.697C200.367 200.765 200.585 201.589 201.021 202.168C201.464 202.747 202.092 203.037 202.906 203.037ZM208.355 199.697C208.355 201.26 207.906 202.598 207.008 203.711C206.109 204.818 204.745 205.371 202.916 205.371C201.087 205.371 199.723 204.818 198.824 203.711C197.926 202.598 197.477 201.26 197.477 199.697C197.477 198.161 197.926 196.829 198.824 195.703C199.723 194.577 201.087 194.014 202.916 194.014C204.745 194.014 206.109 194.577 207.008 195.703C207.906 196.829 208.355 198.161 208.355 199.697ZM216.139 194.102C216.191 194.102 216.233 194.105 216.266 194.111C216.305 194.111 216.386 194.115 216.51 194.121V196.973C216.334 196.953 216.178 196.94 216.041 196.934C215.904 196.927 215.794 196.924 215.709 196.924C214.589 196.924 213.837 197.288 213.453 198.018C213.238 198.428 213.131 199.059 213.131 199.912V205H210.328V194.355H212.984V196.211C213.414 195.501 213.788 195.016 214.107 194.756C214.628 194.32 215.305 194.102 216.139 194.102ZM220.318 201.602C220.377 202.096 220.504 202.448 220.699 202.656C221.044 203.027 221.682 203.213 222.613 203.213C223.16 203.213 223.593 203.132 223.912 202.969C224.238 202.806 224.4 202.562 224.4 202.236C224.4 201.924 224.27 201.686 224.01 201.523C223.749 201.361 222.783 201.081 221.109 200.684C219.905 200.384 219.055 200.01 218.561 199.561C218.066 199.118 217.818 198.48 217.818 197.646C217.818 196.663 218.202 195.82 218.971 195.117C219.745 194.408 220.833 194.053 222.232 194.053C223.561 194.053 224.641 194.32 225.475 194.854C226.314 195.381 226.796 196.296 226.92 197.598H224.137C224.098 197.24 223.997 196.956 223.834 196.748C223.528 196.37 223.007 196.182 222.271 196.182C221.666 196.182 221.233 196.276 220.973 196.465C220.719 196.654 220.592 196.875 220.592 197.129C220.592 197.448 220.729 197.679 221.002 197.822C221.275 197.972 222.242 198.229 223.902 198.594C225.009 198.854 225.839 199.248 226.393 199.775C226.939 200.309 227.213 200.977 227.213 201.777C227.213 202.832 226.819 203.695 226.031 204.365C225.25 205.029 224.039 205.361 222.398 205.361C220.725 205.361 219.488 205.01 218.688 204.307C217.893 203.597 217.496 202.695 217.496 201.602H220.318ZM233.482 196.367C232.838 196.367 232.337 196.569 231.979 196.973C231.627 197.376 231.406 197.923 231.314 198.613H235.641C235.595 197.878 235.37 197.321 234.967 196.943C234.57 196.559 234.075 196.367 233.482 196.367ZM233.482 194.072C234.368 194.072 235.165 194.238 235.875 194.57C236.585 194.902 237.171 195.426 237.633 196.143C238.049 196.774 238.32 197.507 238.443 198.34C238.515 198.828 238.544 199.531 238.531 200.449H231.246C231.285 201.517 231.62 202.266 232.252 202.695C232.636 202.962 233.098 203.096 233.639 203.096C234.212 203.096 234.677 202.933 235.035 202.607C235.23 202.432 235.403 202.188 235.553 201.875H238.395C238.323 202.507 237.994 203.148 237.408 203.799C236.497 204.834 235.221 205.352 233.58 205.352C232.226 205.352 231.031 204.915 229.996 204.043C228.961 203.171 228.443 201.751 228.443 199.785C228.443 197.943 228.909 196.53 229.84 195.547C230.777 194.564 231.992 194.072 233.482 194.072Z" fill="white" />
</svg>