<svg width="390" height="240" viewBox="0 0 390 240" fill="none" xmlns="http://www.w3.org/2000/svg">
  <rect x="-0.5354" width="393.071" height="240" fill="#B5D9FF" />
  <rect x="44.5" y="48.5" width="113" height="110" stroke="white" />
  <rect x="98" y="76" width="131" height="129" fill="#B5D9FF" />
  <path d="M113.486 98.6055L115.391 106.848L115.801 109.143L116.221 106.896L117.842 98.6055H121.016L122.725 106.848L123.164 109.143L123.604 106.936L125.527 98.6055H128.584L124.531 113H121.66L119.922 104.582L119.414 101.799L118.906 104.582L117.168 113H114.375L110.293 98.6055H113.486ZM136.055 102.082C136.712 102.082 137.308 102.196 137.842 102.424C138.382 102.652 138.825 103 139.17 103.469C139.463 103.866 139.642 104.276 139.707 104.699C139.772 105.116 139.805 105.799 139.805 106.75V113H136.963V106.525C136.963 105.952 136.865 105.49 136.67 105.139C136.416 104.644 135.934 104.396 135.225 104.396C134.489 104.396 133.929 104.644 133.545 105.139C133.167 105.627 132.979 106.327 132.979 107.238V113H130.205V98.6543H132.979V103.742C133.382 103.124 133.848 102.694 134.375 102.453C134.909 102.206 135.469 102.082 136.055 102.082ZM148.281 107.824C148.105 107.935 147.926 108.026 147.744 108.098C147.568 108.163 147.324 108.225 147.012 108.283L146.387 108.4C145.801 108.505 145.381 108.632 145.127 108.781C144.697 109.035 144.482 109.429 144.482 109.963C144.482 110.438 144.613 110.783 144.873 110.998C145.14 111.206 145.462 111.311 145.84 111.311C146.439 111.311 146.989 111.135 147.49 110.783C147.998 110.432 148.262 109.79 148.281 108.859V107.824ZM146.592 106.525C147.106 106.46 147.474 106.379 147.695 106.281C148.092 106.112 148.291 105.848 148.291 105.49C148.291 105.054 148.138 104.755 147.832 104.592C147.533 104.423 147.09 104.338 146.504 104.338C145.846 104.338 145.381 104.501 145.107 104.826C144.912 105.067 144.782 105.393 144.717 105.803H142.031C142.09 104.872 142.35 104.107 142.812 103.508C143.548 102.57 144.811 102.102 146.602 102.102C147.767 102.102 148.802 102.333 149.707 102.795C150.612 103.257 151.064 104.13 151.064 105.412V110.295C151.064 110.633 151.071 111.044 151.084 111.525C151.104 111.89 151.159 112.137 151.25 112.268C151.341 112.398 151.478 112.505 151.66 112.59V113H148.633C148.548 112.785 148.49 112.583 148.457 112.395C148.424 112.206 148.398 111.991 148.379 111.75C147.995 112.167 147.552 112.521 147.051 112.814C146.452 113.16 145.775 113.332 145.02 113.332C144.056 113.332 143.258 113.059 142.627 112.512C142.002 111.958 141.689 111.177 141.689 110.168C141.689 108.859 142.194 107.912 143.203 107.326C143.757 107.007 144.57 106.779 145.645 106.643L146.592 106.525ZM152.451 104.436V102.453H153.936V99.4844H156.689V102.453H158.418V104.436H156.689V110.061C156.689 110.497 156.745 110.77 156.855 110.881C156.966 110.985 157.305 111.037 157.871 111.037C157.956 111.037 158.044 111.037 158.135 111.037C158.232 111.031 158.327 111.024 158.418 111.018V113.098L157.1 113.146C155.785 113.192 154.886 112.964 154.404 112.463C154.092 112.144 153.936 111.652 153.936 110.988V104.436H152.451ZM168.633 101.086H165.811V98.5176H168.633V101.086ZM165.811 102.355H168.633V113H165.811V102.355ZM175.264 98.459C175.439 98.459 175.599 98.4655 175.742 98.4785C175.885 98.485 176.081 98.498 176.328 98.5176V100.783C176.172 100.764 175.908 100.751 175.537 100.744C175.173 100.731 174.919 100.812 174.775 100.988C174.639 101.158 174.57 101.346 174.57 101.555C174.57 101.763 174.57 102.062 174.57 102.453H176.396V104.416H174.57V113H171.797V104.416H170.244V102.453H171.768V101.77C171.768 100.63 171.96 99.8457 172.344 99.416C172.747 98.778 173.721 98.459 175.264 98.459ZM185.732 109.602C185.791 110.096 185.918 110.448 186.113 110.656C186.458 111.027 187.096 111.213 188.027 111.213C188.574 111.213 189.007 111.132 189.326 110.969C189.652 110.806 189.814 110.562 189.814 110.236C189.814 109.924 189.684 109.686 189.424 109.523C189.163 109.361 188.197 109.081 186.523 108.684C185.319 108.384 184.469 108.01 183.975 107.561C183.48 107.118 183.232 106.48 183.232 105.646C183.232 104.663 183.617 103.82 184.385 103.117C185.16 102.408 186.247 102.053 187.646 102.053C188.975 102.053 190.055 102.32 190.889 102.854C191.729 103.381 192.21 104.296 192.334 105.598H189.551C189.512 105.24 189.411 104.956 189.248 104.748C188.942 104.37 188.421 104.182 187.686 104.182C187.08 104.182 186.647 104.276 186.387 104.465C186.133 104.654 186.006 104.875 186.006 105.129C186.006 105.448 186.143 105.679 186.416 105.822C186.689 105.972 187.656 106.229 189.316 106.594C190.423 106.854 191.253 107.248 191.807 107.775C192.354 108.309 192.627 108.977 192.627 109.777C192.627 110.832 192.233 111.695 191.445 112.365C190.664 113.029 189.453 113.361 187.812 113.361C186.139 113.361 184.902 113.01 184.102 112.307C183.307 111.597 182.91 110.695 182.91 109.602H185.732ZM193.604 104.436V102.453H195.088V99.4844H197.842V102.453H199.57V104.436H197.842V110.061C197.842 110.497 197.897 110.77 198.008 110.881C198.118 110.985 198.457 111.037 199.023 111.037C199.108 111.037 199.196 111.037 199.287 111.037C199.385 111.031 199.479 111.024 199.57 111.018V113.098L198.252 113.146C196.937 113.192 196.038 112.964 195.557 112.463C195.244 112.144 195.088 111.652 195.088 110.988V104.436H193.604ZM207.227 107.824C207.051 107.935 206.872 108.026 206.689 108.098C206.514 108.163 206.27 108.225 205.957 108.283L205.332 108.4C204.746 108.505 204.326 108.632 204.072 108.781C203.643 109.035 203.428 109.429 203.428 109.963C203.428 110.438 203.558 110.783 203.818 110.998C204.085 111.206 204.408 111.311 204.785 111.311C205.384 111.311 205.934 111.135 206.436 110.783C206.943 110.432 207.207 109.79 207.227 108.859V107.824ZM205.537 106.525C206.051 106.46 206.419 106.379 206.641 106.281C207.038 106.112 207.236 105.848 207.236 105.49C207.236 105.054 207.083 104.755 206.777 104.592C206.478 104.423 206.035 104.338 205.449 104.338C204.792 104.338 204.326 104.501 204.053 104.826C203.857 105.067 203.727 105.393 203.662 105.803H200.977C201.035 104.872 201.296 104.107 201.758 103.508C202.493 102.57 203.757 102.102 205.547 102.102C206.712 102.102 207.747 102.333 208.652 102.795C209.557 103.257 210.01 104.13 210.01 105.412V110.295C210.01 110.633 210.016 111.044 210.029 111.525C210.049 111.89 210.104 112.137 210.195 112.268C210.286 112.398 210.423 112.505 210.605 112.59V113H207.578C207.493 112.785 207.435 112.583 207.402 112.395C207.37 112.206 207.344 111.991 207.324 111.75C206.94 112.167 206.497 112.521 205.996 112.814C205.397 113.16 204.72 113.332 203.965 113.332C203.001 113.332 202.204 113.059 201.572 112.512C200.947 111.958 200.635 111.177 200.635 110.168C200.635 108.859 201.139 107.912 202.148 107.326C202.702 107.007 203.516 106.779 204.59 106.643L205.537 106.525ZM216.416 98.459C216.592 98.459 216.751 98.4655 216.895 98.4785C217.038 98.485 217.233 98.498 217.48 98.5176V100.783C217.324 100.764 217.061 100.751 216.689 100.744C216.325 100.731 216.071 100.812 215.928 100.988C215.791 101.158 215.723 101.346 215.723 101.555C215.723 101.763 215.723 102.062 215.723 102.453H217.549V104.416H215.723V113H212.949V104.416H211.396V102.453H212.92V101.77C212.92 100.63 213.112 99.8457 213.496 99.416C213.9 98.778 214.873 98.459 216.416 98.459ZM225.928 98.5176H228.652V101.057H225.928V98.5176ZM225.928 102.404H228.701V113H225.928V102.404ZM223.145 98.459C223.314 98.459 223.486 98.4655 223.662 98.4785C223.838 98.4915 224.02 98.5046 224.209 98.5176V100.783C224.079 100.777 223.952 100.773 223.828 100.773C223.704 100.767 223.555 100.764 223.379 100.764C222.943 100.764 222.676 100.884 222.578 101.125C222.48 101.366 222.438 101.743 222.451 102.258V102.453H224.277V104.416H222.451V113H219.678V104.416H218.125V102.453H219.648V101.77C219.648 100.637 219.899 99.7936 220.4 99.2402C220.85 98.7194 221.764 98.459 223.145 98.459ZM237.275 102.102C238.376 102.102 239.274 102.391 239.971 102.971C240.674 103.544 241.025 104.497 241.025 105.832V113H238.174V106.525C238.174 105.965 238.099 105.536 237.949 105.236C237.676 104.689 237.155 104.416 236.387 104.416C235.443 104.416 234.795 104.816 234.443 105.617C234.261 106.04 234.17 106.581 234.17 107.238V113H231.396V102.375H234.082V103.928C234.44 103.381 234.779 102.987 235.098 102.746C235.671 102.316 236.396 102.102 237.275 102.102ZM248.174 110.715C248.825 110.715 249.375 110.471 249.824 109.982C250.273 109.488 250.498 108.703 250.498 107.629C250.498 106.62 250.283 105.852 249.854 105.324C249.43 104.797 248.861 104.533 248.145 104.533C247.168 104.533 246.494 104.992 246.123 105.91C245.928 106.398 245.83 107.001 245.83 107.717C245.83 108.335 245.934 108.885 246.143 109.367C246.52 110.266 247.197 110.715 248.174 110.715ZM247.48 102.102C248.014 102.102 248.48 102.183 248.877 102.346C249.554 102.626 250.101 103.14 250.518 103.889V102.355H253.223V112.453C253.223 113.827 252.992 114.862 252.529 115.559C251.735 116.757 250.212 117.355 247.959 117.355C246.598 117.355 245.488 117.089 244.629 116.555C243.77 116.021 243.294 115.223 243.203 114.162H246.23C246.309 114.488 246.436 114.722 246.611 114.865C246.911 115.119 247.415 115.246 248.125 115.246C249.128 115.246 249.798 114.911 250.137 114.24C250.358 113.811 250.469 113.088 250.469 112.072V111.389C250.202 111.844 249.915 112.186 249.609 112.414C249.056 112.837 248.337 113.049 247.451 113.049C246.084 113.049 244.99 112.57 244.17 111.613C243.356 110.65 242.949 109.348 242.949 107.707C242.949 106.125 243.343 104.797 244.131 103.723C244.919 102.642 246.035 102.102 247.48 102.102ZM113.467 132.602C113.525 133.096 113.652 133.448 113.848 133.656C114.193 134.027 114.831 134.213 115.762 134.213C116.309 134.213 116.742 134.132 117.061 133.969C117.386 133.806 117.549 133.562 117.549 133.236C117.549 132.924 117.419 132.686 117.158 132.523C116.898 132.361 115.931 132.081 114.258 131.684C113.053 131.384 112.204 131.01 111.709 130.561C111.214 130.118 110.967 129.48 110.967 128.646C110.967 127.663 111.351 126.82 112.119 126.117C112.894 125.408 113.981 125.053 115.381 125.053C116.709 125.053 117.79 125.32 118.623 125.854C119.463 126.381 119.945 127.296 120.068 128.598H117.285C117.246 128.24 117.145 127.956 116.982 127.748C116.676 127.37 116.156 127.182 115.42 127.182C114.814 127.182 114.382 127.276 114.121 127.465C113.867 127.654 113.74 127.875 113.74 128.129C113.74 128.448 113.877 128.679 114.15 128.822C114.424 128.972 115.391 129.229 117.051 129.594C118.158 129.854 118.988 130.248 119.541 130.775C120.088 131.309 120.361 131.977 120.361 132.777C120.361 133.832 119.967 134.695 119.18 135.365C118.398 136.029 117.188 136.361 115.547 136.361C113.874 136.361 112.637 136.01 111.836 135.307C111.042 134.597 110.645 133.695 110.645 132.602H113.467ZM128.301 125.082C128.958 125.082 129.554 125.196 130.088 125.424C130.628 125.652 131.071 126 131.416 126.469C131.709 126.866 131.888 127.276 131.953 127.699C132.018 128.116 132.051 128.799 132.051 129.75V136H129.209V129.525C129.209 128.952 129.111 128.49 128.916 128.139C128.662 127.644 128.18 127.396 127.471 127.396C126.735 127.396 126.175 127.644 125.791 128.139C125.413 128.627 125.225 129.327 125.225 130.238V136H122.451V121.654H125.225V126.742C125.628 126.124 126.094 125.694 126.621 125.453C127.155 125.206 127.715 125.082 128.301 125.082ZM139.434 134.037C140.247 134.037 140.872 133.747 141.309 133.168C141.745 132.589 141.963 131.765 141.963 130.697C141.963 129.63 141.745 128.809 141.309 128.236C140.872 127.657 140.247 127.367 139.434 127.367C138.62 127.367 137.992 127.657 137.549 128.236C137.113 128.809 136.895 129.63 136.895 130.697C136.895 131.765 137.113 132.589 137.549 133.168C137.992 133.747 138.62 134.037 139.434 134.037ZM144.883 130.697C144.883 132.26 144.434 133.598 143.535 134.711C142.637 135.818 141.273 136.371 139.443 136.371C137.614 136.371 136.25 135.818 135.352 134.711C134.453 133.598 134.004 132.26 134.004 130.697C134.004 129.161 134.453 127.829 135.352 126.703C136.25 125.577 137.614 125.014 139.443 125.014C141.273 125.014 142.637 125.577 143.535 126.703C144.434 127.829 144.883 129.161 144.883 130.697ZM152.666 125.102C152.718 125.102 152.76 125.105 152.793 125.111C152.832 125.111 152.913 125.115 153.037 125.121V127.973C152.861 127.953 152.705 127.94 152.568 127.934C152.432 127.927 152.321 127.924 152.236 127.924C151.117 127.924 150.365 128.288 149.98 129.018C149.766 129.428 149.658 130.059 149.658 130.912V136H146.855V125.355H149.512V127.211C149.941 126.501 150.316 126.016 150.635 125.756C151.156 125.32 151.833 125.102 152.666 125.102ZM153.584 127.436V125.453H155.068V122.484H157.822V125.453H159.551V127.436H157.822V133.061C157.822 133.497 157.878 133.77 157.988 133.881C158.099 133.985 158.438 134.037 159.004 134.037C159.089 134.037 159.176 134.037 159.268 134.037C159.365 134.031 159.46 134.024 159.551 134.018V136.098L158.232 136.146C156.917 136.192 156.019 135.964 155.537 135.463C155.225 135.144 155.068 134.652 155.068 133.988V127.436H153.584ZM167.207 130.824C167.031 130.935 166.852 131.026 166.67 131.098C166.494 131.163 166.25 131.225 165.938 131.283L165.312 131.4C164.727 131.505 164.307 131.632 164.053 131.781C163.623 132.035 163.408 132.429 163.408 132.963C163.408 133.438 163.538 133.783 163.799 133.998C164.066 134.206 164.388 134.311 164.766 134.311C165.365 134.311 165.915 134.135 166.416 133.783C166.924 133.432 167.188 132.79 167.207 131.859V130.824ZM165.518 129.525C166.032 129.46 166.4 129.379 166.621 129.281C167.018 129.112 167.217 128.848 167.217 128.49C167.217 128.054 167.064 127.755 166.758 127.592C166.458 127.423 166.016 127.338 165.43 127.338C164.772 127.338 164.307 127.501 164.033 127.826C163.838 128.067 163.708 128.393 163.643 128.803H160.957C161.016 127.872 161.276 127.107 161.738 126.508C162.474 125.57 163.737 125.102 165.527 125.102C166.693 125.102 167.728 125.333 168.633 125.795C169.538 126.257 169.99 127.13 169.99 128.412V133.295C169.99 133.633 169.997 134.044 170.01 134.525C170.029 134.89 170.085 135.137 170.176 135.268C170.267 135.398 170.404 135.505 170.586 135.59V136H167.559C167.474 135.785 167.415 135.583 167.383 135.395C167.35 135.206 167.324 134.991 167.305 134.75C166.921 135.167 166.478 135.521 165.977 135.814C165.378 136.16 164.701 136.332 163.945 136.332C162.982 136.332 162.184 136.059 161.553 135.512C160.928 134.958 160.615 134.177 160.615 133.168C160.615 131.859 161.12 130.912 162.129 130.326C162.682 130.007 163.496 129.779 164.57 129.643L165.518 129.525ZM177.041 133.715C177.692 133.715 178.242 133.471 178.691 132.982C179.141 132.488 179.365 131.703 179.365 130.629C179.365 129.62 179.15 128.852 178.721 128.324C178.298 127.797 177.728 127.533 177.012 127.533C176.035 127.533 175.361 127.992 174.99 128.91C174.795 129.398 174.697 130.001 174.697 130.717C174.697 131.335 174.801 131.885 175.01 132.367C175.387 133.266 176.064 133.715 177.041 133.715ZM176.348 125.102C176.882 125.102 177.347 125.183 177.744 125.346C178.421 125.626 178.968 126.14 179.385 126.889V125.355H182.09V135.453C182.09 136.827 181.859 137.862 181.396 138.559C180.602 139.757 179.079 140.355 176.826 140.355C175.465 140.355 174.355 140.089 173.496 139.555C172.637 139.021 172.161 138.223 172.07 137.162H175.098C175.176 137.488 175.303 137.722 175.479 137.865C175.778 138.119 176.283 138.246 176.992 138.246C177.995 138.246 178.665 137.911 179.004 137.24C179.225 136.811 179.336 136.088 179.336 135.072V134.389C179.069 134.844 178.783 135.186 178.477 135.414C177.923 135.837 177.204 136.049 176.318 136.049C174.951 136.049 173.857 135.57 173.037 134.613C172.223 133.65 171.816 132.348 171.816 130.707C171.816 129.125 172.21 127.797 172.998 126.723C173.786 125.642 174.902 125.102 176.348 125.102ZM188.896 127.367C188.252 127.367 187.751 127.569 187.393 127.973C187.041 128.376 186.82 128.923 186.729 129.613H191.055C191.009 128.878 190.785 128.321 190.381 127.943C189.984 127.559 189.489 127.367 188.896 127.367ZM188.896 125.072C189.782 125.072 190.579 125.238 191.289 125.57C191.999 125.902 192.585 126.426 193.047 127.143C193.464 127.774 193.734 128.507 193.857 129.34C193.929 129.828 193.958 130.531 193.945 131.449H186.66C186.699 132.517 187.035 133.266 187.666 133.695C188.05 133.962 188.512 134.096 189.053 134.096C189.626 134.096 190.091 133.933 190.449 133.607C190.645 133.432 190.817 133.188 190.967 132.875H193.809C193.737 133.507 193.408 134.148 192.822 134.799C191.911 135.834 190.635 136.352 188.994 136.352C187.64 136.352 186.445 135.915 185.41 135.043C184.375 134.171 183.857 132.751 183.857 130.785C183.857 128.943 184.323 127.53 185.254 126.547C186.191 125.564 187.406 125.072 188.896 125.072ZM197.998 132.602C198.057 133.096 198.184 133.448 198.379 133.656C198.724 134.027 199.362 134.213 200.293 134.213C200.84 134.213 201.273 134.132 201.592 133.969C201.917 133.806 202.08 133.562 202.08 133.236C202.08 132.924 201.95 132.686 201.689 132.523C201.429 132.361 200.462 132.081 198.789 131.684C197.585 131.384 196.735 131.01 196.24 130.561C195.745 130.118 195.498 129.48 195.498 128.646C195.498 127.663 195.882 126.82 196.65 126.117C197.425 125.408 198.512 125.053 199.912 125.053C201.24 125.053 202.321 125.32 203.154 125.854C203.994 126.381 204.476 127.296 204.6 128.598H201.816C201.777 128.24 201.676 127.956 201.514 127.748C201.208 127.37 200.687 127.182 199.951 127.182C199.346 127.182 198.913 127.276 198.652 127.465C198.398 127.654 198.271 127.875 198.271 128.129C198.271 128.448 198.408 128.679 198.682 128.822C198.955 128.972 199.922 129.229 201.582 129.594C202.689 129.854 203.519 130.248 204.072 130.775C204.619 131.309 204.893 131.977 204.893 132.777C204.893 133.832 204.499 134.695 203.711 135.365C202.93 136.029 201.719 136.361 200.078 136.361C198.405 136.361 197.168 136.01 196.367 135.307C195.573 134.597 195.176 133.695 195.176 132.602H197.998ZM217.549 125.355H220.371L221.992 133.021L223.652 125.355H226.553L223.467 136H220.605L218.936 128.246L217.246 136H214.355L211.367 125.355H214.355L216.016 132.992L217.549 125.355ZM232.295 127.367C231.65 127.367 231.149 127.569 230.791 127.973C230.439 128.376 230.218 128.923 230.127 129.613H234.453C234.408 128.878 234.183 128.321 233.779 127.943C233.382 127.559 232.887 127.367 232.295 127.367ZM232.295 125.072C233.18 125.072 233.978 125.238 234.688 125.57C235.397 125.902 235.983 126.426 236.445 127.143C236.862 127.774 237.132 128.507 237.256 129.34C237.327 129.828 237.357 130.531 237.344 131.449H230.059C230.098 132.517 230.433 133.266 231.064 133.695C231.449 133.962 231.911 134.096 232.451 134.096C233.024 134.096 233.49 133.933 233.848 133.607C234.043 133.432 234.215 133.188 234.365 132.875H237.207C237.135 133.507 236.807 134.148 236.221 134.799C235.309 135.834 234.033 136.352 232.393 136.352C231.038 136.352 229.844 135.915 228.809 135.043C227.773 134.171 227.256 132.751 227.256 130.785C227.256 128.943 227.721 127.53 228.652 126.547C229.59 125.564 230.804 125.072 232.295 125.072ZM245.01 125.102C245.062 125.102 245.104 125.105 245.137 125.111C245.176 125.111 245.257 125.115 245.381 125.121V127.973C245.205 127.953 245.049 127.94 244.912 127.934C244.775 127.927 244.665 127.924 244.58 127.924C243.46 127.924 242.708 128.288 242.324 129.018C242.109 129.428 242.002 130.059 242.002 130.912V136H239.199V125.355H241.855V127.211C242.285 126.501 242.66 126.016 242.979 125.756C243.499 125.32 244.176 125.102 245.01 125.102ZM251.221 127.367C250.576 127.367 250.075 127.569 249.717 127.973C249.365 128.376 249.144 128.923 249.053 129.613H253.379C253.333 128.878 253.109 128.321 252.705 127.943C252.308 127.559 251.813 127.367 251.221 127.367ZM251.221 125.072C252.106 125.072 252.904 125.238 253.613 125.57C254.323 125.902 254.909 126.426 255.371 127.143C255.788 127.774 256.058 128.507 256.182 129.34C256.253 129.828 256.283 130.531 256.27 131.449H248.984C249.023 132.517 249.359 133.266 249.99 133.695C250.374 133.962 250.837 134.096 251.377 134.096C251.95 134.096 252.415 133.933 252.773 133.607C252.969 133.432 253.141 133.188 253.291 132.875H256.133C256.061 133.507 255.732 134.148 255.146 134.799C254.235 135.834 252.959 136.352 251.318 136.352C249.964 136.352 248.77 135.915 247.734 135.043C246.699 134.171 246.182 132.751 246.182 130.785C246.182 128.943 246.647 127.53 247.578 126.547C248.516 125.564 249.73 125.072 251.221 125.072ZM269.619 125.102C270.719 125.102 271.618 125.391 272.314 125.971C273.018 126.544 273.369 127.497 273.369 128.832V136H270.518V129.525C270.518 128.965 270.443 128.536 270.293 128.236C270.02 127.689 269.499 127.416 268.73 127.416C267.786 127.416 267.139 127.816 266.787 128.617C266.605 129.04 266.514 129.581 266.514 130.238V136H263.74V125.375H266.426V126.928C266.784 126.381 267.122 125.987 267.441 125.746C268.014 125.316 268.74 125.102 269.619 125.102ZM280.723 134.037C281.536 134.037 282.161 133.747 282.598 133.168C283.034 132.589 283.252 131.765 283.252 130.697C283.252 129.63 283.034 128.809 282.598 128.236C282.161 127.657 281.536 127.367 280.723 127.367C279.909 127.367 279.281 127.657 278.838 128.236C278.402 128.809 278.184 129.63 278.184 130.697C278.184 131.765 278.402 132.589 278.838 133.168C279.281 133.747 279.909 134.037 280.723 134.037ZM286.172 130.697C286.172 132.26 285.723 133.598 284.824 134.711C283.926 135.818 282.562 136.371 280.732 136.371C278.903 136.371 277.539 135.818 276.641 134.711C275.742 133.598 275.293 132.26 275.293 130.697C275.293 129.161 275.742 127.829 276.641 126.703C277.539 125.577 278.903 125.014 280.732 125.014C282.562 125.014 283.926 125.577 284.824 126.703C285.723 127.829 286.172 129.161 286.172 130.697ZM287.08 127.436V125.453H288.564V122.484H291.318V125.453H293.047V127.436H291.318V133.061C291.318 133.497 291.374 133.77 291.484 133.881C291.595 133.985 291.934 134.037 292.5 134.037C292.585 134.037 292.673 134.037 292.764 134.037C292.861 134.031 292.956 134.024 293.047 134.018V136.098L291.729 136.146C290.413 136.192 289.515 135.964 289.033 135.463C288.721 135.144 288.564 134.652 288.564 133.988V127.436H287.08ZM111.729 161.041L112.08 161.061C112.354 161.074 112.614 161.064 112.861 161.031C113.109 160.999 113.317 160.924 113.486 160.807C113.649 160.696 113.799 160.465 113.936 160.113C114.079 159.762 114.137 159.547 114.111 159.469L110.205 148.355H113.301L115.625 156.207L117.822 148.355H120.781L117.129 158.824C116.426 160.842 115.869 162.092 115.459 162.574C115.049 163.062 114.229 163.307 112.998 163.307C112.751 163.307 112.552 163.303 112.402 163.297C112.253 163.297 112.028 163.287 111.729 163.268V161.041ZM127.207 157.037C128.021 157.037 128.646 156.747 129.082 156.168C129.518 155.589 129.736 154.765 129.736 153.697C129.736 152.63 129.518 151.809 129.082 151.236C128.646 150.657 128.021 150.367 127.207 150.367C126.393 150.367 125.765 150.657 125.322 151.236C124.886 151.809 124.668 152.63 124.668 153.697C124.668 154.765 124.886 155.589 125.322 156.168C125.765 156.747 126.393 157.037 127.207 157.037ZM132.656 153.697C132.656 155.26 132.207 156.598 131.309 157.711C130.41 158.818 129.046 159.371 127.217 159.371C125.387 159.371 124.023 158.818 123.125 157.711C122.227 156.598 121.777 155.26 121.777 153.697C121.777 152.161 122.227 150.829 123.125 149.703C124.023 148.577 125.387 148.014 127.217 148.014C129.046 148.014 130.41 148.577 131.309 149.703C132.207 150.829 132.656 152.161 132.656 153.697ZM137.432 148.355V154.771C137.432 155.377 137.503 155.833 137.646 156.139C137.9 156.679 138.398 156.949 139.141 156.949C140.091 156.949 140.742 156.565 141.094 155.797C141.276 155.38 141.367 154.83 141.367 154.146V148.355H144.189V159H141.484V157.496C141.458 157.529 141.393 157.626 141.289 157.789C141.185 157.952 141.061 158.095 140.918 158.219C140.482 158.609 140.059 158.876 139.648 159.02C139.245 159.163 138.77 159.234 138.223 159.234C136.647 159.234 135.586 158.668 135.039 157.535C134.733 156.91 134.58 155.989 134.58 154.771V148.355H137.432ZM152.666 148.102C152.718 148.102 152.76 148.105 152.793 148.111C152.832 148.111 152.913 148.115 153.037 148.121V150.973C152.861 150.953 152.705 150.94 152.568 150.934C152.432 150.927 152.321 150.924 152.236 150.924C151.117 150.924 150.365 151.288 149.98 152.018C149.766 152.428 149.658 153.059 149.658 153.912V159H146.855V148.355H149.512V150.211C149.941 149.501 150.316 149.016 150.635 148.756C151.156 148.32 151.833 148.102 152.666 148.102ZM164.912 153.453L165.703 150.602H164.082L163.32 153.453H164.912ZM159.385 153.453H161.367L162.139 150.602H160.146L160.586 148.961H162.578L163.643 145.025H165.586L164.521 148.961H166.143L167.178 145.025H169.121L168.086 148.961H170.049L169.609 150.602H167.646L166.855 153.453H168.848L168.408 155.094H166.416L165.371 159H163.428L164.473 155.094H162.871L161.807 159H159.863L160.928 155.094H158.945L159.385 153.453ZM171.465 149.234V147.34C172.344 147.301 172.959 147.242 173.311 147.164C173.87 147.04 174.326 146.793 174.678 146.422C174.919 146.168 175.101 145.829 175.225 145.406C175.296 145.152 175.332 144.964 175.332 144.84H177.646V159H174.795V149.234H171.465ZM190.938 147.086H188.115V144.518H190.938V147.086ZM188.115 148.355H190.938V159H188.115V148.355ZM195.811 155.602C195.869 156.096 195.996 156.448 196.191 156.656C196.536 157.027 197.174 157.213 198.105 157.213C198.652 157.213 199.085 157.132 199.404 156.969C199.73 156.806 199.893 156.562 199.893 156.236C199.893 155.924 199.762 155.686 199.502 155.523C199.242 155.361 198.275 155.081 196.602 154.684C195.397 154.384 194.548 154.01 194.053 153.561C193.558 153.118 193.311 152.48 193.311 151.646C193.311 150.663 193.695 149.82 194.463 149.117C195.238 148.408 196.325 148.053 197.725 148.053C199.053 148.053 200.133 148.32 200.967 148.854C201.807 149.381 202.288 150.296 202.412 151.598H199.629C199.59 151.24 199.489 150.956 199.326 150.748C199.02 150.37 198.499 150.182 197.764 150.182C197.158 150.182 196.725 150.276 196.465 150.465C196.211 150.654 196.084 150.875 196.084 151.129C196.084 151.448 196.221 151.679 196.494 151.822C196.768 151.972 197.734 152.229 199.395 152.594C200.501 152.854 201.331 153.248 201.885 153.775C202.432 154.309 202.705 154.977 202.705 155.777C202.705 156.832 202.311 157.695 201.523 158.365C200.742 159.029 199.531 159.361 197.891 159.361C196.217 159.361 194.98 159.01 194.18 158.307C193.385 157.597 192.988 156.695 192.988 155.602H195.811ZM206.943 155.602C207.002 156.096 207.129 156.448 207.324 156.656C207.669 157.027 208.307 157.213 209.238 157.213C209.785 157.213 210.218 157.132 210.537 156.969C210.863 156.806 211.025 156.562 211.025 156.236C211.025 155.924 210.895 155.686 210.635 155.523C210.374 155.361 209.408 155.081 207.734 154.684C206.53 154.384 205.68 154.01 205.186 153.561C204.691 153.118 204.443 152.48 204.443 151.646C204.443 150.663 204.827 149.82 205.596 149.117C206.37 148.408 207.458 148.053 208.857 148.053C210.186 148.053 211.266 148.32 212.1 148.854C212.939 149.381 213.421 150.296 213.545 151.598H210.762C210.723 151.24 210.622 150.956 210.459 150.748C210.153 150.37 209.632 150.182 208.896 150.182C208.291 150.182 207.858 150.276 207.598 150.465C207.344 150.654 207.217 150.875 207.217 151.129C207.217 151.448 207.354 151.679 207.627 151.822C207.9 151.972 208.867 152.229 210.527 152.594C211.634 152.854 212.464 153.248 213.018 153.775C213.564 154.309 213.838 154.977 213.838 155.777C213.838 156.832 213.444 157.695 212.656 158.365C211.875 159.029 210.664 159.361 209.023 159.361C207.35 159.361 206.113 159.01 205.312 158.307C204.518 157.597 204.121 156.695 204.121 155.602H206.943ZM218.682 148.355V154.771C218.682 155.377 218.753 155.833 218.896 156.139C219.15 156.679 219.648 156.949 220.391 156.949C221.341 156.949 221.992 156.565 222.344 155.797C222.526 155.38 222.617 154.83 222.617 154.146V148.355H225.439V159H222.734V157.496C222.708 157.529 222.643 157.626 222.539 157.789C222.435 157.952 222.311 158.095 222.168 158.219C221.732 158.609 221.309 158.876 220.898 159.02C220.495 159.163 220.02 159.234 219.473 159.234C217.897 159.234 216.836 158.668 216.289 157.535C215.983 156.91 215.83 155.989 215.83 154.771V148.355H218.682ZM232.334 150.367C231.689 150.367 231.188 150.569 230.83 150.973C230.479 151.376 230.257 151.923 230.166 152.613H234.492C234.447 151.878 234.222 151.321 233.818 150.943C233.421 150.559 232.926 150.367 232.334 150.367ZM232.334 148.072C233.219 148.072 234.017 148.238 234.727 148.57C235.436 148.902 236.022 149.426 236.484 150.143C236.901 150.774 237.171 151.507 237.295 152.34C237.367 152.828 237.396 153.531 237.383 154.449H230.098C230.137 155.517 230.472 156.266 231.104 156.695C231.488 156.962 231.95 157.096 232.49 157.096C233.063 157.096 233.529 156.933 233.887 156.607C234.082 156.432 234.255 156.188 234.404 155.875H237.246C237.174 156.507 236.846 157.148 236.26 157.799C235.348 158.834 234.072 159.352 232.432 159.352C231.077 159.352 229.883 158.915 228.848 158.043C227.812 157.171 227.295 155.751 227.295 153.785C227.295 151.943 227.76 150.53 228.691 149.547C229.629 148.564 230.843 148.072 232.334 148.072ZM242.734 156.178H245.645V159H242.734V156.178ZM239.17 149.146C239.248 147.291 239.896 145.976 241.113 145.201C241.882 144.706 242.826 144.459 243.945 144.459C245.417 144.459 246.637 144.811 247.607 145.514C248.584 146.217 249.072 147.258 249.072 148.639C249.072 149.485 248.861 150.198 248.438 150.777C248.19 151.129 247.715 151.578 247.012 152.125L246.318 152.662C245.941 152.955 245.69 153.297 245.566 153.688C245.488 153.935 245.446 154.319 245.439 154.84H242.803C242.842 153.74 242.946 152.981 243.115 152.564C243.285 152.141 243.721 151.656 244.424 151.109L245.137 150.553C245.371 150.377 245.56 150.185 245.703 149.977C245.964 149.618 246.094 149.225 246.094 148.795C246.094 148.3 245.947 147.851 245.654 147.447C245.368 147.037 244.84 146.832 244.072 146.832C243.317 146.832 242.78 147.083 242.461 147.584C242.148 148.085 241.992 148.606 241.992 149.146H239.17Z" fill="white" />
</svg>