<?xml version="1.0" standalone="no"?>
<!DOCTYPE svg PUBLIC "-//W3C//DTD SVG 20010904//EN"
 "http://www.w3.org/TR/2001/REC-SVG-20010904/DTD/svg10.dtd">
<svg version="1.0" xmlns="http://www.w3.org/2000/svg"
 width="300.000000pt" height="300.000000pt" viewBox="0 0 300.000000 300.000000"
 preserveAspectRatio="xMidYMid meet">
<metadata>
Created by potrace 1.14, written by Peter Selinger 2001-2017
</metadata>
<g transform="translate(0.000000,300.000000) scale(0.100000,-0.100000)"
fill="#000000" stroke="none">
<path d="M0 1500 l0 -1500 1500 0 1500 0 0 1500 0 1500 -1500 0 -1500 0 0
-1500z m2122 943 c10 -9 18 -28 18 -43 0 -52 -50 -77 -315 -158 -110 -33 -225
-68 -256 -77 l-56 -16 -11 -117 c-7 -64 -15 -168 -18 -229 -8 -131 -20 -121
121 -98 163 27 235 15 235 -39 0 -45 -76 -85 -246 -132 l-107 -29 7 -130 c4
-71 16 -231 27 -355 11 -124 19 -271 17 -327 -3 -91 -5 -104 -27 -127 -17 -18
-35 -26 -57 -26 -29 0 -37 6 -59 44 -79 134 -123 370 -139 735 -3 62 -7 115
-8 116 -2 2 -32 -3 -68 -11 -76 -16 -178 -18 -214 -4 -37 14 -52 51 -36 90 16
40 105 83 234 113 l95 22 6 65 c14 151 36 272 59 329 13 34 21 61 16 61 -5 0
-109 -25 -232 -56 -253 -63 -350 -73 -387 -40 -67 61 23 153 184 190 61 14
698 165 1005 239 126 31 186 33 212 10z m166 -618 c28 -33 28 -74 0 -111 -49
-64 -110 -93 -191 -94 -51 0 -62 4 -88 29 -58 59 -28 149 66 193 32 15 55 18
115 14 65 -4 78 -8 98 -31z"/>
</g>
</svg>
